M48
;Layer_Color=9474304
;FILE_FORMAT=4:3
METRIC,LZ
;TYPE=PLATED
T1F00S00C0.203
T2F00S00C0.508
T3F00S00C0.900
T4F00S00C1.500
T5F00S00C1.702
%
T01
X004305Y0042
X00462Y00441
X00525
X00546
X00567
X005565Y0042
X005355
X005145
X00546Y00399
X005565Y00504
X005775
X00588Y00525
X00609
X0063
X00651
X006405Y00546
X005985
X00609Y00567
X00546
X005355Y00588
Y00546
Y00504
X006195
X0063Y00441
X00672
X00693
X00714
X007245Y0042
X007035
X00714Y00399
X00672Y00609
X006195Y0063
X005355Y00672
X00462Y00651
X004515Y0063
X004305
X0042Y00651
X00462Y00609
X004515Y00546
X004095
X00399Y00567
Y00483
X00378
X003675Y00504
X003465
X00357Y00525
X00378
X003465Y00546
X00357Y00567
X00336Y00609
X003255Y0063
Y00672
X00294Y00651
X003045Y00588
X00294Y00567
X003045Y00546
X00315Y00525
X00294
X00315Y00483
X00336
X003255Y00462
X003675
X003885Y0042
X00357Y00399
X00336
X00315
X00294
Y00441
X003255Y0042
T02
X0039725Y0058025
X0044831Y0058039
X00468Y006255
X0051943Y0061595
X0058547Y0059563
X0059563
X0059075Y0063425
X0064516Y0059436
Y0057531
Y0056515
X0062738Y0056769
X0068326Y0057531
X0068453Y0055753
X0070231Y0057658
X007235Y00513
X0064389Y0050546
X0063725Y004905
X0059825Y0050075
X0058625Y00501
X0059555Y004479
X006455Y00445
X006805Y004505
X005376Y0048475
X0053848Y0051943
X0053594Y0053467
X0039475Y0051525
X0039243Y0047117
X0038608Y0046101
X0033325Y00526
X0037875Y005805
X0036703Y0060594
T03
X005735Y003965
X005989
X006243
X006497
X006751
Y004219
X006497
X006243
X005989
X005735
X0051865Y00406
X0049325
X0045225Y00432
X0042675
X0042775Y0048925
X0045175
X0044815Y0067775
X0042275
X0047355
X0049895
X0052435
X0054975
X0057515
X0060055
X0062595
X0065135
X0067675
X0070215
X0074425Y00681
Y006556
Y006302
Y006048
Y005794
Y00554
Y005286
Y005032
Y004778
Y004524
Y00427
Y004016
X0035025Y005925
X0032325
T04
X0032575Y0044425
X0032639Y0064643
T05
X0030035Y0041885
Y0046965
X0035115
Y0041885
X0035179Y0062103
Y0067183
X0030099
Y0062103
M30
