%FSLAX43Y43*%
%MOMM*%
G71*
G01*
G75*
G04 Layer_Physical_Order=2*
G04 Layer_Color=32768*
%ADD10R,1.000X1.100*%
%ADD11R,1.100X1.000*%
%ADD12R,1.700X1.100*%
%ADD13R,1.150X0.450*%
%ADD14R,1.500X1.500*%
%ADD15R,2.541X1.500*%
%ADD16R,0.350X1.200*%
%ADD17R,0.700X1.500*%
%ADD18O,0.700X1.500*%
%ADD19O,0.300X1.800*%
%ADD20O,1.800X0.300*%
%ADD21R,1.500X0.600*%
%ADD22O,1.500X0.600*%
%ADD23C,0.254*%
%ADD24C,1.000*%
%ADD25C,0.500*%
%ADD26C,0.762*%
%ADD27C,1.500*%
%ADD28C,2.032*%
%ADD29C,2.286*%
%ADD30R,1.500X1.500*%
%ADD31C,0.254*%
%ADD32C,1.016*%
%ADD33C,1.524*%
%ADD34C,1.916*%
G04:AMPARAMS|DCode=35|XSize=2.424mm|YSize=2.424mm|CornerRadius=0mm|HoleSize=0mm|Usage=FLASHONLY|Rotation=0.000|XOffset=0mm|YOffset=0mm|HoleType=Round|Shape=Relief|Width=0.254mm|Gap=0.254mm|Entries=4|*
%AMTHD35*
7,0,0,2.424,1.916,0.254,45*
%
%ADD35THD35*%
%ADD36C,2.516*%
%ADD37C,2.718*%
G04:AMPARAMS|DCode=38|XSize=2.032mm|YSize=2.032mm|CornerRadius=0mm|HoleSize=0mm|Usage=FLASHONLY|Rotation=0.000|XOffset=0mm|YOffset=0mm|HoleType=Round|Shape=Relief|Width=0.254mm|Gap=0.254mm|Entries=4|*
%AMTHD38*
7,0,0,2.032,1.524,0.254,45*
%
%ADD38THD38*%
%ADD39C,1.219*%
D32*
X27625Y70375D02*
Y70425D01*
X77100D01*
X77150Y70375D01*
Y37525D02*
Y70375D01*
X27650Y37525D02*
X77150D01*
X27625Y37500D02*
X27650Y37525D01*
X27625Y37500D02*
Y70375D01*
D33*
X64550Y44500D02*
D03*
X59825Y50075D02*
D03*
X36703Y60594D02*
D03*
X68453Y55753D02*
D03*
X72350Y51300D02*
D03*
X53594Y53467D02*
D03*
X70231Y57658D02*
D03*
X38608Y46101D02*
D03*
X64516Y56515D02*
D03*
Y57531D02*
D03*
X68326D02*
D03*
X58547Y59563D02*
D03*
X58625Y50100D02*
D03*
X53848Y51943D02*
D03*
X39725Y58025D02*
D03*
X59075Y63425D02*
D03*
D34*
X67510Y42190D02*
D03*
Y39650D02*
D03*
X64970Y42190D02*
D03*
X62430Y39650D02*
D03*
X59890Y42190D02*
D03*
Y39650D02*
D03*
X57350Y42190D02*
D03*
Y39650D02*
D03*
X32325Y59250D02*
D03*
X45225Y43200D02*
D03*
X49325Y40600D02*
D03*
X51865D02*
D03*
X35025Y59250D02*
D03*
X42275Y67775D02*
D03*
X44815D02*
D03*
X47355D02*
D03*
X49895D02*
D03*
X52435D02*
D03*
X54975D02*
D03*
X57515D02*
D03*
X60055D02*
D03*
X62595D02*
D03*
X65135D02*
D03*
X67675D02*
D03*
X70215D02*
D03*
X74425Y68100D02*
D03*
Y65560D02*
D03*
Y63020D02*
D03*
Y60480D02*
D03*
Y57940D02*
D03*
Y55400D02*
D03*
Y52860D02*
D03*
Y50320D02*
D03*
Y47780D02*
D03*
Y45240D02*
D03*
Y42700D02*
D03*
Y40160D02*
D03*
X42675Y43200D02*
D03*
D35*
X64970Y39650D02*
D03*
X62430Y42190D02*
D03*
X45175Y48925D02*
D03*
X42775D02*
D03*
D36*
X32575Y44425D02*
D03*
X32639Y64643D02*
D03*
D37*
X30035Y46965D02*
D03*
X35115D02*
D03*
Y41885D02*
D03*
X30035D02*
D03*
X30099Y67183D02*
D03*
X35179D02*
D03*
Y62103D02*
D03*
X30099D02*
D03*
D38*
X68050Y45050D02*
D03*
X62738Y56769D02*
D03*
X64389Y50546D02*
D03*
X64516Y59436D02*
D03*
X39243Y47117D02*
D03*
X39475Y51525D02*
D03*
X46800Y62550D02*
D03*
X44831Y58039D02*
D03*
X59563Y59563D02*
D03*
X63725Y49050D02*
D03*
X59555Y44790D02*
D03*
X51943Y61595D02*
D03*
X53760Y48475D02*
D03*
X37875Y58050D02*
D03*
X33325Y52600D02*
D03*
D39*
X71400Y44100D02*
D03*
X72450Y42000D02*
D03*
X71400Y39900D02*
D03*
X69300Y44100D02*
D03*
X70350Y42000D02*
D03*
X67200Y60900D02*
D03*
Y44100D02*
D03*
X65100Y52500D02*
D03*
X64050Y54600D02*
D03*
X63000Y52500D02*
D03*
Y44100D02*
D03*
X61950Y63000D02*
D03*
X60900Y56700D02*
D03*
Y52500D02*
D03*
X61950Y50400D02*
D03*
X59850Y54600D02*
D03*
X58800Y52500D02*
D03*
X57750Y50400D02*
D03*
X56700Y44100D02*
D03*
X54600Y56700D02*
D03*
X55650Y50400D02*
D03*
X54600Y44100D02*
D03*
X55650Y42000D02*
D03*
X54600Y39900D02*
D03*
X53550Y67200D02*
D03*
Y58800D02*
D03*
Y54600D02*
D03*
Y50400D02*
D03*
X52500Y44100D02*
D03*
X53550Y42000D02*
D03*
X51450D02*
D03*
X46200Y65100D02*
D03*
Y60900D02*
D03*
Y44100D02*
D03*
X45150Y63000D02*
D03*
Y54600D02*
D03*
X42000Y65100D02*
D03*
X43050Y63000D02*
D03*
Y42000D02*
D03*
X39900Y56700D02*
D03*
X40950Y54600D02*
D03*
X39900Y48300D02*
D03*
X37800Y52500D02*
D03*
Y48300D02*
D03*
X38850Y42000D02*
D03*
X35700Y56700D02*
D03*
Y52500D02*
D03*
X36750Y50400D02*
D03*
Y46200D02*
D03*
X35700Y39900D02*
D03*
X33600Y60900D02*
D03*
X34650Y54600D02*
D03*
Y50400D02*
D03*
X33600Y48300D02*
D03*
Y39900D02*
D03*
X32550Y67200D02*
D03*
Y63000D02*
D03*
X31500Y52500D02*
D03*
Y48300D02*
D03*
X32550Y46200D02*
D03*
Y42000D02*
D03*
X31500Y39900D02*
D03*
X29400Y65100D02*
D03*
X30450Y58800D02*
D03*
X29400Y56700D02*
D03*
X30450Y54600D02*
D03*
X29400Y52500D02*
D03*
Y44100D02*
D03*
Y39900D02*
D03*
M02*
