%FSLAX43Y43*%
%MOMM*%
G71*
G01*
G75*
G04 Layer_Color=8421504*
%ADD10R,1.000X1.100*%
%ADD11R,1.100X1.000*%
%ADD12R,1.700X1.100*%
%ADD13R,1.150X0.450*%
%ADD14R,1.500X1.500*%
%ADD15R,2.541X1.500*%
%ADD16R,0.350X1.200*%
%ADD17R,0.700X1.500*%
%ADD18O,0.700X1.500*%
%ADD19O,0.300X1.800*%
%ADD20O,1.800X0.300*%
%ADD21R,1.500X0.600*%
%ADD22O,1.500X0.600*%
%ADD23C,0.254*%
%ADD24C,1.000*%
%ADD25C,0.500*%
%ADD26C,0.762*%
%ADD27C,1.500*%
%ADD28C,2.032*%
%ADD29C,2.286*%
%ADD30R,1.500X1.500*%
%ADD31C,0.254*%
%ADD32C,1.016*%
%ADD33C,1.524*%
%ADD34C,1.916*%
G04:AMPARAMS|DCode=35|XSize=2.424mm|YSize=2.424mm|CornerRadius=0mm|HoleSize=0mm|Usage=FLASHONLY|Rotation=0.000|XOffset=0mm|YOffset=0mm|HoleType=Round|Shape=Relief|Width=0.254mm|Gap=0.254mm|Entries=4|*
%AMTHD35*
7,0,0,2.424,1.916,0.254,45*
%
%ADD35THD35*%
%ADD36C,2.516*%
%ADD37C,2.718*%
G04:AMPARAMS|DCode=38|XSize=2.032mm|YSize=2.032mm|CornerRadius=0mm|HoleSize=0mm|Usage=FLASHONLY|Rotation=0.000|XOffset=0mm|YOffset=0mm|HoleType=Round|Shape=Relief|Width=0.254mm|Gap=0.254mm|Entries=4|*
%AMTHD38*
7,0,0,2.032,1.524,0.254,45*
%
%ADD38THD38*%
%ADD39C,1.219*%
%ADD40C,0.200*%
%ADD41C,0.250*%
%ADD42C,0.600*%
%ADD43C,0.102*%
%ADD44C,0.100*%
D10*
X44831Y60960D02*
D03*
Y59260D02*
D03*
X42672Y60960D02*
D03*
Y59260D02*
D03*
X71120Y52197D02*
D03*
Y50497D02*
D03*
X69342Y52197D02*
D03*
Y50497D02*
D03*
X71374Y61214D02*
D03*
Y59514D02*
D03*
X69342Y61214D02*
D03*
Y59514D02*
D03*
X71374Y54737D02*
D03*
Y56437D02*
D03*
X69469Y54737D02*
D03*
Y56437D02*
D03*
X49022Y55753D02*
D03*
Y54053D02*
D03*
X46990Y55753D02*
D03*
Y54053D02*
D03*
X71120Y46736D02*
D03*
Y48436D02*
D03*
X69342Y46736D02*
D03*
Y48436D02*
D03*
X40513Y62992D02*
D03*
Y64692D02*
D03*
X38227Y62992D02*
D03*
Y64692D02*
D03*
X49022Y49784D02*
D03*
Y51484D02*
D03*
X46990Y49784D02*
D03*
Y51484D02*
D03*
D11*
X48475Y43025D02*
D03*
X50175D02*
D03*
X48475Y44925D02*
D03*
X50175D02*
D03*
X49025Y60425D02*
D03*
X47325D02*
D03*
Y58450D02*
D03*
X49025D02*
D03*
X43815Y57023D02*
D03*
X42115D02*
D03*
X43815Y55118D02*
D03*
X42115D02*
D03*
D12*
X42164Y51054D02*
D03*
X44464D02*
D03*
X42164Y52954D02*
D03*
X44464D02*
D03*
D13*
X40572Y60594D02*
D03*
Y59944D02*
D03*
Y59294D02*
D03*
X38422D02*
D03*
Y59944D02*
D03*
Y60594D02*
D03*
D14*
X33325Y50850D02*
D03*
X31025D02*
D03*
D15*
X32175Y56350D02*
D03*
D16*
X37325Y40400D02*
D03*
X37975D02*
D03*
X38625D02*
D03*
X39275D02*
D03*
X37325Y44400D02*
D03*
X37975D02*
D03*
X38625D02*
D03*
X39275D02*
D03*
D17*
X38825Y56075D02*
D03*
D18*
X37875D02*
D03*
X36925D02*
D03*
X38825Y53675D02*
D03*
X36925D02*
D03*
D19*
X53055Y61525D02*
D03*
X53555D02*
D03*
X54055D02*
D03*
X54555D02*
D03*
X55055D02*
D03*
X55555D02*
D03*
X56055D02*
D03*
X56555D02*
D03*
X57055D02*
D03*
X57555D02*
D03*
X58055D02*
D03*
X58555D02*
D03*
X59055D02*
D03*
X59555D02*
D03*
X60055D02*
D03*
X60555D02*
D03*
X61055D02*
D03*
X61555D02*
D03*
X62055D02*
D03*
X62555D02*
D03*
X63055D02*
D03*
X63555D02*
D03*
X64055D02*
D03*
X64555D02*
D03*
X65055D02*
D03*
Y46425D02*
D03*
X64555D02*
D03*
X64055D02*
D03*
X63555D02*
D03*
X63055D02*
D03*
X62555D02*
D03*
X62055D02*
D03*
X61555D02*
D03*
X61055D02*
D03*
X60555D02*
D03*
X60055D02*
D03*
X59555D02*
D03*
X59055D02*
D03*
X58555D02*
D03*
X58055D02*
D03*
X57555D02*
D03*
X57055D02*
D03*
X56555D02*
D03*
X56055D02*
D03*
X55555D02*
D03*
X55055D02*
D03*
X54555D02*
D03*
X54055D02*
D03*
X53555D02*
D03*
X53055D02*
D03*
D20*
X66605Y59975D02*
D03*
Y59475D02*
D03*
Y58975D02*
D03*
Y58475D02*
D03*
Y57975D02*
D03*
Y57475D02*
D03*
Y56975D02*
D03*
Y56475D02*
D03*
Y55975D02*
D03*
Y55475D02*
D03*
Y54975D02*
D03*
Y54475D02*
D03*
Y53975D02*
D03*
Y53475D02*
D03*
Y52975D02*
D03*
Y52475D02*
D03*
Y51975D02*
D03*
Y51475D02*
D03*
Y50975D02*
D03*
Y50475D02*
D03*
Y49975D02*
D03*
Y49475D02*
D03*
Y48975D02*
D03*
Y48475D02*
D03*
Y47975D02*
D03*
X51505D02*
D03*
Y48475D02*
D03*
Y48975D02*
D03*
Y49475D02*
D03*
Y49975D02*
D03*
Y50475D02*
D03*
Y50975D02*
D03*
Y51475D02*
D03*
Y51975D02*
D03*
Y52475D02*
D03*
Y52975D02*
D03*
Y53475D02*
D03*
Y53975D02*
D03*
Y54475D02*
D03*
Y54975D02*
D03*
Y55475D02*
D03*
Y55975D02*
D03*
Y56475D02*
D03*
Y56975D02*
D03*
Y57475D02*
D03*
Y57975D02*
D03*
Y58475D02*
D03*
Y58975D02*
D03*
Y59475D02*
D03*
Y59975D02*
D03*
D21*
X42825Y47050D02*
D03*
X42850Y41200D02*
D03*
D22*
X42825Y46100D02*
D03*
Y45150D02*
D03*
X45225Y47050D02*
D03*
Y45150D02*
D03*
X42850Y40250D02*
D03*
Y39300D02*
D03*
X45250Y41200D02*
D03*
Y39300D02*
D03*
M02*
