%FSLAX43Y43*%
%MOMM*%
G71*
G01*
G75*
G04 Layer_Color=8388736*
%ADD10R,1.000X1.100*%
%ADD11R,1.100X1.000*%
%ADD12R,1.700X1.100*%
%ADD13R,1.150X0.450*%
%ADD14R,1.500X1.500*%
%ADD15R,2.541X1.500*%
%ADD16R,0.350X1.200*%
%ADD17R,0.700X1.500*%
%ADD18O,0.700X1.500*%
%ADD19O,0.300X1.800*%
%ADD20O,1.800X0.300*%
%ADD21R,1.500X0.600*%
%ADD22O,1.500X0.600*%
%ADD23C,0.254*%
%ADD24C,1.000*%
%ADD25C,0.500*%
%ADD26C,0.762*%
%ADD27C,1.500*%
%ADD28C,2.032*%
%ADD29C,2.286*%
%ADD30R,1.500X1.500*%
%ADD31C,0.254*%
%ADD32C,1.016*%
%ADD33C,1.524*%
%ADD34C,1.916*%
G04:AMPARAMS|DCode=35|XSize=2.424mm|YSize=2.424mm|CornerRadius=0mm|HoleSize=0mm|Usage=FLASHONLY|Rotation=0.000|XOffset=0mm|YOffset=0mm|HoleType=Round|Shape=Relief|Width=0.254mm|Gap=0.254mm|Entries=4|*
%AMTHD35*
7,0,0,2.424,1.916,0.254,45*
%
%ADD35THD35*%
%ADD36C,2.516*%
%ADD37C,2.718*%
G04:AMPARAMS|DCode=38|XSize=2.032mm|YSize=2.032mm|CornerRadius=0mm|HoleSize=0mm|Usage=FLASHONLY|Rotation=0.000|XOffset=0mm|YOffset=0mm|HoleType=Round|Shape=Relief|Width=0.254mm|Gap=0.254mm|Entries=4|*
%AMTHD38*
7,0,0,2.032,1.524,0.254,45*
%
%ADD38THD38*%
%ADD39C,1.219*%
%ADD40C,0.200*%
%ADD41C,0.250*%
%ADD42C,0.600*%
%ADD43C,0.102*%
%ADD44C,0.100*%
%ADD45R,1.305X1.405*%
%ADD46R,1.405X1.305*%
%ADD47R,2.005X1.405*%
%ADD48R,1.455X0.755*%
%ADD49R,1.805X1.805*%
%ADD50R,2.846X1.805*%
%ADD51R,0.655X1.505*%
%ADD52R,1.005X1.805*%
%ADD53O,1.005X1.805*%
%ADD54O,0.605X2.105*%
%ADD55O,2.105X0.605*%
%ADD56R,1.805X0.905*%
%ADD57O,1.805X0.905*%
%ADD58C,1.067*%
%ADD59C,1.805*%
%ADD60C,2.337*%
%ADD61C,2.591*%
%ADD62R,1.805X1.805*%
%ADD63C,0.559*%
D45*
X44831Y60960D02*
D03*
Y59260D02*
D03*
X42672Y60960D02*
D03*
Y59260D02*
D03*
X71120Y52197D02*
D03*
Y50497D02*
D03*
X69342Y52197D02*
D03*
Y50497D02*
D03*
X71374Y61214D02*
D03*
Y59514D02*
D03*
X69342Y61214D02*
D03*
Y59514D02*
D03*
X71374Y54737D02*
D03*
Y56437D02*
D03*
X69469Y54737D02*
D03*
Y56437D02*
D03*
X49022Y55753D02*
D03*
Y54053D02*
D03*
X46990Y55753D02*
D03*
Y54053D02*
D03*
X71120Y46736D02*
D03*
Y48436D02*
D03*
X69342Y46736D02*
D03*
Y48436D02*
D03*
X40513Y62992D02*
D03*
Y64692D02*
D03*
X38227Y62992D02*
D03*
Y64692D02*
D03*
X49022Y49784D02*
D03*
Y51484D02*
D03*
X46990Y49784D02*
D03*
Y51484D02*
D03*
D46*
X48475Y43025D02*
D03*
X50175D02*
D03*
X48475Y44925D02*
D03*
X50175D02*
D03*
X49025Y60425D02*
D03*
X47325D02*
D03*
Y58450D02*
D03*
X49025D02*
D03*
X43815Y57023D02*
D03*
X42115D02*
D03*
X43815Y55118D02*
D03*
X42115D02*
D03*
D47*
X42164Y51054D02*
D03*
X44464D02*
D03*
X42164Y52954D02*
D03*
X44464D02*
D03*
D48*
X40572Y60594D02*
D03*
Y59944D02*
D03*
Y59294D02*
D03*
X38422D02*
D03*
Y59944D02*
D03*
Y60594D02*
D03*
D49*
X33325Y50850D02*
D03*
X31025D02*
D03*
X57350Y39650D02*
D03*
X49325Y40600D02*
D03*
X42275Y67775D02*
D03*
D50*
X32175Y56350D02*
D03*
D51*
X37325Y40400D02*
D03*
X37975D02*
D03*
X38625D02*
D03*
X39275D02*
D03*
X37325Y44400D02*
D03*
X37975D02*
D03*
X38625D02*
D03*
X39275D02*
D03*
D52*
X38825Y56075D02*
D03*
D53*
X37875D02*
D03*
X36925D02*
D03*
X38825Y53675D02*
D03*
X36925D02*
D03*
D54*
X53055Y61525D02*
D03*
X53555D02*
D03*
X54055D02*
D03*
X54555D02*
D03*
X55055D02*
D03*
X55555D02*
D03*
X56055D02*
D03*
X56555D02*
D03*
X57055D02*
D03*
X57555D02*
D03*
X58055D02*
D03*
X58555D02*
D03*
X59055D02*
D03*
X59555D02*
D03*
X60055D02*
D03*
X60555D02*
D03*
X61055D02*
D03*
X61555D02*
D03*
X62055D02*
D03*
X62555D02*
D03*
X63055D02*
D03*
X63555D02*
D03*
X64055D02*
D03*
X64555D02*
D03*
X65055D02*
D03*
Y46425D02*
D03*
X64555D02*
D03*
X64055D02*
D03*
X63555D02*
D03*
X63055D02*
D03*
X62555D02*
D03*
X62055D02*
D03*
X61555D02*
D03*
X61055D02*
D03*
X60555D02*
D03*
X60055D02*
D03*
X59555D02*
D03*
X59055D02*
D03*
X58555D02*
D03*
X58055D02*
D03*
X57555D02*
D03*
X57055D02*
D03*
X56555D02*
D03*
X56055D02*
D03*
X55555D02*
D03*
X55055D02*
D03*
X54555D02*
D03*
X54055D02*
D03*
X53555D02*
D03*
X53055D02*
D03*
D55*
X66605Y59975D02*
D03*
Y59475D02*
D03*
Y58975D02*
D03*
Y58475D02*
D03*
Y57975D02*
D03*
Y57475D02*
D03*
Y56975D02*
D03*
Y56475D02*
D03*
Y55975D02*
D03*
Y55475D02*
D03*
Y54975D02*
D03*
Y54475D02*
D03*
Y53975D02*
D03*
Y53475D02*
D03*
Y52975D02*
D03*
Y52475D02*
D03*
Y51975D02*
D03*
Y51475D02*
D03*
Y50975D02*
D03*
Y50475D02*
D03*
Y49975D02*
D03*
Y49475D02*
D03*
Y48975D02*
D03*
Y48475D02*
D03*
Y47975D02*
D03*
X51505D02*
D03*
Y48475D02*
D03*
Y48975D02*
D03*
Y49475D02*
D03*
Y49975D02*
D03*
Y50475D02*
D03*
Y50975D02*
D03*
Y51475D02*
D03*
Y51975D02*
D03*
Y52475D02*
D03*
Y52975D02*
D03*
Y53475D02*
D03*
Y53975D02*
D03*
Y54475D02*
D03*
Y54975D02*
D03*
Y55475D02*
D03*
Y55975D02*
D03*
Y56475D02*
D03*
Y56975D02*
D03*
Y57475D02*
D03*
Y57975D02*
D03*
Y58475D02*
D03*
Y58975D02*
D03*
Y59475D02*
D03*
Y59975D02*
D03*
D56*
X42825Y47050D02*
D03*
X42850Y41200D02*
D03*
D57*
X42825Y46100D02*
D03*
Y45150D02*
D03*
X45225Y47050D02*
D03*
Y45150D02*
D03*
X42850Y40250D02*
D03*
Y39300D02*
D03*
X45250Y41200D02*
D03*
Y39300D02*
D03*
D58*
X64550Y44500D02*
D03*
X59825Y50075D02*
D03*
X68050Y45050D02*
D03*
X62738Y56769D02*
D03*
X36703Y60594D02*
D03*
X68453Y55753D02*
D03*
X72350Y51300D02*
D03*
X53594Y53467D02*
D03*
X64389Y50546D02*
D03*
X70231Y57658D02*
D03*
X64516Y59436D02*
D03*
X39243Y47117D02*
D03*
X39475Y51525D02*
D03*
X46800Y62550D02*
D03*
X44831Y58039D02*
D03*
X38608Y46101D02*
D03*
X64516Y56515D02*
D03*
Y57531D02*
D03*
X68326D02*
D03*
X59563Y59563D02*
D03*
X58547D02*
D03*
X63725Y49050D02*
D03*
X59555Y44790D02*
D03*
X58625Y50100D02*
D03*
X51943Y61595D02*
D03*
X53760Y48475D02*
D03*
X53848Y51943D02*
D03*
X37875Y58050D02*
D03*
X33325Y52600D02*
D03*
X39725Y58025D02*
D03*
X59075Y63425D02*
D03*
D59*
X67510Y42190D02*
D03*
Y39650D02*
D03*
X64970Y42190D02*
D03*
Y39650D02*
D03*
X62430Y42190D02*
D03*
Y39650D02*
D03*
X59890Y42190D02*
D03*
Y39650D02*
D03*
X57350Y42190D02*
D03*
X32325Y59250D02*
D03*
X45225Y43200D02*
D03*
X45175Y48925D02*
D03*
X51865Y40600D02*
D03*
X35025Y59250D02*
D03*
X44815Y67775D02*
D03*
X47355D02*
D03*
X49895D02*
D03*
X52435D02*
D03*
X54975D02*
D03*
X57515D02*
D03*
X60055D02*
D03*
X62595D02*
D03*
X65135D02*
D03*
X67675D02*
D03*
X70215D02*
D03*
X74425Y65560D02*
D03*
Y63020D02*
D03*
Y60480D02*
D03*
Y57940D02*
D03*
Y55400D02*
D03*
Y52860D02*
D03*
Y50320D02*
D03*
Y47780D02*
D03*
Y45240D02*
D03*
Y42700D02*
D03*
Y40160D02*
D03*
X42775Y48925D02*
D03*
X42675Y43200D02*
D03*
D60*
X32575Y44425D02*
D03*
X32639Y64643D02*
D03*
D61*
X30035Y46965D02*
D03*
X35115D02*
D03*
Y41885D02*
D03*
X30035D02*
D03*
X30099Y67183D02*
D03*
X35179D02*
D03*
Y62103D02*
D03*
X30099D02*
D03*
D62*
X74425Y68100D02*
D03*
D63*
X71400Y44100D02*
D03*
X72450Y42000D02*
D03*
X71400Y39900D02*
D03*
X69300Y44100D02*
D03*
X70350Y42000D02*
D03*
X67200Y60900D02*
D03*
Y44100D02*
D03*
X65100Y52500D02*
D03*
X64050Y54600D02*
D03*
X63000Y52500D02*
D03*
Y44100D02*
D03*
X61950Y63000D02*
D03*
X60900Y56700D02*
D03*
Y52500D02*
D03*
X61950Y50400D02*
D03*
X59850Y54600D02*
D03*
X58800Y52500D02*
D03*
X57750Y50400D02*
D03*
X56700Y44100D02*
D03*
X54600Y56700D02*
D03*
X55650Y50400D02*
D03*
X54600Y44100D02*
D03*
X55650Y42000D02*
D03*
X54600Y39900D02*
D03*
X53550Y67200D02*
D03*
Y58800D02*
D03*
Y54600D02*
D03*
Y50400D02*
D03*
X52500Y44100D02*
D03*
X53550Y42000D02*
D03*
X51450D02*
D03*
X46200Y65100D02*
D03*
Y60900D02*
D03*
Y44100D02*
D03*
X45150Y63000D02*
D03*
Y54600D02*
D03*
X42000Y65100D02*
D03*
X43050Y63000D02*
D03*
Y42000D02*
D03*
X39900Y56700D02*
D03*
X40950Y54600D02*
D03*
X39900Y48300D02*
D03*
X37800Y52500D02*
D03*
Y48300D02*
D03*
X38850Y42000D02*
D03*
X35700Y56700D02*
D03*
Y52500D02*
D03*
X36750Y50400D02*
D03*
Y46200D02*
D03*
X35700Y39900D02*
D03*
X33600Y60900D02*
D03*
X34650Y54600D02*
D03*
Y50400D02*
D03*
X33600Y48300D02*
D03*
Y39900D02*
D03*
X32550Y67200D02*
D03*
Y63000D02*
D03*
X31500Y52500D02*
D03*
Y48300D02*
D03*
X32550Y46200D02*
D03*
Y42000D02*
D03*
X31500Y39900D02*
D03*
X29400Y65100D02*
D03*
X30450Y58800D02*
D03*
X29400Y56700D02*
D03*
X30450Y54600D02*
D03*
X29400Y52500D02*
D03*
Y44100D02*
D03*
Y39900D02*
D03*
M02*
