%FSLAX43Y43*%
%MOMM*%
G71*
G01*
G75*
G04 Layer_Physical_Order=4*
G04 Layer_Color=16711680*
%ADD10R,1.000X1.100*%
%ADD11R,1.100X1.000*%
%ADD12R,1.700X1.100*%
%ADD13R,1.150X0.450*%
%ADD14R,1.500X1.500*%
%ADD15R,2.541X1.500*%
%ADD16R,0.350X1.200*%
%ADD17R,0.700X1.500*%
%ADD18O,0.700X1.500*%
%ADD19O,0.300X1.800*%
%ADD20O,1.800X0.300*%
%ADD21R,1.500X0.600*%
%ADD22O,1.500X0.600*%
%ADD23C,0.254*%
%ADD24C,1.000*%
%ADD25C,0.500*%
%ADD26C,0.762*%
%ADD27C,1.500*%
%ADD28C,2.032*%
%ADD29C,2.286*%
%ADD30R,1.500X1.500*%
%ADD31C,0.254*%
%ADD32C,1.016*%
%ADD33C,1.524*%
%ADD34C,1.916*%
G04:AMPARAMS|DCode=35|XSize=2.424mm|YSize=2.424mm|CornerRadius=0mm|HoleSize=0mm|Usage=FLASHONLY|Rotation=0.000|XOffset=0mm|YOffset=0mm|HoleType=Round|Shape=Relief|Width=0.254mm|Gap=0.254mm|Entries=4|*
%AMTHD35*
7,0,0,2.424,1.916,0.254,45*
%
%ADD35THD35*%
%ADD36C,2.516*%
%ADD37C,2.718*%
G04:AMPARAMS|DCode=38|XSize=2.032mm|YSize=2.032mm|CornerRadius=0mm|HoleSize=0mm|Usage=FLASHONLY|Rotation=0.000|XOffset=0mm|YOffset=0mm|HoleType=Round|Shape=Relief|Width=0.254mm|Gap=0.254mm|Entries=4|*
%AMTHD38*
7,0,0,2.032,1.524,0.254,45*
%
%ADD38THD38*%
%ADD39C,1.219*%
G36*
X76575Y38050D02*
X76575Y38050D01*
X76575Y38050D01*
X76554Y38000D01*
X28100D01*
Y69890D01*
X28125Y69900D01*
Y69900D01*
X28125Y69900D01*
X76575D01*
Y38050D01*
D02*
G37*
%LPC*%
G36*
X67606Y46982D02*
X66929D01*
Y46355D01*
X67606D01*
Y46982D01*
D02*
G37*
G36*
X62907D02*
X62230D01*
Y46355D01*
X62907D01*
Y46982D01*
D02*
G37*
G36*
X56769Y46863D02*
X56092D01*
Y46236D01*
X56769D01*
Y46863D01*
D02*
G37*
G36*
X29908Y48424D02*
X28966Y48034D01*
X28576Y47092D01*
X29908D01*
Y48424D01*
D02*
G37*
G36*
X35242D02*
Y47092D01*
X36575D01*
X36184Y48034D01*
X35242Y48424D01*
D02*
G37*
G36*
X34988D02*
X34046Y48034D01*
X33655Y47092D01*
X34988D01*
Y48424D01*
D02*
G37*
G36*
X30162D02*
Y47092D01*
X31494D01*
X31104Y48034D01*
X30162Y48424D01*
D02*
G37*
G36*
X51935Y46609D02*
X51308D01*
Y45932D01*
X51935D01*
Y46609D01*
D02*
G37*
G36*
X34988Y46838D02*
X33655D01*
X34046Y45896D01*
X34988Y45506D01*
Y46838D01*
D02*
G37*
G36*
X31494D02*
X30162D01*
Y45506D01*
X31104Y45896D01*
X31494Y46838D01*
D02*
G37*
G36*
X29908D02*
X28576D01*
X28966Y45896D01*
X29908Y45506D01*
Y46838D01*
D02*
G37*
G36*
X36575D02*
X35242D01*
Y45506D01*
X36184Y45896D01*
X36575Y46838D01*
D02*
G37*
G36*
X51054Y46609D02*
X50427D01*
Y45932D01*
X51054D01*
Y46609D01*
D02*
G37*
G36*
X49903D02*
X49276D01*
Y45932D01*
X49903D01*
Y46609D01*
D02*
G37*
G36*
X49022D02*
X48395D01*
Y45932D01*
X49022D01*
Y46609D01*
D02*
G37*
G36*
X63725Y49600D02*
X63336Y49439D01*
X63175Y49050D01*
X63336Y48661D01*
X63725Y48500D01*
X64069Y48643D01*
X64423Y48288D01*
Y47373D01*
X64827D01*
Y46855D01*
X64425D01*
Y45601D01*
X65779D01*
Y45601D01*
X65871D01*
X65998Y45474D01*
Y45474D01*
X66675D01*
Y46228D01*
Y46982D01*
X65998D01*
Y46855D01*
X65779D01*
Y46855D01*
X65377D01*
Y47373D01*
X65777D01*
Y47373D01*
X65869D01*
X65996Y47246D01*
Y47246D01*
X66673D01*
Y48000D01*
Y48754D01*
X65996D01*
Y48627D01*
X65777D01*
Y48627D01*
X64862D01*
X64244Y49244D01*
X64184Y49269D01*
X64114Y49439D01*
X63725Y49600D01*
D02*
G37*
G36*
X64389Y51096D02*
X64000Y50935D01*
X63839Y50546D01*
X64000Y50157D01*
X64389Y49996D01*
X64778Y50157D01*
X64939Y50546D01*
X64778Y50935D01*
X64389Y51096D01*
D02*
G37*
G36*
X60460Y49948D02*
X59952D01*
Y49440D01*
X60311Y49589D01*
X60460Y49948D01*
D02*
G37*
G36*
X56769Y49395D02*
X56092D01*
Y48768D01*
X56769D01*
Y49395D01*
D02*
G37*
G36*
X59952Y50710D02*
Y50202D01*
X60460D01*
X60311Y50561D01*
X59952Y50710D01*
D02*
G37*
G36*
X33325Y53150D02*
X32936Y52989D01*
X32775Y52600D01*
X32936Y52211D01*
X33325Y52050D01*
X33714Y52211D01*
X33875Y52600D01*
X33714Y52989D01*
X33325Y53150D01*
D02*
G37*
G36*
X72223Y51935D02*
X71864Y51786D01*
X71715Y51427D01*
X72223D01*
Y51935D01*
D02*
G37*
G36*
X59698Y50710D02*
X59339Y50561D01*
X59288Y50439D01*
X59034Y50439D01*
X59014Y50489D01*
X58625Y50650D01*
X58236Y50489D01*
X58075Y50100D01*
X58236Y49711D01*
X58350Y49664D01*
Y49268D01*
X57919D01*
Y49268D01*
X57827D01*
X57700Y49395D01*
Y49395D01*
X57023D01*
Y48641D01*
X56896D01*
Y48514D01*
X56092D01*
Y47924D01*
X56092D01*
X56092Y47924D01*
X56092Y47887D01*
Y47815D01*
Y47744D01*
X56092Y47707D01*
X56092Y47707D01*
X56092D01*
Y47117D01*
X56896D01*
Y46990D01*
X57023D01*
Y46236D01*
X57700D01*
Y46363D01*
X57919D01*
Y46363D01*
X59273D01*
Y47617D01*
X58871D01*
Y48014D01*
X59273D01*
Y49268D01*
X58900D01*
Y49556D01*
X59080Y49736D01*
X59278Y49736D01*
X59339Y49589D01*
X59698Y49440D01*
Y50075D01*
Y50710D01*
D02*
G37*
G36*
X51808Y49113D02*
X50554D01*
Y48750D01*
X49776D01*
Y49113D01*
X48522D01*
Y47759D01*
X48522D01*
Y47667D01*
X48395Y47540D01*
X48395D01*
Y46863D01*
X49903D01*
Y47540D01*
X49776D01*
Y47759D01*
X49776D01*
Y48200D01*
X50554D01*
Y47759D01*
X50554D01*
Y47667D01*
X50427Y47540D01*
X50427D01*
Y46863D01*
X51935D01*
Y47540D01*
X51808D01*
Y47759D01*
X51808D01*
Y48200D01*
X53324D01*
X53371Y48086D01*
X53760Y47925D01*
X54149Y48086D01*
X54310Y48475D01*
X54149Y48864D01*
X53760Y49025D01*
X53371Y48864D01*
X53324Y48750D01*
X51808D01*
Y49113D01*
D02*
G37*
G36*
X62904Y47998D02*
X62227D01*
Y47371D01*
X62904D01*
Y47998D01*
D02*
G37*
G36*
X61973Y48879D02*
X61296D01*
Y48752D01*
X61077D01*
Y48752D01*
X59723D01*
Y47498D01*
X60128D01*
Y46855D01*
X59726D01*
Y45601D01*
X59726Y45601D01*
X59726D01*
X59765Y45507D01*
X59585Y45327D01*
X59555Y45340D01*
X59166Y45179D01*
X59005Y44790D01*
X59166Y44401D01*
X59555Y44240D01*
X59944Y44401D01*
X60105Y44790D01*
X60058Y44904D01*
X60597Y45444D01*
X60597Y45444D01*
X60621Y45501D01*
X60663Y45601D01*
X61080D01*
Y45601D01*
X61172D01*
X61299Y45474D01*
Y45474D01*
X61976D01*
Y46228D01*
Y46982D01*
X61299D01*
Y46855D01*
X61080D01*
Y46855D01*
X60678D01*
Y47498D01*
X61077D01*
Y47498D01*
X61169D01*
X61296Y47371D01*
Y47371D01*
X61973D01*
Y48125D01*
Y48879D01*
D02*
G37*
G36*
X67604Y47873D02*
X66927D01*
Y47246D01*
X67604D01*
Y47873D01*
D02*
G37*
G36*
X42775Y49874D02*
X42104Y49596D01*
X41826Y48925D01*
X42104Y48254D01*
X42775Y47976D01*
X43446Y48254D01*
X43724Y48925D01*
X43446Y49596D01*
X42775Y49874D01*
D02*
G37*
G36*
X62904Y48879D02*
X62227D01*
Y48252D01*
X62904D01*
Y48879D01*
D02*
G37*
G36*
X67604Y48754D02*
X66927D01*
Y48127D01*
X67604D01*
Y48754D01*
D02*
G37*
G36*
X45175Y49874D02*
X44504Y49596D01*
X44226Y48925D01*
X44504Y48254D01*
X45175Y47976D01*
X45846Y48254D01*
X46124Y48925D01*
X45846Y49596D01*
X45175Y49874D01*
D02*
G37*
G36*
X62907Y46101D02*
X62230D01*
Y45474D01*
X62907D01*
Y46101D01*
D02*
G37*
G36*
X36575Y41758D02*
X35242D01*
Y40425D01*
X36184Y40816D01*
X36575Y41758D01*
D02*
G37*
G36*
X34988D02*
X33655D01*
X34046Y40816D01*
X34988Y40425D01*
Y41758D01*
D02*
G37*
G36*
X31494D02*
X30162D01*
Y40425D01*
X31104Y40816D01*
X31494Y41758D01*
D02*
G37*
G36*
X51738Y41634D02*
X51097Y41368D01*
X50831Y40727D01*
X51738D01*
Y41634D01*
D02*
G37*
G36*
X58384Y42063D02*
X57477D01*
Y41156D01*
X58118Y41422D01*
X58384Y42063D01*
D02*
G37*
G36*
X57223D02*
X56316D01*
X56582Y41422D01*
X57223Y41156D01*
Y42063D01*
D02*
G37*
G36*
X51992Y41634D02*
Y40727D01*
X52899D01*
X52633Y41368D01*
X51992Y41634D01*
D02*
G37*
G36*
X29908Y41758D02*
X28576D01*
X28966Y40816D01*
X29908Y40425D01*
Y41758D01*
D02*
G37*
G36*
X67510Y40599D02*
X66839Y40321D01*
X66561Y39650D01*
X66839Y38979D01*
X67510Y38701D01*
X68181Y38979D01*
X68459Y39650D01*
X68181Y40321D01*
X67510Y40599D01*
D02*
G37*
G36*
X64970D02*
X64299Y40321D01*
X64021Y39650D01*
X64299Y38979D01*
X64970Y38701D01*
X65641Y38979D01*
X65919Y39650D01*
X65641Y40321D01*
X64970Y40599D01*
D02*
G37*
G36*
X59890D02*
X59219Y40321D01*
X58941Y39650D01*
X59219Y38979D01*
X59890Y38701D01*
X60561Y38979D01*
X60839Y39650D01*
X60561Y40321D01*
X59890Y40599D01*
D02*
G37*
G36*
X58227Y40527D02*
X56473D01*
Y38773D01*
X58227D01*
Y40527D01*
D02*
G37*
G36*
X52899Y40473D02*
X51992D01*
Y39566D01*
X52633Y39832D01*
X52899Y40473D01*
D02*
G37*
G36*
X51738D02*
X50831D01*
X51097Y39832D01*
X51738Y39566D01*
Y40473D01*
D02*
G37*
G36*
X74425Y41109D02*
X73754Y40831D01*
X73476Y40160D01*
X73754Y39489D01*
X74425Y39211D01*
X75096Y39489D01*
X75374Y40160D01*
X75096Y40831D01*
X74425Y41109D01*
D02*
G37*
G36*
X67383Y42063D02*
X66476D01*
X66742Y41422D01*
X67383Y41156D01*
Y42063D01*
D02*
G37*
G36*
Y43224D02*
X66742Y42958D01*
X66476Y42317D01*
X67383D01*
Y43224D01*
D02*
G37*
G36*
X57477D02*
Y42317D01*
X58384D01*
X58118Y42958D01*
X57477Y43224D01*
D02*
G37*
G36*
X57223D02*
X56582Y42958D01*
X56316Y42317D01*
X57223D01*
Y43224D01*
D02*
G37*
G36*
X67637D02*
Y42317D01*
X68544D01*
X68278Y42958D01*
X67637Y43224D01*
D02*
G37*
G36*
X67606Y46101D02*
X66929D01*
Y45474D01*
X67447D01*
X67475Y45433D01*
D01*
X67588Y45263D01*
X67500Y45050D01*
X67661Y44661D01*
X68050Y44500D01*
X68439Y44661D01*
X68600Y45050D01*
X68439Y45439D01*
X68050Y45600D01*
X67817Y45503D01*
X67655Y45612D01*
Y45612D01*
X67606Y45645D01*
Y46101D01*
D02*
G37*
G36*
X64550Y45050D02*
X64161Y44889D01*
X64000Y44500D01*
X64047Y44386D01*
X63606Y43944D01*
X63525Y43750D01*
X63525Y43750D01*
Y42489D01*
X63276Y42439D01*
X63101Y42861D01*
X62430Y43139D01*
X61759Y42861D01*
X61481Y42190D01*
X61759Y41519D01*
X62430Y41241D01*
X63101Y41519D01*
X63276Y41941D01*
X63525Y41891D01*
Y41134D01*
X62826Y40435D01*
X62430Y40599D01*
X61759Y40321D01*
X61481Y39650D01*
X61759Y38979D01*
X62430Y38701D01*
X63101Y38979D01*
X63379Y39650D01*
X63215Y40046D01*
X63994Y40826D01*
X63994Y40826D01*
X64075Y41020D01*
Y41474D01*
X64299Y41519D01*
X64299D01*
D01*
X64970Y41241D01*
X65641Y41519D01*
X65919Y42190D01*
X65641Y42861D01*
X64970Y43139D01*
X64299Y42861D01*
X64299D01*
X64299D01*
X64075Y42906D01*
Y43636D01*
X64436Y43997D01*
X64550Y43950D01*
X64939Y44111D01*
X65100Y44500D01*
X64939Y44889D01*
X64550Y45050D01*
D02*
G37*
G36*
X32575Y45662D02*
X31700Y45300D01*
X31338Y44425D01*
X31700Y43550D01*
X32575Y43188D01*
X33450Y43550D01*
X33812Y44425D01*
X33450Y45300D01*
X32575Y45662D01*
D02*
G37*
G36*
X45225Y44149D02*
X44554Y43871D01*
X44276Y43200D01*
X44554Y42529D01*
X45225Y42251D01*
X45896Y42529D01*
X46174Y43200D01*
X45896Y43871D01*
X45225Y44149D01*
D02*
G37*
G36*
X29908Y43345D02*
X28966Y42954D01*
X28576Y42012D01*
X29908D01*
Y43345D01*
D02*
G37*
G36*
X59890Y43139D02*
X59219Y42861D01*
X58941Y42190D01*
X59219Y41519D01*
X59890Y41241D01*
X60561Y41519D01*
X60839Y42190D01*
X60561Y42861D01*
X59890Y43139D01*
D02*
G37*
G36*
X68544Y42063D02*
X67637D01*
Y41156D01*
X68278Y41422D01*
X68544Y42063D01*
D02*
G37*
G36*
X30162Y43345D02*
Y42012D01*
X31494D01*
X31104Y42954D01*
X30162Y43345D01*
D02*
G37*
G36*
X42675Y44149D02*
X42004Y43871D01*
X41726Y43200D01*
X42004Y42529D01*
X42675Y42251D01*
X43346Y42529D01*
X43624Y43200D01*
X43346Y43871D01*
X42675Y44149D01*
D02*
G37*
G36*
X35242Y43345D02*
Y42012D01*
X36575D01*
X36184Y42954D01*
X35242Y43345D01*
D02*
G37*
G36*
X34988D02*
X34046Y42954D01*
X33655Y42012D01*
X34988D01*
Y43345D01*
D02*
G37*
G36*
X75302Y68977D02*
X73548D01*
Y67800D01*
X70756Y65008D01*
X57275D01*
X57275Y65008D01*
X57131Y64948D01*
X56986Y64889D01*
X56986Y64889D01*
X50999Y58901D01*
X50764Y58998D01*
Y60063D01*
X50362D01*
Y60968D01*
X50764D01*
Y61320D01*
X51507D01*
X51554Y61206D01*
X51943Y61045D01*
X52332Y61206D01*
X52493Y61595D01*
X52332Y61984D01*
X51943Y62145D01*
X51554Y61984D01*
X51507Y61870D01*
X50764D01*
Y62222D01*
X49410D01*
Y62222D01*
X49318D01*
X49191Y62349D01*
Y62349D01*
X48514D01*
Y61595D01*
Y60841D01*
X49191D01*
Y60968D01*
X49410D01*
Y60968D01*
X49812D01*
Y60063D01*
X49410D01*
Y60063D01*
X49318D01*
X49191Y60190D01*
Y60190D01*
X48514D01*
Y59436D01*
Y58682D01*
X49191D01*
Y58809D01*
X49410D01*
Y58809D01*
X50575D01*
X50672Y58574D01*
X46961Y54864D01*
X46842Y54575D01*
X46842Y54575D01*
Y42675D01*
X46842Y42675D01*
X46961Y42386D01*
X48448Y40900D01*
Y39723D01*
X50202D01*
Y41477D01*
X49025D01*
X47658Y42844D01*
Y54406D01*
X57444Y64192D01*
X58616D01*
X58666Y63943D01*
X58589Y63911D01*
X58440Y63552D01*
X59710D01*
X59561Y63911D01*
X59484Y63943D01*
X59534Y64192D01*
X70925D01*
X70925Y64192D01*
X71214Y64311D01*
X74125Y67223D01*
X75302D01*
Y68977D01*
D02*
G37*
G36*
X75459Y65433D02*
X74552D01*
Y64526D01*
X75193Y64792D01*
X75459Y65433D01*
D02*
G37*
G36*
X74298D02*
X73391D01*
X73657Y64792D01*
X74298Y64526D01*
Y65433D01*
D02*
G37*
G36*
Y66594D02*
X73657Y66328D01*
X73391Y65687D01*
X74298D01*
Y66594D01*
D02*
G37*
G36*
X31559Y67056D02*
X30226D01*
Y65724D01*
X31168Y66114D01*
X31559Y67056D01*
D02*
G37*
G36*
X29972D02*
X28639D01*
X29030Y66114D01*
X29972Y65724D01*
Y67056D01*
D02*
G37*
G36*
X74552Y66594D02*
Y65687D01*
X75459D01*
X75193Y66328D01*
X74552Y66594D01*
D02*
G37*
G36*
X32639Y65880D02*
X31764Y65518D01*
X31402Y64643D01*
X31764Y63768D01*
X32639Y63406D01*
X33514Y63768D01*
X33876Y64643D01*
X33514Y65518D01*
X32639Y65880D01*
D02*
G37*
G36*
X29972Y63562D02*
X29030Y63172D01*
X28639Y62230D01*
X29972D01*
Y63562D01*
D02*
G37*
G36*
X74425Y63969D02*
X73754Y63691D01*
X73476Y63020D01*
X73754Y62349D01*
X74425Y62071D01*
X75096Y62349D01*
X75374Y63020D01*
X75096Y63691D01*
X74425Y63969D01*
D02*
G37*
G36*
X46800Y63100D02*
X46411Y62939D01*
X46250Y62550D01*
X46411Y62161D01*
X46800Y62000D01*
X47189Y62161D01*
X47350Y62550D01*
X47189Y62939D01*
X46800Y63100D01*
D02*
G37*
G36*
X30226Y63562D02*
Y62230D01*
X31559D01*
X31168Y63172D01*
X30226Y63562D01*
D02*
G37*
G36*
X59710Y63298D02*
X59202D01*
Y62790D01*
X59561Y62939D01*
X59710Y63298D01*
D02*
G37*
G36*
X58948D02*
X58440D01*
X58589Y62939D01*
X58948Y62790D01*
Y63298D01*
D02*
G37*
G36*
X35052Y63562D02*
X34110Y63172D01*
X33720Y62230D01*
X35052D01*
Y63562D01*
D02*
G37*
G36*
Y67056D02*
X33720D01*
X34110Y66114D01*
X35052Y65724D01*
Y67056D01*
D02*
G37*
G36*
X29972Y68643D02*
X29030Y68252D01*
X28639Y67310D01*
X29972D01*
Y68643D01*
D02*
G37*
G36*
X70215Y68724D02*
X69544Y68446D01*
X69266Y67775D01*
X69544Y67104D01*
X70215Y66826D01*
X70886Y67104D01*
X71164Y67775D01*
X70886Y68446D01*
X70215Y68724D01*
D02*
G37*
G36*
X67675D02*
X67004Y68446D01*
X66726Y67775D01*
X67004Y67104D01*
X67675Y66826D01*
X68346Y67104D01*
X68624Y67775D01*
X68346Y68446D01*
X67675Y68724D01*
D02*
G37*
G36*
X30226Y68643D02*
Y67310D01*
X31559D01*
X31168Y68252D01*
X30226Y68643D01*
D02*
G37*
G36*
X46275Y69130D02*
X46275Y69130D01*
X40955D01*
X40955Y69130D01*
X40858Y69090D01*
X40761Y69049D01*
X40761Y69049D01*
X36509Y64797D01*
X36428Y64603D01*
X36428Y64603D01*
Y63326D01*
X36217Y63185D01*
X35306Y63562D01*
Y62103D01*
Y60644D01*
X36047Y60950D01*
X36226Y60771D01*
X36153Y60594D01*
X36314Y60205D01*
X36703Y60044D01*
X37092Y60205D01*
X37253Y60594D01*
X37092Y60983D01*
X36978Y61030D01*
Y64489D01*
X38146Y65657D01*
X38357Y65516D01*
X38333Y65458D01*
X38333Y65458D01*
Y58639D01*
X38122Y58498D01*
X37875Y58600D01*
X37486Y58439D01*
X37325Y58050D01*
X37486Y57661D01*
X37875Y57500D01*
X38122Y57602D01*
X38333Y57461D01*
Y46537D01*
X38219Y46490D01*
X38058Y46101D01*
X38219Y45712D01*
X38608Y45551D01*
X38997Y45712D01*
X39158Y46101D01*
X39034Y46400D01*
X39214Y46579D01*
X39243Y46567D01*
X39632Y46728D01*
X39793Y47117D01*
X39632Y47506D01*
X39243Y47667D01*
X39094Y47605D01*
X38883Y47746D01*
Y50992D01*
X39094Y51133D01*
X39475Y50975D01*
X39864Y51136D01*
X40025Y51525D01*
X39864Y51914D01*
X39475Y52075D01*
X39094Y51917D01*
X38883Y52058D01*
Y65344D01*
X41039Y67500D01*
X41398D01*
Y66898D01*
X43152D01*
Y68580D01*
X43971D01*
X44112Y68369D01*
X43866Y67775D01*
X44144Y67104D01*
X44540Y66940D01*
Y66029D01*
X39531Y61019D01*
X39450Y60825D01*
X39450Y60825D01*
Y58461D01*
X39336Y58414D01*
X39175Y58025D01*
X39336Y57636D01*
X39725Y57475D01*
X40114Y57636D01*
X40275Y58025D01*
X40114Y58414D01*
X40000Y58461D01*
Y60711D01*
X45009Y65721D01*
X45009Y65721D01*
X45033Y65778D01*
X45090Y65915D01*
X45090Y65915D01*
Y66940D01*
X45486Y67104D01*
X45764Y67775D01*
X45518Y68369D01*
X45659Y68580D01*
X46161D01*
X46570Y68171D01*
X46406Y67775D01*
X46684Y67104D01*
X47355Y66826D01*
X48026Y67104D01*
X48304Y67775D01*
X48026Y68446D01*
X47355Y68724D01*
X46959Y68560D01*
X46469Y69049D01*
X46275Y69130D01*
D02*
G37*
G36*
X35306Y68643D02*
Y67310D01*
X36639D01*
X36248Y68252D01*
X35306Y68643D01*
D02*
G37*
G36*
X35052D02*
X34110Y68252D01*
X33720Y67310D01*
X35052D01*
Y68643D01*
D02*
G37*
G36*
X65135Y68724D02*
X64464Y68446D01*
X64186Y67775D01*
X64464Y67104D01*
X65135Y66826D01*
X65806Y67104D01*
X66084Y67775D01*
X65806Y68446D01*
X65135Y68724D01*
D02*
G37*
G36*
X52435D02*
X51764Y68446D01*
X51486Y67775D01*
X51764Y67104D01*
X52435Y66826D01*
X53106Y67104D01*
X53384Y67775D01*
X53106Y68446D01*
X52435Y68724D01*
D02*
G37*
G36*
X49895D02*
X49224Y68446D01*
X48946Y67775D01*
X49224Y67104D01*
X49895Y66826D01*
X50566Y67104D01*
X50844Y67775D01*
X50566Y68446D01*
X49895Y68724D01*
D02*
G37*
G36*
X36639Y67056D02*
X35306D01*
Y65724D01*
X36248Y66114D01*
X36639Y67056D01*
D02*
G37*
G36*
X54975Y68724D02*
X54304Y68446D01*
X54026Y67775D01*
X54304Y67104D01*
X54975Y66826D01*
X55646Y67104D01*
X55924Y67775D01*
X55646Y68446D01*
X54975Y68724D01*
D02*
G37*
G36*
X62595D02*
X61924Y68446D01*
X61646Y67775D01*
X61924Y67104D01*
X62595Y66826D01*
X63266Y67104D01*
X63544Y67775D01*
X63266Y68446D01*
X62595Y68724D01*
D02*
G37*
G36*
X60055D02*
X59384Y68446D01*
X59106Y67775D01*
X59384Y67104D01*
X60055Y66826D01*
X60726Y67104D01*
X61004Y67775D01*
X60726Y68446D01*
X60055Y68724D01*
D02*
G37*
G36*
X57515D02*
X56844Y68446D01*
X56566Y67775D01*
X56844Y67104D01*
X57515Y66826D01*
X58186Y67104D01*
X58464Y67775D01*
X58186Y68446D01*
X57515Y68724D01*
D02*
G37*
G36*
X48260Y62349D02*
X47583D01*
Y61722D01*
X48260D01*
Y62349D01*
D02*
G37*
G36*
X69088Y55626D02*
X68580D01*
Y55118D01*
X68939Y55267D01*
X69088Y55626D01*
D02*
G37*
G36*
X68326D02*
X67818D01*
X67967Y55267D01*
X68326Y55118D01*
Y55626D01*
D02*
G37*
G36*
X74425Y56349D02*
X73754Y56071D01*
X73476Y55400D01*
X73754Y54729D01*
X74425Y54451D01*
X75096Y54729D01*
X75374Y55400D01*
X75096Y56071D01*
X74425Y56349D01*
D02*
G37*
G36*
X68326Y56388D02*
X67967Y56239D01*
X67818Y55880D01*
X68326D01*
Y56388D01*
D02*
G37*
G36*
X74425Y58889D02*
X73754Y58611D01*
X73476Y57940D01*
X73754Y57269D01*
X74425Y56991D01*
X75096Y57269D01*
X75374Y57940D01*
X75096Y58611D01*
X74425Y58889D01*
D02*
G37*
G36*
X68326Y58081D02*
X67937Y57920D01*
X67776Y57531D01*
X67937Y57142D01*
X68326Y56981D01*
X68440Y57028D01*
X68974Y56494D01*
X68893Y56372D01*
D01*
X68833Y56283D01*
X68580Y56388D01*
Y55880D01*
X69088D01*
X68983Y56133D01*
X69072Y56193D01*
D01*
X69194Y56274D01*
X72762Y52706D01*
Y52045D01*
X72551Y51904D01*
X72477Y51935D01*
Y51300D01*
Y50665D01*
X72551Y50696D01*
X72762Y50555D01*
Y49137D01*
X72762Y49137D01*
X72843Y48943D01*
X73631Y48154D01*
X73476Y47780D01*
X73754Y47109D01*
X74425Y46831D01*
X75096Y47109D01*
X75374Y47780D01*
X75096Y48451D01*
X74425Y48729D01*
X74007Y48556D01*
X73312Y49251D01*
Y50065D01*
X73561Y50114D01*
X73754Y49649D01*
X74425Y49371D01*
X75096Y49649D01*
X75374Y50320D01*
X75096Y50991D01*
X74425Y51269D01*
X73754Y50991D01*
X73561Y50526D01*
X73312Y50575D01*
Y52605D01*
X73561Y52654D01*
X73754Y52189D01*
X74425Y51911D01*
X75096Y52189D01*
X75374Y52860D01*
X75096Y53531D01*
X74425Y53809D01*
X73754Y53531D01*
X73513Y52949D01*
X73259Y52949D01*
X73255Y52957D01*
X73231Y53014D01*
X73231Y53014D01*
X68829Y57417D01*
X68876Y57531D01*
X68715Y57920D01*
X68326Y58081D01*
D02*
G37*
G36*
X56642Y56515D02*
X55965D01*
Y55888D01*
X56642D01*
Y56515D01*
D02*
G37*
G36*
X57277Y54525D02*
X56650D01*
Y53996D01*
X56380D01*
Y54525D01*
X55753D01*
Y53721D01*
X55626D01*
Y53594D01*
X54872D01*
Y52917D01*
X54999D01*
Y52698D01*
X54999D01*
Y52218D01*
X54284D01*
X54237Y52332D01*
X53848Y52493D01*
X53459Y52332D01*
X53298Y51943D01*
X53459Y51554D01*
X53848Y51393D01*
X54237Y51554D01*
X54284Y51668D01*
X54999D01*
Y51344D01*
X56253D01*
Y51668D01*
X56777D01*
Y51344D01*
X58031D01*
Y52698D01*
X58031D01*
Y52790D01*
X58158Y52917D01*
X58158D01*
Y53594D01*
X57404D01*
Y53721D01*
X57277D01*
Y54525D01*
D02*
G37*
G36*
X62611Y53594D02*
X61984D01*
Y52917D01*
X62611D01*
Y53594D01*
D02*
G37*
G36*
X61714D02*
X61087D01*
Y52917D01*
X61714D01*
Y53594D01*
D02*
G37*
G36*
X60833D02*
X60206D01*
Y52917D01*
X60833D01*
Y53594D01*
D02*
G37*
G36*
X63492D02*
X62865D01*
Y52917D01*
X63492D01*
Y53594D01*
D02*
G37*
G36*
X58158Y54525D02*
X57531D01*
Y53848D01*
X58158D01*
Y54525D01*
D02*
G37*
G36*
X55499D02*
X54872D01*
Y53848D01*
X55499D01*
Y54525D01*
D02*
G37*
G36*
X53594Y54017D02*
X53205Y53856D01*
X53044Y53467D01*
X53205Y53078D01*
X53594Y52917D01*
X53983Y53078D01*
X54144Y53467D01*
X53983Y53856D01*
X53594Y54017D01*
D02*
G37*
G36*
X70231Y58208D02*
X69842Y58047D01*
X69681Y57658D01*
X69842Y57269D01*
X70231Y57108D01*
X70620Y57269D01*
X70781Y57658D01*
X70620Y58047D01*
X70231Y58208D01*
D02*
G37*
G36*
X63529Y60529D02*
X62852D01*
Y59902D01*
X63529D01*
Y60529D01*
D02*
G37*
G36*
X62598D02*
X61921D01*
Y60402D01*
X61702D01*
Y60402D01*
X60348D01*
Y59838D01*
X59999D01*
X59952Y59952D01*
X59563Y60113D01*
X59174Y59952D01*
D01*
Y59952D01*
X58936D01*
Y59952D01*
X58547Y60113D01*
X58158Y59952D01*
X57997Y59563D01*
X58158Y59174D01*
X58170Y59169D01*
X58121Y58920D01*
X57792D01*
Y58920D01*
X57700D01*
X57573Y59047D01*
Y59047D01*
X56896D01*
Y58293D01*
X56769D01*
Y58166D01*
X55965D01*
Y57539D01*
X55965Y57539D01*
X55965Y57396D01*
X55965D01*
Y56769D01*
X56769D01*
Y56642D01*
X56896D01*
Y55888D01*
X57573D01*
Y56015D01*
X57792D01*
Y56015D01*
X59146D01*
Y57269D01*
X58822D01*
Y57666D01*
X59146D01*
Y58920D01*
X59146Y58920D01*
X59146Y58920D01*
X59171Y58981D01*
X59406Y59078D01*
X59563Y59013D01*
X59952Y59174D01*
X59999Y59288D01*
X60348D01*
Y59148D01*
X60763D01*
Y58666D01*
X60361D01*
Y57412D01*
X61715D01*
Y57412D01*
X61807D01*
X61934Y57285D01*
Y57285D01*
X62173D01*
X62314Y57074D01*
X62188Y56769D01*
X62349Y56380D01*
X62429Y56347D01*
X62379Y56098D01*
X62111D01*
Y55696D01*
X61587D01*
Y56098D01*
X60333D01*
Y54744D01*
X60333D01*
Y54652D01*
X60206Y54525D01*
X60206D01*
Y53848D01*
X61714D01*
Y54525D01*
X61587D01*
Y54744D01*
X61587D01*
Y55146D01*
X62111D01*
Y54744D01*
X62111D01*
Y54652D01*
X61984Y54525D01*
X61984D01*
Y53848D01*
X63492D01*
Y54525D01*
X63365D01*
Y54744D01*
X63365D01*
Y56098D01*
X63097D01*
X63047Y56347D01*
X63127Y56380D01*
X63288Y56769D01*
X63162Y57074D01*
X63303Y57285D01*
X63542D01*
Y57912D01*
X62738D01*
Y58166D01*
X63542D01*
Y58793D01*
X63529D01*
Y59021D01*
X63529D01*
Y59648D01*
X62725D01*
Y59775D01*
X62598D01*
Y60529D01*
D02*
G37*
G36*
X48260Y60190D02*
X47583D01*
Y59563D01*
X48260D01*
Y60190D01*
D02*
G37*
G36*
X29972Y61976D02*
X28639D01*
X29030Y61034D01*
X29972Y60644D01*
Y61976D01*
D02*
G37*
G36*
X48260Y61468D02*
X47583D01*
Y60841D01*
X48260D01*
Y61468D01*
D02*
G37*
G36*
X35052Y61976D02*
X33720D01*
X34110Y61034D01*
X35052Y60644D01*
Y61976D01*
D02*
G37*
G36*
X31559D02*
X30226D01*
Y60644D01*
X31168Y61034D01*
X31559Y61976D01*
D02*
G37*
G36*
X74425Y61429D02*
X73754Y61151D01*
X73476Y60480D01*
X73754Y59809D01*
X74425Y59531D01*
X75096Y59809D01*
X75374Y60480D01*
X75096Y61151D01*
X74425Y61429D01*
D02*
G37*
G36*
X32325Y60199D02*
X31654Y59921D01*
X31376Y59250D01*
X31654Y58579D01*
X32325Y58301D01*
X32996Y58579D01*
X33274Y59250D01*
X32996Y59921D01*
X32325Y60199D01*
D02*
G37*
G36*
X44831Y58589D02*
X44442Y58428D01*
X44281Y58039D01*
X44442Y57650D01*
X44831Y57489D01*
X45220Y57650D01*
X45381Y58039D01*
X45220Y58428D01*
X44831Y58589D01*
D02*
G37*
G36*
X64516Y58081D02*
X64127Y57920D01*
X63966Y57531D01*
X64127Y57142D01*
D01*
Y57142D01*
Y57142D01*
D01*
X64127Y56904D01*
X64127D01*
X63966Y56515D01*
X64127Y56126D01*
X64516Y55965D01*
X64630Y56012D01*
X70845Y49797D01*
Y45593D01*
X70845Y45593D01*
X70926Y45399D01*
X73519Y42805D01*
X73476Y42700D01*
X73754Y42029D01*
X74425Y41751D01*
X75096Y42029D01*
X75374Y42700D01*
X75096Y43371D01*
X74425Y43649D01*
X73754Y43371D01*
X73754Y43371D01*
Y43371D01*
X73734Y43367D01*
X71395Y45707D01*
Y47137D01*
X71630Y47235D01*
X73519Y45345D01*
X73476Y45240D01*
X73754Y44569D01*
X74425Y44291D01*
X75096Y44569D01*
X75374Y45240D01*
X75096Y45911D01*
X74425Y46189D01*
X73754Y45911D01*
X73754Y45911D01*
Y45911D01*
X73734Y45907D01*
X71776Y47866D01*
Y50546D01*
X71751Y50607D01*
X71930Y50787D01*
X72223Y50665D01*
Y51173D01*
X71715D01*
X71786Y51002D01*
X71575Y50861D01*
X65019Y57417D01*
X65066Y57531D01*
X64905Y57920D01*
X64516Y58081D01*
D02*
G37*
G36*
X35025Y60199D02*
X34354Y59921D01*
X34076Y59250D01*
X34354Y58579D01*
X35025Y58301D01*
X35696Y58579D01*
X35974Y59250D01*
X35696Y59921D01*
X35025Y60199D01*
D02*
G37*
G36*
X64516Y59986D02*
X64127Y59825D01*
X63966Y59436D01*
X64127Y59047D01*
X64516Y58886D01*
X64905Y59047D01*
X65066Y59436D01*
X64905Y59825D01*
X64516Y59986D01*
D02*
G37*
G36*
X48260Y59309D02*
X47583D01*
Y58682D01*
X48260D01*
Y59309D01*
D02*
G37*
G36*
X56642Y59047D02*
X55965D01*
Y58420D01*
X56642D01*
Y59047D01*
D02*
G37*
%LPD*%
D10*
X60960Y53721D02*
D03*
Y55421D02*
D03*
X62738Y53721D02*
D03*
Y55421D02*
D03*
X49149Y46736D02*
D03*
Y48436D02*
D03*
X51181Y46736D02*
D03*
Y48436D02*
D03*
X55626Y53721D02*
D03*
Y52021D02*
D03*
X57404Y53721D02*
D03*
Y52021D02*
D03*
D11*
X62738Y58039D02*
D03*
X61038D02*
D03*
X62725Y59775D02*
D03*
X61025D02*
D03*
X56769Y56642D02*
D03*
X58469D02*
D03*
X56769Y58293D02*
D03*
X58469D02*
D03*
X66800Y48000D02*
D03*
X65100D02*
D03*
X66802Y46228D02*
D03*
X65102D02*
D03*
X62100Y48125D02*
D03*
X60400D02*
D03*
X62103Y46228D02*
D03*
X60403D02*
D03*
X56896Y48641D02*
D03*
X58596D02*
D03*
X56896Y46990D02*
D03*
X58596D02*
D03*
X48387Y59436D02*
D03*
X50087D02*
D03*
X48387Y61595D02*
D03*
X50087D02*
D03*
D14*
X57350Y39650D02*
D03*
X49325Y40600D02*
D03*
X42275Y67775D02*
D03*
D23*
X62430Y39650D02*
X63800Y41020D01*
Y43750D01*
X64550Y44500D01*
X58625Y48670D02*
Y50100D01*
X62738Y56769D02*
X62877D01*
X62738Y55421D02*
Y56769D01*
X55626Y53721D02*
X57404D01*
X56769Y56642D02*
Y58293D01*
X60960Y55421D02*
X62738D01*
X71501Y47752D02*
Y50546D01*
X73037Y49137D02*
X74422Y47752D01*
X73037Y49137D02*
Y52820D01*
X71120Y45593D02*
Y49911D01*
X64516Y56515D02*
X71120Y49911D01*
X64516Y57531D02*
X71501Y50546D01*
X68326Y57531D02*
X73037Y52820D01*
X61038Y58039D02*
Y59563D01*
X59563D02*
X61038D01*
X58547Y56720D02*
Y59563D01*
X58469Y56642D02*
X58547Y56720D01*
X59555Y44790D02*
X60403Y45638D01*
Y46228D01*
Y48125D01*
X58596Y46990D02*
Y48641D01*
X49188Y48475D02*
X53760D01*
X49149Y48436D02*
X49188Y48475D01*
X50087Y59436D02*
Y61595D01*
X51943D01*
X53848Y51943D02*
X57355D01*
X63725Y49050D02*
X64050D01*
X65100Y48000D01*
X65102Y46228D02*
Y48050D01*
X39725Y58025D02*
Y60825D01*
X44815Y65915D01*
Y67775D01*
X40925D02*
X42275D01*
X38608Y65458D02*
X40925Y67775D01*
X38608Y46101D02*
Y65458D01*
X46275Y68855D02*
X47355Y67775D01*
X40955Y68855D02*
X46275D01*
X36703Y64603D02*
X40955Y68855D01*
X36703Y60594D02*
Y64603D01*
X71120Y45593D02*
X74041Y42672D01*
X74422D01*
X71501Y47752D02*
X74041Y45212D01*
X74422D01*
D25*
X47250Y42675D02*
X49325Y40600D01*
X47250Y42675D02*
Y54575D01*
X57275Y64600D01*
X70925D01*
X74425Y68100D01*
D26*
X64550Y44500D02*
D03*
X59825Y50075D02*
D03*
X68050Y45050D02*
D03*
X62738Y56769D02*
D03*
X36703Y60594D02*
D03*
X68453Y55753D02*
D03*
X72350Y51300D02*
D03*
X53594Y53467D02*
D03*
X64389Y50546D02*
D03*
X70231Y57658D02*
D03*
X64516Y59436D02*
D03*
X39243Y47117D02*
D03*
X39475Y51525D02*
D03*
X46800Y62550D02*
D03*
X44831Y58039D02*
D03*
X38608Y46101D02*
D03*
X64516Y56515D02*
D03*
Y57531D02*
D03*
X68326D02*
D03*
X59563Y59563D02*
D03*
X58547D02*
D03*
X63725Y49050D02*
D03*
X59555Y44790D02*
D03*
X58625Y50100D02*
D03*
X51943Y61595D02*
D03*
X53760Y48475D02*
D03*
X53848Y51943D02*
D03*
X37875Y58050D02*
D03*
X33325Y52600D02*
D03*
X39725Y58025D02*
D03*
X59075Y63425D02*
D03*
D27*
X67510Y42190D02*
D03*
Y39650D02*
D03*
X64970Y42190D02*
D03*
Y39650D02*
D03*
X62430Y42190D02*
D03*
Y39650D02*
D03*
X59890Y42190D02*
D03*
Y39650D02*
D03*
X57350Y42190D02*
D03*
X32325Y59250D02*
D03*
X45225Y43200D02*
D03*
X45175Y48925D02*
D03*
X51865Y40600D02*
D03*
X35025Y59250D02*
D03*
X44815Y67775D02*
D03*
X47355D02*
D03*
X49895D02*
D03*
X52435D02*
D03*
X54975D02*
D03*
X57515D02*
D03*
X60055D02*
D03*
X62595D02*
D03*
X65135D02*
D03*
X67675D02*
D03*
X70215D02*
D03*
X74425Y65560D02*
D03*
Y63020D02*
D03*
Y60480D02*
D03*
Y57940D02*
D03*
Y55400D02*
D03*
Y52860D02*
D03*
Y50320D02*
D03*
Y47780D02*
D03*
Y45240D02*
D03*
Y42700D02*
D03*
Y40160D02*
D03*
X42775Y48925D02*
D03*
X42675Y43200D02*
D03*
D28*
X32575Y44425D02*
D03*
X32639Y64643D02*
D03*
D29*
X30035Y46965D02*
D03*
X35115D02*
D03*
Y41885D02*
D03*
X30035D02*
D03*
X30099Y67183D02*
D03*
X35179D02*
D03*
Y62103D02*
D03*
X30099D02*
D03*
D30*
X74425Y68100D02*
D03*
D31*
X71400Y44100D02*
D03*
X72450Y42000D02*
D03*
X71400Y39900D02*
D03*
X69300Y44100D02*
D03*
X70350Y42000D02*
D03*
X67200Y60900D02*
D03*
Y44100D02*
D03*
X65100Y52500D02*
D03*
X64050Y54600D02*
D03*
X63000Y52500D02*
D03*
Y44100D02*
D03*
X61950Y63000D02*
D03*
X60900Y56700D02*
D03*
Y52500D02*
D03*
X61950Y50400D02*
D03*
X59850Y54600D02*
D03*
X58800Y52500D02*
D03*
X57750Y50400D02*
D03*
X56700Y44100D02*
D03*
X54600Y56700D02*
D03*
X55650Y50400D02*
D03*
X54600Y44100D02*
D03*
X55650Y42000D02*
D03*
X54600Y39900D02*
D03*
X53550Y67200D02*
D03*
Y58800D02*
D03*
Y54600D02*
D03*
Y50400D02*
D03*
X52500Y44100D02*
D03*
X53550Y42000D02*
D03*
X51450D02*
D03*
X46200Y65100D02*
D03*
Y60900D02*
D03*
Y44100D02*
D03*
X45150Y63000D02*
D03*
Y54600D02*
D03*
X42000Y65100D02*
D03*
X43050Y63000D02*
D03*
Y42000D02*
D03*
X39900Y56700D02*
D03*
X40950Y54600D02*
D03*
X39900Y48300D02*
D03*
X37800Y52500D02*
D03*
Y48300D02*
D03*
X38850Y42000D02*
D03*
X35700Y56700D02*
D03*
Y52500D02*
D03*
X36750Y50400D02*
D03*
Y46200D02*
D03*
X35700Y39900D02*
D03*
X33600Y60900D02*
D03*
X34650Y54600D02*
D03*
Y50400D02*
D03*
X33600Y48300D02*
D03*
Y39900D02*
D03*
X32550Y67200D02*
D03*
Y63000D02*
D03*
X31500Y52500D02*
D03*
Y48300D02*
D03*
X32550Y46200D02*
D03*
Y42000D02*
D03*
X31500Y39900D02*
D03*
X29400Y65100D02*
D03*
X30450Y58800D02*
D03*
X29400Y56700D02*
D03*
X30450Y54600D02*
D03*
X29400Y52500D02*
D03*
Y44100D02*
D03*
Y39900D02*
D03*
M02*
