%FSLAX43Y43*%
%MOMM*%
G71*
G01*
G75*
G04 Layer_Physical_Order=4*
G04 Layer_Color=8388736*
%ADD10O,1.000X0.400*%
%ADD11R,1.000X0.400*%
%ADD12R,1.000X0.300*%
%ADD13O,1.000X0.300*%
%ADD14R,1.000X1.100*%
%ADD15R,1.100X1.000*%
%ADD16R,1.300X1.100*%
%ADD17O,1.300X1.100*%
%ADD18O,0.300X1.800*%
%ADD19O,1.800X0.300*%
%ADD20O,0.700X1.000*%
%ADD21R,0.700X1.000*%
%ADD22O,0.400X1.000*%
%ADD23R,0.400X1.000*%
%ADD24R,0.450X1.150*%
%ADD25C,0.254*%
%ADD26C,0.762*%
%ADD27R,1.500X1.500*%
%ADD28C,1.500*%
%ADD29R,1.500X1.500*%
%ADD30C,2.032*%
%ADD31C,2.286*%
%ADD32C,0.152*%
%ADD33C,1.016*%
%ADD34C,1.524*%
G04:AMPARAMS|DCode=35|XSize=2.032mm|YSize=2.032mm|CornerRadius=0mm|HoleSize=0mm|Usage=FLASHONLY|Rotation=0.000|XOffset=0mm|YOffset=0mm|HoleType=Round|Shape=Relief|Width=0.254mm|Gap=0.254mm|Entries=4|*
%AMTHD35*
7,0,0,2.032,1.524,0.254,45*
%
%ADD35THD35*%
%ADD36C,1.916*%
%ADD37C,2.516*%
%ADD38C,2.718*%
%ADD39C,1.143*%
G04:AMPARAMS|DCode=40|XSize=2.424mm|YSize=2.424mm|CornerRadius=0mm|HoleSize=0mm|Usage=FLASHONLY|Rotation=0.000|XOffset=0mm|YOffset=0mm|HoleType=Round|Shape=Relief|Width=0.254mm|Gap=0.254mm|Entries=4|*
%AMTHD40*
7,0,0,2.424,1.916,0.254,45*
%
%ADD40THD40*%
G04:AMPARAMS|DCode=41|XSize=3.2258mm|YSize=3.2258mm|CornerRadius=0mm|HoleSize=0mm|Usage=FLASHONLY|Rotation=0.000|XOffset=0mm|YOffset=0mm|HoleType=Round|Shape=Relief|Width=0.254mm|Gap=0.254mm|Entries=4|*
%AMTHD41*
7,0,0,3.226,2.718,0.254,45*
%
%ADD41THD41*%
G04:AMPARAMS|DCode=42|XSize=1.651mm|YSize=1.651mm|CornerRadius=0mm|HoleSize=0mm|Usage=FLASHONLY|Rotation=0.000|XOffset=0mm|YOffset=0mm|HoleType=Round|Shape=Relief|Width=0.254mm|Gap=0.254mm|Entries=4|*
%AMTHD42*
7,0,0,1.651,1.143,0.254,45*
%
%ADD42THD42*%
D33*
X25908Y91313D02*
X26035D01*
X25908D02*
X86868D01*
Y53594D02*
Y91313D01*
X86233Y53594D02*
X86868D01*
X26035D02*
X86233D01*
X26035D02*
Y54102D01*
Y91313D01*
D34*
X71120Y65278D02*
D03*
X48846Y72263D02*
D03*
X67564Y73787D02*
D03*
X76835Y80391D02*
D03*
X39370Y77724D02*
D03*
X63500Y72509D02*
D03*
X37480Y75042D02*
D03*
X36180Y74945D02*
D03*
X57404Y77470D02*
D03*
X63500Y66421D02*
D03*
X63373Y75057D02*
D03*
Y76200D02*
D03*
X43561Y62484D02*
D03*
X52959Y73533D02*
D03*
D35*
X38862Y79375D02*
D03*
X28321Y80518D02*
D03*
X73025Y77421D02*
D03*
X70231Y71501D02*
D03*
X67437Y69342D02*
D03*
X69215Y62738D02*
D03*
X65405Y61341D02*
D03*
X58539Y62738D02*
D03*
X48690Y63246D02*
D03*
X31750Y65786D02*
D03*
X36576Y70993D02*
D03*
X58547Y77470D02*
D03*
X50927Y79756D02*
D03*
D36*
X31623Y84836D02*
D03*
X29083D02*
D03*
X79883Y79248D02*
D03*
Y61468D02*
D03*
Y64008D02*
D03*
Y66548D02*
D03*
Y69088D02*
D03*
Y71628D02*
D03*
Y74168D02*
D03*
Y76708D02*
D03*
Y81788D02*
D03*
Y84328D02*
D03*
X56515Y84836D02*
D03*
X59055D02*
D03*
X61595D02*
D03*
X64135D02*
D03*
X66675D02*
D03*
X69215D02*
D03*
X71755D02*
D03*
X74295D02*
D03*
X35433D02*
D03*
X37973D02*
D03*
X40513D02*
D03*
X43053D02*
D03*
X45593D02*
D03*
X48133D02*
D03*
X50673D02*
D03*
X53213D02*
D03*
X56007Y55499D02*
D03*
X53467D02*
D03*
X80518Y58166D02*
D03*
Y55626D02*
D03*
X77978D02*
D03*
X75438Y58166D02*
D03*
X72898D02*
D03*
Y55626D02*
D03*
X70358Y58166D02*
D03*
Y55626D02*
D03*
X67818Y58166D02*
D03*
Y55626D02*
D03*
D37*
X29972Y73406D02*
D03*
D38*
X27432Y75946D02*
D03*
X32512D02*
D03*
Y70866D02*
D03*
X27432D02*
D03*
D39*
X80137Y86360D02*
D03*
X82677Y81280D02*
D03*
Y71120D02*
D03*
Y60960D02*
D03*
X75057Y86360D02*
D03*
X77597Y60960D02*
D03*
X69977Y86360D02*
D03*
Y66040D02*
D03*
X64897Y86360D02*
D03*
X67437Y71120D02*
D03*
Y60960D02*
D03*
X64897Y55880D02*
D03*
X59817Y86360D02*
D03*
Y66040D02*
D03*
Y55880D02*
D03*
X54737Y86360D02*
D03*
Y76200D02*
D03*
X57277Y71120D02*
D03*
X54737Y66040D02*
D03*
Y55880D02*
D03*
X49657Y86360D02*
D03*
X52197Y60960D02*
D03*
X49657Y55880D02*
D03*
X44577Y86360D02*
D03*
Y76200D02*
D03*
X47117Y60960D02*
D03*
X44577Y55880D02*
D03*
X39497Y86360D02*
D03*
Y76200D02*
D03*
Y66040D02*
D03*
X42037Y60960D02*
D03*
X39497Y55880D02*
D03*
X34417Y86360D02*
D03*
X36957Y81280D02*
D03*
X34417Y76200D02*
D03*
Y66040D02*
D03*
X36957Y60960D02*
D03*
X34417Y55880D02*
D03*
X29337Y86360D02*
D03*
X31877Y81280D02*
D03*
X29337Y76200D02*
D03*
Y66040D02*
D03*
Y55880D02*
D03*
D40*
X77978Y58166D02*
D03*
X75438Y55626D02*
D03*
M02*
