%FSLAX43Y43*%
%MOMM*%
G71*
G01*
G75*
G04 Layer_Color=8421504*
%ADD10O,1.500X0.600*%
%ADD11R,1.500X0.600*%
%ADD12O,1.800X0.300*%
%ADD13O,0.300X1.800*%
%ADD14O,0.700X1.500*%
%ADD15R,0.700X1.500*%
%ADD16R,0.350X1.200*%
%ADD17R,1.000X1.100*%
%ADD18R,2.541X1.500*%
%ADD19R,1.500X1.500*%
%ADD20R,1.150X0.450*%
%ADD21R,1.700X1.100*%
%ADD22R,1.100X1.000*%
%ADD23C,0.254*%
%ADD24C,0.500*%
%ADD25C,1.000*%
%ADD26C,0.762*%
%ADD27C,1.500*%
%ADD28R,1.500X1.500*%
%ADD29C,2.286*%
%ADD30C,2.032*%
%ADD31C,0.254*%
%ADD32C,1.016*%
%ADD33C,1.524*%
%ADD34C,1.916*%
G04:AMPARAMS|DCode=35|XSize=2.424mm|YSize=2.424mm|CornerRadius=0mm|HoleSize=0mm|Usage=FLASHONLY|Rotation=0.000|XOffset=0mm|YOffset=0mm|HoleType=Round|Shape=Relief|Width=0.254mm|Gap=0.254mm|Entries=4|*
%AMTHD35*
7,0,0,2.424,1.916,0.254,45*
%
%ADD35THD35*%
G04:AMPARAMS|DCode=36|XSize=2.032mm|YSize=2.032mm|CornerRadius=0mm|HoleSize=0mm|Usage=FLASHONLY|Rotation=0.000|XOffset=0mm|YOffset=0mm|HoleType=Round|Shape=Relief|Width=0.254mm|Gap=0.254mm|Entries=4|*
%AMTHD36*
7,0,0,2.032,1.524,0.254,45*
%
%ADD36THD36*%
%ADD37C,2.718*%
%ADD38C,2.516*%
%ADD39C,1.219*%
%ADD40C,0.250*%
%ADD41C,0.600*%
%ADD42C,0.200*%
%ADD43C,0.100*%
%ADD44C,0.102*%
D10*
X45250Y39300D02*
D03*
Y41200D02*
D03*
X42850Y39300D02*
D03*
Y40250D02*
D03*
X45225Y45150D02*
D03*
Y47050D02*
D03*
X42825Y45150D02*
D03*
Y46100D02*
D03*
D11*
X42850Y41200D02*
D03*
X42825Y47050D02*
D03*
D12*
X51505Y59975D02*
D03*
Y59475D02*
D03*
Y58975D02*
D03*
Y58475D02*
D03*
Y57975D02*
D03*
Y57475D02*
D03*
Y56975D02*
D03*
Y56475D02*
D03*
Y55975D02*
D03*
Y55475D02*
D03*
Y54975D02*
D03*
Y54475D02*
D03*
Y53975D02*
D03*
Y53475D02*
D03*
Y52975D02*
D03*
Y52475D02*
D03*
Y51975D02*
D03*
Y51475D02*
D03*
Y50975D02*
D03*
Y50475D02*
D03*
Y49975D02*
D03*
Y49475D02*
D03*
Y48975D02*
D03*
Y48475D02*
D03*
Y47975D02*
D03*
X66605D02*
D03*
Y48475D02*
D03*
Y48975D02*
D03*
Y49475D02*
D03*
Y49975D02*
D03*
Y50475D02*
D03*
Y50975D02*
D03*
Y51475D02*
D03*
Y51975D02*
D03*
Y52475D02*
D03*
Y52975D02*
D03*
Y53475D02*
D03*
Y53975D02*
D03*
Y54475D02*
D03*
Y54975D02*
D03*
Y55475D02*
D03*
Y55975D02*
D03*
Y56475D02*
D03*
Y56975D02*
D03*
Y57475D02*
D03*
Y57975D02*
D03*
Y58475D02*
D03*
Y58975D02*
D03*
Y59475D02*
D03*
Y59975D02*
D03*
D13*
X53055Y46425D02*
D03*
X53555D02*
D03*
X54055D02*
D03*
X54555D02*
D03*
X55055D02*
D03*
X55555D02*
D03*
X56055D02*
D03*
X56555D02*
D03*
X57055D02*
D03*
X57555D02*
D03*
X58055D02*
D03*
X58555D02*
D03*
X59055D02*
D03*
X59555D02*
D03*
X60055D02*
D03*
X60555D02*
D03*
X61055D02*
D03*
X61555D02*
D03*
X62055D02*
D03*
X62555D02*
D03*
X63055D02*
D03*
X63555D02*
D03*
X64055D02*
D03*
X64555D02*
D03*
X65055D02*
D03*
Y61525D02*
D03*
X64555D02*
D03*
X64055D02*
D03*
X63555D02*
D03*
X63055D02*
D03*
X62555D02*
D03*
X62055D02*
D03*
X61555D02*
D03*
X61055D02*
D03*
X60555D02*
D03*
X60055D02*
D03*
X59555D02*
D03*
X59055D02*
D03*
X58555D02*
D03*
X58055D02*
D03*
X57555D02*
D03*
X57055D02*
D03*
X56555D02*
D03*
X56055D02*
D03*
X55555D02*
D03*
X55055D02*
D03*
X54555D02*
D03*
X54055D02*
D03*
X53555D02*
D03*
X53055D02*
D03*
D14*
X36925Y53675D02*
D03*
X38825D02*
D03*
X36925Y56075D02*
D03*
X37875D02*
D03*
D15*
X38825D02*
D03*
D16*
X39275Y44400D02*
D03*
X38625D02*
D03*
X37975D02*
D03*
X37325D02*
D03*
X39275Y40400D02*
D03*
X38625D02*
D03*
X37975D02*
D03*
X37325D02*
D03*
D17*
X44831Y59260D02*
D03*
Y60960D02*
D03*
X42672Y59260D02*
D03*
Y60960D02*
D03*
X46990Y51484D02*
D03*
Y49784D02*
D03*
X49022Y51484D02*
D03*
Y49784D02*
D03*
X38227Y64692D02*
D03*
Y62992D02*
D03*
X40513Y64692D02*
D03*
Y62992D02*
D03*
X69342Y48436D02*
D03*
Y46736D02*
D03*
X71120Y48436D02*
D03*
Y46736D02*
D03*
X46990Y54053D02*
D03*
Y55753D02*
D03*
X49022Y54053D02*
D03*
Y55753D02*
D03*
X69469Y56437D02*
D03*
Y54737D02*
D03*
X71374Y56437D02*
D03*
Y54737D02*
D03*
X69342Y59514D02*
D03*
Y61214D02*
D03*
X71374Y59514D02*
D03*
Y61214D02*
D03*
X69342Y50497D02*
D03*
Y52197D02*
D03*
X71120Y50497D02*
D03*
Y52197D02*
D03*
D18*
X32175Y56350D02*
D03*
D19*
X31025Y50850D02*
D03*
X33325D02*
D03*
D20*
X38422Y60594D02*
D03*
Y59944D02*
D03*
Y59294D02*
D03*
X40572D02*
D03*
Y59944D02*
D03*
Y60594D02*
D03*
D21*
X44464Y52954D02*
D03*
X42164D02*
D03*
X44464Y51054D02*
D03*
X42164D02*
D03*
D22*
X42115Y55118D02*
D03*
X43815D02*
D03*
X42115Y57023D02*
D03*
X43815D02*
D03*
X49025Y58450D02*
D03*
X47325D02*
D03*
Y60425D02*
D03*
X49025D02*
D03*
M02*
