%FSLAX43Y43*%
%MOMM*%
G71*
G01*
G75*
G04 Layer_Physical_Order=1*
G04 Layer_Color=255*
%ADD10O,1.500X0.600*%
%ADD11R,1.500X0.600*%
%ADD12O,1.800X0.300*%
%ADD13O,0.300X1.800*%
%ADD14O,0.700X1.500*%
%ADD15R,0.700X1.500*%
%ADD16R,0.350X1.200*%
%ADD17R,1.000X1.100*%
%ADD18R,2.541X1.500*%
%ADD19R,1.500X1.500*%
%ADD20R,1.150X0.450*%
%ADD21R,1.700X1.100*%
%ADD22R,1.100X1.000*%
%ADD23C,0.254*%
%ADD24C,0.500*%
%ADD25C,1.000*%
%ADD26C,0.762*%
%ADD27C,1.500*%
%ADD28R,1.500X1.500*%
%ADD29C,2.286*%
%ADD30C,2.032*%
%ADD31C,0.254*%
G36*
X76625Y38050D02*
X76625Y38050D01*
X76625Y38050D01*
X76615Y38025D01*
X49334D01*
X49237Y38260D01*
X49614Y38636D01*
X49614Y38636D01*
X49649Y38721D01*
X49733Y38925D01*
X49733Y38925D01*
Y39723D01*
X50202D01*
Y41477D01*
X48448D01*
Y39723D01*
X48917D01*
Y39094D01*
X48756Y38933D01*
X46239D01*
X46098Y39144D01*
X46162Y39300D01*
X46027Y39627D01*
X45700Y39762D01*
X44800D01*
X44473Y39627D01*
X44338Y39300D01*
X44402Y39144D01*
X44261Y38933D01*
X43839D01*
X43698Y39144D01*
X43762Y39300D01*
X43627Y39627D01*
Y39627D01*
D01*
X43724Y39826D01*
X43724Y39826D01*
X43847Y40123D01*
X42850D01*
Y40377D01*
X43847D01*
X43724Y40674D01*
X43709Y40680D01*
X43727Y40773D01*
X43727D01*
X43727Y40773D01*
Y41627D01*
X41973D01*
Y41608D01*
X41844D01*
X41108Y42344D01*
Y44681D01*
X41200Y44742D01*
X42244D01*
X42375Y44688D01*
X43275D01*
X43602Y44823D01*
X43737Y45150D01*
X43602Y45477D01*
Y45477D01*
D01*
X43699Y45676D01*
X43699Y45676D01*
X43822Y45973D01*
X42825D01*
Y46227D01*
X43822D01*
X43699Y46524D01*
X43684Y46530D01*
X43702Y46623D01*
X43702D01*
X43702Y46623D01*
Y47477D01*
X41948D01*
Y47458D01*
X41150D01*
X41150Y47458D01*
X41006Y47398D01*
X40861Y47339D01*
X40861Y47339D01*
X40411Y46889D01*
X40292Y46600D01*
X40292Y46600D01*
Y45650D01*
X40292Y45650D01*
X40292Y45650D01*
Y42175D01*
X40292Y42175D01*
X40292Y42175D01*
Y40200D01*
X40292Y40200D01*
X40411Y39911D01*
X41311Y39011D01*
X41311Y39011D01*
X41456Y38952D01*
X41600Y38892D01*
X41600Y38892D01*
X42269D01*
X42400Y38838D01*
X42735D01*
X43183Y38390D01*
X43142Y38139D01*
X42914Y38025D01*
X28150D01*
Y69890D01*
X28175Y69900D01*
Y69900D01*
X28175Y69900D01*
X76625D01*
Y38050D01*
D02*
G37*
%LPC*%
G36*
X70096Y46609D02*
X69469D01*
Y45932D01*
X70096D01*
Y46609D01*
D02*
G37*
G36*
X69215D02*
X68588D01*
Y45932D01*
X69215D01*
Y46609D01*
D02*
G37*
G36*
X36575Y46838D02*
X35242D01*
Y45506D01*
X36184Y45896D01*
X36575Y46838D01*
D02*
G37*
G36*
X70993Y46609D02*
X70366D01*
Y45932D01*
X70993D01*
Y46609D01*
D02*
G37*
G36*
X29908Y48424D02*
X28966Y48034D01*
X28576Y47092D01*
X29908D01*
Y48424D01*
D02*
G37*
G36*
X39243Y47667D02*
X38854Y47506D01*
X38693Y47117D01*
X38817Y46818D01*
X38637Y46639D01*
X38608Y46651D01*
X38219Y46490D01*
X38058Y46101D01*
X38219Y45712D01*
X38333Y45665D01*
Y45254D01*
X38102D01*
Y44400D01*
Y43546D01*
X38404D01*
Y43673D01*
X38927D01*
Y43673D01*
X38927D01*
X38927Y43673D01*
X38973D01*
Y43673D01*
X39577D01*
Y45127D01*
X39518D01*
Y46681D01*
X39632Y46728D01*
X39793Y47117D01*
X39632Y47506D01*
X39243Y47667D01*
D02*
G37*
G36*
X71874Y46609D02*
X71247D01*
Y45932D01*
X71874D01*
Y46609D01*
D02*
G37*
G36*
X45225Y44149D02*
X44572Y43879D01*
X43328D01*
X42675Y44149D01*
X42004Y43871D01*
X41726Y43200D01*
X42004Y42529D01*
X42675Y42251D01*
X43328Y42521D01*
X44571D01*
Y41567D01*
X44473Y41527D01*
X44338Y41200D01*
X44473Y40873D01*
X44800Y40738D01*
X45700D01*
X46027Y40873D01*
X46162Y41200D01*
X46027Y41527D01*
X45929Y41567D01*
Y42607D01*
X46174Y43200D01*
X45896Y43871D01*
X45225Y44149D01*
D02*
G37*
G36*
X32575Y45662D02*
X31700Y45300D01*
X31338Y44425D01*
X31700Y43550D01*
X32575Y43188D01*
X33450Y43550D01*
X33709Y44175D01*
X37023D01*
Y43673D01*
X37546D01*
Y43546D01*
X37848D01*
Y44400D01*
Y45254D01*
X37546D01*
Y45127D01*
X37023D01*
Y44725D01*
X33688D01*
X33450Y45300D01*
X32575Y45662D01*
D02*
G37*
G36*
X69723Y43833D02*
Y42926D01*
X70630D01*
X70364Y43567D01*
X69723Y43833D01*
D02*
G37*
G36*
X45675Y45612D02*
X44775D01*
X44448Y45477D01*
X44313Y45150D01*
X44448Y44823D01*
X44775Y44688D01*
X45675D01*
X46002Y44823D01*
X46137Y45150D01*
X46002Y45477D01*
X45675Y45612D01*
D02*
G37*
G36*
X34988Y46838D02*
X33655D01*
X34046Y45896D01*
X34988Y45506D01*
Y46838D01*
D02*
G37*
G36*
X31494D02*
X30162D01*
Y45506D01*
X31104Y45896D01*
X31494Y46838D01*
D02*
G37*
G36*
X29908D02*
X28576D01*
X28966Y45896D01*
X29908Y45506D01*
Y46838D01*
D02*
G37*
G36*
X45175Y49874D02*
X44522Y49604D01*
X43428D01*
X42775Y49874D01*
X42104Y49596D01*
X41826Y48925D01*
X42104Y48254D01*
X42775Y47976D01*
X43428Y48246D01*
X44496D01*
Y47397D01*
X44448Y47377D01*
X44313Y47050D01*
X44448Y46723D01*
X44695Y46621D01*
X44695Y46620D01*
X45175Y46421D01*
X45577Y46588D01*
X45675D01*
X46002Y46723D01*
X46137Y47050D01*
X46002Y47377D01*
X45854Y47438D01*
Y48272D01*
X46124Y48925D01*
Y48925D01*
X46129Y48936D01*
X46236Y48980D01*
X46236Y48980D01*
X46236Y48980D01*
X46863D01*
Y49657D01*
X46236D01*
Y49306D01*
X45987Y49257D01*
X45846Y49596D01*
X45175Y49874D01*
D02*
G37*
G36*
X60460Y49948D02*
X59952D01*
Y49440D01*
X60311Y49589D01*
X60460Y49948D01*
D02*
G37*
G36*
X49776Y49657D02*
X49149D01*
Y48980D01*
X49776D01*
Y49657D01*
D02*
G37*
G36*
X30898Y50723D02*
X30021D01*
Y49846D01*
X30898D01*
Y50723D01*
D02*
G37*
G36*
X45568Y50927D02*
X44591D01*
Y50250D01*
X45568D01*
Y50927D01*
D02*
G37*
G36*
X59952Y50710D02*
Y50202D01*
X60460D01*
X60311Y50561D01*
X59952Y50710D01*
D02*
G37*
G36*
X32029Y50723D02*
X31152D01*
Y49846D01*
X32029D01*
Y50723D01*
D02*
G37*
G36*
X35242Y48424D02*
Y47092D01*
X36575D01*
X36184Y48034D01*
X35242Y48424D01*
D02*
G37*
G36*
X34988D02*
X34046Y48034D01*
X33655Y47092D01*
X34988D01*
Y48424D01*
D02*
G37*
G36*
X30162D02*
Y47092D01*
X31494D01*
X31104Y48034D01*
X30162Y48424D01*
D02*
G37*
G36*
X51378Y47848D02*
X50370D01*
X50446Y47666D01*
X50755Y47538D01*
X51378D01*
Y47848D01*
D02*
G37*
G36*
X48895Y49657D02*
X48268D01*
Y48980D01*
X48895D01*
Y49657D01*
D02*
G37*
G36*
X47744D02*
X47117D01*
Y48980D01*
X47744D01*
Y49657D01*
D02*
G37*
G36*
X52640Y47848D02*
X51632D01*
Y47538D01*
X52255D01*
X52564Y47666D01*
X52640Y47848D01*
D02*
G37*
G36*
X39148Y41254D02*
X38752D01*
Y40400D01*
Y39546D01*
X39148D01*
Y40400D01*
Y41254D01*
D02*
G37*
G36*
X38498D02*
X38102D01*
Y40400D01*
Y39546D01*
X38498D01*
Y40400D01*
Y41254D01*
D02*
G37*
G36*
X37848D02*
X37452D01*
Y40400D01*
Y39546D01*
X37848D01*
Y40400D01*
Y41254D01*
D02*
G37*
G36*
X39704Y40273D02*
X39402D01*
Y39546D01*
X39704D01*
Y40273D01*
D02*
G37*
G36*
X29908Y41758D02*
X28576D01*
X28966Y40816D01*
X29908Y40425D01*
Y41758D01*
D02*
G37*
G36*
X52899Y40473D02*
X51992D01*
Y39566D01*
X52633Y39832D01*
X52899Y40473D01*
D02*
G37*
G36*
X51738D02*
X50831D01*
X51097Y39832D01*
X51738Y39566D01*
Y40473D01*
D02*
G37*
G36*
X69469Y40132D02*
X68562D01*
X68828Y39491D01*
X69469Y39225D01*
Y40132D01*
D02*
G37*
G36*
X63010D02*
X62103D01*
Y39225D01*
X62744Y39491D01*
X63010Y40132D01*
D02*
G37*
G36*
X61849D02*
X60942D01*
X61208Y39491D01*
X61849Y39225D01*
Y40132D01*
D02*
G37*
G36*
X70630D02*
X69723D01*
Y39225D01*
X70364Y39491D01*
X70630Y40132D01*
D02*
G37*
G36*
X37198Y40273D02*
X36896D01*
Y39546D01*
X37198D01*
Y40273D01*
D02*
G37*
G36*
X57773Y41136D02*
X56019D01*
Y39382D01*
X57773D01*
Y41136D01*
D02*
G37*
G36*
X64516Y41208D02*
X63845Y40930D01*
X63567Y40259D01*
X63845Y39588D01*
X64516Y39310D01*
X65187Y39588D01*
X65465Y40259D01*
X65187Y40930D01*
X64516Y41208D01*
D02*
G37*
G36*
X29908Y43345D02*
X28966Y42954D01*
X28576Y42012D01*
X29908D01*
Y43345D01*
D02*
G37*
G36*
X67056Y43748D02*
X66385Y43470D01*
X66107Y42799D01*
X66385Y42128D01*
X67056Y41850D01*
X67727Y42128D01*
X68005Y42799D01*
X67727Y43470D01*
X67056Y43748D01*
D02*
G37*
G36*
X60470Y42672D02*
X59563D01*
Y41765D01*
X60204Y42031D01*
X60470Y42672D01*
D02*
G37*
G36*
X30162Y43345D02*
Y42012D01*
X31494D01*
X31104Y42954D01*
X30162Y43345D01*
D02*
G37*
G36*
X69469Y43833D02*
X68828Y43567D01*
X68562Y42926D01*
X69469D01*
Y43833D01*
D02*
G37*
G36*
X35242Y43345D02*
Y42012D01*
X36575D01*
X36184Y42954D01*
X35242Y43345D01*
D02*
G37*
G36*
X34988D02*
X34046Y42954D01*
X33655Y42012D01*
X34988D01*
Y43345D01*
D02*
G37*
G36*
X36575Y41758D02*
X35242D01*
Y40425D01*
X36184Y40816D01*
X36575Y41758D01*
D02*
G37*
G36*
X34988D02*
X33655D01*
X34046Y40816D01*
X34988Y40425D01*
Y41758D01*
D02*
G37*
G36*
X31494D02*
X30162D01*
Y40425D01*
X31104Y40816D01*
X31494Y41758D01*
D02*
G37*
G36*
X37198Y41254D02*
X36896D01*
Y40527D01*
X37198D01*
Y41254D01*
D02*
G37*
G36*
X51992Y41634D02*
Y40727D01*
X52899D01*
X52633Y41368D01*
X51992Y41634D01*
D02*
G37*
G36*
X51738D02*
X51097Y41368D01*
X50831Y40727D01*
X51738D01*
Y41634D01*
D02*
G37*
G36*
X39704Y41254D02*
X39402D01*
Y40527D01*
X39704D01*
Y41254D01*
D02*
G37*
G36*
X30898Y51854D02*
X30021D01*
Y50977D01*
X30898D01*
Y51854D01*
D02*
G37*
G36*
X29972Y63562D02*
X29030Y63172D01*
X28639Y62230D01*
X29972D01*
Y63562D01*
D02*
G37*
G36*
X38981Y62865D02*
X38354D01*
Y62188D01*
X38981D01*
Y62865D01*
D02*
G37*
G36*
X38100D02*
X37473D01*
Y62188D01*
X38100D01*
Y62865D01*
D02*
G37*
G36*
X30226Y63562D02*
Y62230D01*
X31559D01*
X31168Y63172D01*
X30226Y63562D01*
D02*
G37*
G36*
X32639Y65880D02*
X31764Y65518D01*
X31402Y64643D01*
X31764Y63768D01*
X32639Y63406D01*
X33514Y63768D01*
X33762Y64368D01*
X37600D01*
Y64015D01*
X37600D01*
Y63923D01*
X37473Y63796D01*
X37473D01*
Y63119D01*
X38981D01*
Y63796D01*
X38854D01*
Y64015D01*
X38854D01*
Y64368D01*
X39886D01*
Y64015D01*
X41140D01*
Y65369D01*
X39886D01*
Y64918D01*
X38854D01*
Y65369D01*
X37600D01*
Y64918D01*
X33762D01*
X33514Y65518D01*
X32639Y65880D01*
D02*
G37*
G36*
X35306Y63562D02*
Y62230D01*
X36639D01*
X36248Y63172D01*
X35306Y63562D01*
D02*
G37*
G36*
X35052D02*
X34110Y63172D01*
X33720Y62230D01*
X35052D01*
Y63562D01*
D02*
G37*
G36*
X43426Y61764D02*
X42799D01*
Y61087D01*
X43426D01*
Y61764D01*
D02*
G37*
G36*
X42545D02*
X41918D01*
Y61087D01*
X42545D01*
Y61764D01*
D02*
G37*
G36*
X35052Y61976D02*
X33720D01*
X34110Y61034D01*
X35052Y60644D01*
Y61976D01*
D02*
G37*
G36*
X44704Y61764D02*
X44077D01*
Y61087D01*
X44704D01*
Y61764D01*
D02*
G37*
G36*
X70096Y62018D02*
X69469D01*
Y61341D01*
X70096D01*
Y62018D01*
D02*
G37*
G36*
X69215D02*
X68588D01*
Y61341D01*
X69215D01*
Y62018D01*
D02*
G37*
G36*
X45585Y61764D02*
X44958D01*
Y61087D01*
X45585D01*
Y61764D01*
D02*
G37*
G36*
X75302Y68977D02*
X73548D01*
Y67223D01*
X75302D01*
Y68977D01*
D02*
G37*
G36*
X70215Y68724D02*
X69544Y68446D01*
X69266Y67775D01*
X69430Y67379D01*
X68151Y66100D01*
X66721D01*
X66623Y66335D01*
X67279Y66990D01*
X67675Y66826D01*
X68346Y67104D01*
X68624Y67775D01*
X68346Y68446D01*
X67675Y68724D01*
X67004Y68446D01*
X66726Y67775D01*
X66890Y67379D01*
X66086Y66575D01*
X63592D01*
X63458Y66791D01*
X63496Y66868D01*
X64088Y67459D01*
X64337Y67410D01*
X64464Y67104D01*
X65135Y66826D01*
X65806Y67104D01*
X66084Y67775D01*
X65806Y68446D01*
X65135Y68724D01*
X64464Y68446D01*
X64300Y68050D01*
X64015D01*
X64015Y68050D01*
X63877Y67993D01*
X63820Y67969D01*
X63820Y67969D01*
X63730Y67879D01*
X63481Y67928D01*
X63266Y68446D01*
X62595Y68724D01*
X61924Y68446D01*
X61760Y68050D01*
X61675Y68050D01*
X61675Y68050D01*
X61675Y68050D01*
X61538Y67993D01*
X61481Y67969D01*
X61481Y67969D01*
X61248Y67737D01*
X60999Y67787D01*
X60726Y68446D01*
X60055Y68724D01*
X59384Y68446D01*
X59106Y67775D01*
X59270Y67379D01*
X57565Y65673D01*
X57428Y65730D01*
X57378Y65979D01*
X57709Y66311D01*
X57709Y66311D01*
X57790Y66505D01*
Y66940D01*
X58186Y67104D01*
X58464Y67775D01*
X58186Y68446D01*
X57515Y68724D01*
X56844Y68446D01*
X56566Y67775D01*
X56844Y67104D01*
X57240Y66940D01*
Y66619D01*
X56861Y66239D01*
X56780Y66045D01*
X56780Y66045D01*
Y63791D01*
X56545Y63693D01*
X55250Y64989D01*
Y66940D01*
X55646Y67104D01*
X55924Y67775D01*
X55646Y68446D01*
X54975Y68724D01*
X54304Y68446D01*
X54026Y67775D01*
X54304Y67104D01*
X54700Y66940D01*
Y64875D01*
D01*
X54700Y64875D01*
X54700D01*
X54462Y64777D01*
X52710Y66529D01*
Y66940D01*
X53106Y67104D01*
X53384Y67775D01*
X53106Y68446D01*
X52435Y68724D01*
X51764Y68446D01*
X51486Y67775D01*
X51764Y67104D01*
X52160Y66940D01*
Y66415D01*
X52160Y66415D01*
X52241Y66221D01*
X53049Y65412D01*
X53097Y65316D01*
X52935Y65199D01*
X52872Y65187D01*
X50680Y67379D01*
X50844Y67775D01*
X50566Y68446D01*
X49895Y68724D01*
X49224Y68446D01*
X48946Y67775D01*
X49224Y67104D01*
X49895Y66826D01*
X50291Y66990D01*
X52372Y64910D01*
X52274Y64675D01*
X50844D01*
X48140Y67379D01*
X48304Y67775D01*
X48026Y68446D01*
X47355Y68724D01*
X46684Y68446D01*
X46406Y67775D01*
X46684Y67104D01*
X47355Y66826D01*
X47751Y66990D01*
X50282Y64460D01*
X50184Y64225D01*
X48754D01*
X45600Y67379D01*
X45764Y67775D01*
X45486Y68446D01*
X44815Y68724D01*
X44144Y68446D01*
X43866Y67775D01*
X44144Y67104D01*
X44815Y66826D01*
X45211Y66990D01*
X48217Y63985D01*
X48119Y63750D01*
X46689D01*
X43152Y67287D01*
Y68652D01*
X41398D01*
Y66898D01*
X42763D01*
X46381Y63281D01*
X46381Y63281D01*
X46438Y63257D01*
X46502Y63230D01*
Y62976D01*
X46411Y62939D01*
X46250Y62550D01*
X46411Y62161D01*
X46800Y62000D01*
X46839Y62016D01*
X47050Y61875D01*
Y61052D01*
X46648D01*
Y59798D01*
X48002D01*
Y61052D01*
X47600D01*
Y62025D01*
X47600Y62025D01*
X47560Y62122D01*
X47519Y62219D01*
X47519Y62219D01*
X47303Y62436D01*
X47350Y62550D01*
X47189Y62939D01*
X47159Y62951D01*
X47209Y63200D01*
X52812D01*
X53248Y62765D01*
X53107Y62553D01*
X53071Y62568D01*
Y62568D01*
D01*
D01*
X53071Y62568D01*
D01*
X53055Y62575D01*
X52843Y62487D01*
X52836Y62471D01*
X52836D01*
X52836D01*
X52836Y62471D01*
X52836Y62471D01*
Y62471D01*
X52755Y62275D01*
Y61870D01*
X52379D01*
X52332Y61984D01*
X51943Y62145D01*
X51554Y61984D01*
X51393Y61595D01*
X51554Y61206D01*
X51943Y61045D01*
X52332Y61206D01*
X52379Y61320D01*
X52755D01*
Y60775D01*
X52836Y60579D01*
Y60579D01*
X52836Y60579D01*
X52836Y60579D01*
X52836D01*
X52836D01*
X52843Y60563D01*
X53055Y60475D01*
X53071Y60482D01*
X53071D01*
Y60482D01*
D01*
D01*
D01*
X53139Y60510D01*
X53246Y60466D01*
X53246Y60466D01*
X53246Y60466D01*
X53428Y60390D01*
Y61525D01*
X53682D01*
Y60390D01*
X53864Y60466D01*
X53864Y60466D01*
Y60466D01*
X53971Y60510D01*
X54055Y60475D01*
X54267Y60563D01*
X54267D01*
D01*
X54343D01*
D01*
X54555Y60475D01*
X54571Y60482D01*
X54571Y60482D01*
X54571Y60482D01*
X54767Y60563D01*
X54767D01*
D01*
X54843D01*
D01*
X55055Y60475D01*
D01*
D01*
D01*
D01*
X55267Y60563D01*
D01*
X55343D01*
D01*
X55555Y60475D01*
D01*
D01*
D01*
D01*
X55767Y60563D01*
D01*
X55843D01*
X55843Y60563D01*
Y60563D01*
X56039Y60482D01*
X56039Y60482D01*
X56039Y60482D01*
X56055Y60475D01*
X56267Y60563D01*
D01*
X56343D01*
D01*
X56555Y60475D01*
D01*
D01*
D01*
D01*
X56767Y60563D01*
D01*
X56843D01*
D01*
X57055Y60475D01*
X57071Y60482D01*
X57071Y60482D01*
X57071Y60482D01*
X57267Y60563D01*
X57267D01*
D01*
X57343D01*
D01*
X57555Y60475D01*
D01*
D01*
D01*
D01*
X57767Y60563D01*
D01*
X57843D01*
D01*
X58055Y60475D01*
X58069Y60481D01*
X58280Y60340D01*
Y60002D01*
X58158Y59952D01*
X57997Y59563D01*
X58158Y59174D01*
X58547Y59013D01*
X58936Y59174D01*
X58936Y59174D01*
X59174D01*
Y59174D01*
X59563Y59013D01*
X59952Y59174D01*
X60113Y59563D01*
X59952Y59952D01*
X59838Y59999D01*
Y60336D01*
X60049Y60478D01*
X60055Y60475D01*
X60267Y60563D01*
D01*
X60343D01*
D01*
X60555Y60475D01*
D01*
D01*
D01*
D01*
X60767Y60563D01*
D01*
X60843D01*
X60843Y60563D01*
Y60563D01*
X61039Y60482D01*
X61039Y60482D01*
X61039Y60482D01*
X61055Y60475D01*
X61267Y60563D01*
D01*
X61343D01*
D01*
X61555Y60475D01*
D01*
D01*
D01*
D01*
X61767Y60563D01*
D01*
X61843D01*
D01*
X62055Y60475D01*
X62071Y60482D01*
X62071Y60482D01*
X62071Y60482D01*
X62267Y60563D01*
X62267D01*
D01*
X62343D01*
D01*
X62555Y60475D01*
D01*
D01*
D01*
D01*
X62767Y60563D01*
D01*
X62843D01*
D01*
X63055Y60475D01*
D01*
D01*
D01*
D01*
X63267Y60563D01*
D01*
X63343D01*
D01*
X63555Y60475D01*
D01*
D01*
D01*
D01*
X63767Y60563D01*
D01*
X63843D01*
X63843Y60563D01*
Y60563D01*
X64039Y60482D01*
X64039Y60482D01*
X64039Y60482D01*
X64055Y60475D01*
X64267Y60563D01*
D01*
X64343D01*
D01*
X64555Y60475D01*
X64571Y60482D01*
X64571Y60482D01*
X64571Y60482D01*
X64767Y60563D01*
X64767D01*
D01*
X64843D01*
D01*
X65055Y60475D01*
X65071Y60482D01*
X65071D01*
Y60482D01*
X65267Y60563D01*
X65355Y60775D01*
Y62275D01*
X65348Y62292D01*
X65519Y62463D01*
X71145D01*
X71356Y62253D01*
X71259Y62018D01*
X70620D01*
Y61341D01*
X71374D01*
Y61087D01*
X70620D01*
Y60410D01*
X70747D01*
Y60191D01*
X70747D01*
Y59750D01*
X69969D01*
Y60191D01*
X69969D01*
Y60283D01*
X70096Y60410D01*
X70096D01*
Y61087D01*
X68588D01*
Y60410D01*
X68715D01*
Y60191D01*
X68715D01*
Y59750D01*
X67928D01*
X67862Y59848D01*
X65348D01*
X65282Y59750D01*
X64936D01*
X64905Y59825D01*
X64516Y59986D01*
X64127Y59825D01*
X63966Y59436D01*
X64013Y59322D01*
X62544Y57852D01*
X62463Y57658D01*
X62463Y57658D01*
Y57205D01*
X62349Y57158D01*
X62188Y56769D01*
X62349Y56380D01*
X62738Y56219D01*
X62852Y56266D01*
X63838Y55281D01*
X63838Y55281D01*
X63895Y55257D01*
X64032Y55200D01*
X64032Y55200D01*
X65420D01*
X65561Y54989D01*
X65555Y54975D01*
D01*
D01*
D01*
D01*
X65643Y54763D01*
D01*
Y54687D01*
X65643Y54687D01*
X65643D01*
X65562Y54491D01*
X65562Y54491D01*
X65562Y54491D01*
X65555Y54475D01*
X65643Y54263D01*
D01*
Y54187D01*
D01*
X65555Y53975D01*
D01*
D01*
D01*
D01*
X65643Y53763D01*
D01*
Y53687D01*
D01*
X65555Y53475D01*
X65562Y53459D01*
X65562Y53459D01*
X65562Y53459D01*
X65643Y53263D01*
Y53263D01*
D01*
Y53187D01*
D01*
X65555Y52975D01*
D01*
D01*
D01*
D01*
X65643Y52763D01*
D01*
Y52687D01*
D01*
X65555Y52475D01*
D01*
D01*
D01*
D01*
X65643Y52263D01*
D01*
Y52187D01*
X65643Y52187D01*
X65643D01*
X65562Y51991D01*
X65562Y51991D01*
X65562Y51991D01*
X65555Y51975D01*
X65643Y51763D01*
D01*
Y51687D01*
D01*
X65555Y51475D01*
D01*
D01*
D01*
D01*
X65643Y51263D01*
D01*
Y51187D01*
D01*
X65555Y50975D01*
X65561Y50961D01*
X65420Y50750D01*
X64854D01*
X64778Y50935D01*
X64389Y51096D01*
X64000Y50935D01*
X63839Y50546D01*
X64000Y50157D01*
X64389Y49996D01*
X64778Y50157D01*
X64796Y50200D01*
X65240D01*
X65299Y50171D01*
X65340Y49920D01*
X65257Y49837D01*
X65176Y49642D01*
X65176Y49642D01*
Y48320D01*
X64941Y48222D01*
X64228Y48936D01*
X64275Y49050D01*
X64114Y49439D01*
X63725Y49600D01*
X63336Y49439D01*
X63175Y49050D01*
X63336Y48661D01*
X63725Y48500D01*
X63839Y48547D01*
X64703Y47683D01*
X64562Y47472D01*
X64555Y47475D01*
X64343Y47387D01*
D01*
X64267D01*
D01*
X64055Y47475D01*
X64039Y47468D01*
X64039Y47468D01*
X64039Y47468D01*
X63843Y47387D01*
X63843D01*
D01*
X63767D01*
D01*
X63555Y47475D01*
X63539Y47468D01*
X63539D01*
Y47468D01*
X63471Y47440D01*
X63364Y47484D01*
X63364Y47484D01*
X63364Y47484D01*
X63182Y47560D01*
Y46425D01*
X62928D01*
Y47560D01*
X62746Y47484D01*
X62746Y47484D01*
Y47484D01*
X62639Y47440D01*
X62571Y47468D01*
Y47468D01*
X62571D01*
X62555Y47475D01*
X62343Y47387D01*
D01*
X62267D01*
X62267Y47387D01*
Y47387D01*
X62071Y47468D01*
X62071Y47468D01*
X62071Y47468D01*
X62055Y47475D01*
X61843Y47387D01*
D01*
X61767D01*
D01*
X61555Y47475D01*
D01*
D01*
D01*
D01*
X61343Y47387D01*
D01*
X61267D01*
D01*
X61055Y47475D01*
X61039Y47468D01*
X61039Y47468D01*
X61039Y47468D01*
X60843Y47387D01*
X60843D01*
D01*
X60767D01*
D01*
X60555Y47475D01*
D01*
D01*
D01*
D01*
X60343Y47387D01*
D01*
X60267D01*
D01*
X60055Y47475D01*
D01*
D01*
D01*
D01*
X59843Y47387D01*
D01*
X59767D01*
X59767Y47387D01*
Y47387D01*
X59555Y47475D01*
X59541Y47469D01*
X59330Y47610D01*
Y49191D01*
X59614Y49475D01*
X59698Y49440D01*
Y50075D01*
Y50710D01*
X59339Y50561D01*
X59288Y50439D01*
X59034Y50439D01*
X59014Y50489D01*
X58625Y50650D01*
X58236Y50489D01*
X58075Y50100D01*
X58236Y49711D01*
X58350Y49664D01*
Y47581D01*
X58139Y47440D01*
X58055Y47475D01*
D01*
D01*
D01*
D01*
X57843Y47387D01*
D01*
X57767D01*
D01*
X57555Y47475D01*
D01*
D01*
D01*
D01*
X57343Y47387D01*
D01*
X57267D01*
X57267Y47387D01*
Y47387D01*
X57071Y47468D01*
X57071Y47468D01*
X57071Y47468D01*
X57055Y47475D01*
X56843Y47387D01*
D01*
X56767D01*
D01*
X56555Y47475D01*
D01*
D01*
D01*
D01*
X56343Y47387D01*
D01*
X56267D01*
D01*
X56055Y47475D01*
X56039Y47468D01*
X56039Y47468D01*
X56039Y47468D01*
X55843Y47387D01*
X55843D01*
D01*
X55767D01*
D01*
X55555Y47475D01*
D01*
D01*
D01*
D01*
X55343Y47387D01*
D01*
X55267D01*
D01*
X55055Y47475D01*
D01*
D01*
D01*
D01*
X54843Y47387D01*
D01*
X54767D01*
X54767Y47387D01*
Y47387D01*
X54571Y47468D01*
X54571Y47468D01*
X54571Y47468D01*
X54555Y47475D01*
X54343Y47387D01*
D01*
X54267D01*
D01*
X54055Y47475D01*
D01*
D01*
D01*
D01*
X53843Y47387D01*
D01*
X53767D01*
D01*
X53555Y47475D01*
X53539Y47468D01*
X53539Y47468D01*
X53539Y47468D01*
X53343Y47387D01*
X53343D01*
D01*
X53267D01*
D01*
X53055Y47475D01*
X53039Y47468D01*
X53039D01*
Y47468D01*
X52843Y47387D01*
X52755Y47175D01*
Y45675D01*
X52843Y45463D01*
X53039Y45382D01*
Y45382D01*
X53039D01*
X53055Y45375D01*
X53267Y45463D01*
D01*
X53343D01*
X53343Y45463D01*
Y45463D01*
X53539Y45382D01*
X53539Y45382D01*
X53539Y45382D01*
X53555Y45375D01*
X53767Y45463D01*
D01*
X53843D01*
D01*
X54055Y45375D01*
D01*
D01*
D01*
D01*
X54267Y45463D01*
D01*
X54343D01*
D01*
X54555Y45375D01*
X54571Y45382D01*
X54571Y45382D01*
X54571Y45382D01*
X54767Y45463D01*
X54767D01*
D01*
X54843D01*
D01*
X55055Y45375D01*
D01*
D01*
D01*
D01*
X55267Y45463D01*
D01*
X55343D01*
D01*
X55555Y45375D01*
D01*
D01*
D01*
D01*
X55767Y45463D01*
D01*
X55843D01*
X55843Y45463D01*
Y45463D01*
X56039Y45382D01*
X56039Y45382D01*
X56039Y45382D01*
X56055Y45375D01*
X56267Y45463D01*
D01*
X56343D01*
D01*
X56555Y45375D01*
D01*
D01*
D01*
D01*
X56767Y45463D01*
D01*
X56843D01*
D01*
X57055Y45375D01*
X57071Y45382D01*
X57071Y45382D01*
X57071Y45382D01*
X57267Y45463D01*
X57267D01*
D01*
X57343D01*
D01*
X57555Y45375D01*
D01*
D01*
D01*
D01*
X57767Y45463D01*
D01*
X57843D01*
D01*
X58055Y45375D01*
D01*
D01*
D01*
D01*
X58267Y45463D01*
D01*
X58343D01*
X58343Y45463D01*
Y45463D01*
X58555Y45375D01*
X58639Y45410D01*
X58746Y45366D01*
X58746Y45366D01*
X58746Y45366D01*
X59005Y45259D01*
X59102Y45024D01*
X59005Y44790D01*
X59166Y44401D01*
X59345Y44327D01*
X59296Y44078D01*
X59020D01*
X59020Y44078D01*
X58883Y44021D01*
X58826Y43997D01*
X58826Y43997D01*
X57943Y43115D01*
X57694Y43164D01*
X57567Y43470D01*
X56896Y43748D01*
X56225Y43470D01*
X55947Y42799D01*
X56225Y42128D01*
X56896Y41850D01*
X57567Y42128D01*
X57731Y42524D01*
X58016D01*
X58016Y42524D01*
X58211Y42605D01*
X58449Y42557D01*
X58668Y42031D01*
X59309Y41765D01*
Y42799D01*
X59436D01*
Y42926D01*
X60470D01*
X60308Y43317D01*
X60449Y43528D01*
X61100D01*
X61241Y43317D01*
X61027Y42799D01*
X61305Y42128D01*
X61703Y41963D01*
X61754Y41912D01*
X61657Y41677D01*
X60579D01*
X60579Y41677D01*
X60482Y41637D01*
X60385Y41596D01*
X60385Y41596D01*
X59832Y41044D01*
X59436Y41208D01*
X58765Y40930D01*
X58487Y40259D01*
X58765Y39588D01*
X59436Y39310D01*
X60107Y39588D01*
X60385Y40259D01*
X60221Y40655D01*
X60693Y41127D01*
X61020D01*
X61161Y40916D01*
X60942Y40386D01*
X63010D01*
X62744Y41027D01*
X62512Y41124D01*
X62463Y41373D01*
X63174Y42085D01*
X63255Y42279D01*
X63255Y42279D01*
Y43562D01*
X64583Y44891D01*
X64583Y44891D01*
X64590Y44906D01*
X64749Y45066D01*
X64749Y45066D01*
X64773Y45123D01*
X64830Y45260D01*
Y45260D01*
X64841Y45286D01*
X65055Y45375D01*
D01*
X65151Y45415D01*
X65363Y45276D01*
X65384Y44056D01*
X64912Y43584D01*
X64516Y43748D01*
X63845Y43470D01*
X63567Y42799D01*
X63845Y42128D01*
X64516Y41850D01*
X65187Y42128D01*
X65465Y42799D01*
X65301Y43195D01*
X65853Y43748D01*
X65853Y43748D01*
X65894Y43845D01*
X65934Y43942D01*
X65934Y43942D01*
Y47363D01*
D01*
X65934Y47363D01*
X65934D01*
X66356Y47538D01*
X66478D01*
Y47975D01*
X66732D01*
Y47538D01*
X67355D01*
X67564Y47624D01*
X67775Y47483D01*
Y45486D01*
X67661Y45439D01*
X67500Y45050D01*
X67661Y44661D01*
X68050Y44500D01*
X68439Y44661D01*
X68600Y45050D01*
X68439Y45439D01*
X68325Y45486D01*
Y48200D01*
X68715D01*
Y47759D01*
X68715D01*
Y47667D01*
X68588Y47540D01*
X68588D01*
Y46863D01*
X70096D01*
Y47540D01*
X69969D01*
Y47759D01*
X69969D01*
Y48200D01*
X70493D01*
Y47759D01*
X70493D01*
Y47667D01*
X70366Y47540D01*
X70366D01*
Y46863D01*
X71874D01*
Y47540D01*
X71747D01*
Y47759D01*
X71747D01*
Y48834D01*
X71982Y48932D01*
X72400Y48513D01*
Y43579D01*
X70774Y41952D01*
X70521Y41977D01*
X70411Y42142D01*
X70630Y42672D01*
X68562D01*
X68781Y42142D01*
X68640Y41931D01*
X68453D01*
X68259Y41850D01*
X68259Y41850D01*
X67452Y41044D01*
X67056Y41208D01*
X66385Y40930D01*
X66107Y40259D01*
X66385Y39588D01*
X67056Y39310D01*
X67727Y39588D01*
X68005Y40259D01*
X67841Y40655D01*
X68567Y41381D01*
X69030D01*
X69080Y41132D01*
X68828Y41027D01*
X68562Y40386D01*
X70630D01*
X70364Y41027D01*
X70112Y41132D01*
X70162Y41381D01*
X70866D01*
X70866Y41381D01*
X71060Y41462D01*
X72765Y43167D01*
X73000Y43069D01*
Y41279D01*
X73000Y41279D01*
X73081Y41085D01*
X73631Y40534D01*
X73476Y40160D01*
X73754Y39489D01*
X74425Y39211D01*
X75096Y39489D01*
X75374Y40160D01*
X75096Y40831D01*
X74425Y41109D01*
X74007Y40936D01*
X73550Y41393D01*
Y41885D01*
X73761Y42026D01*
X74425Y41751D01*
X75096Y42029D01*
X75374Y42700D01*
X75096Y43371D01*
X74425Y43649D01*
X73761Y43374D01*
X73550Y43515D01*
Y44425D01*
X73761Y44566D01*
X74425Y44291D01*
X75096Y44569D01*
X75374Y45240D01*
X75096Y45911D01*
X74425Y46189D01*
X73761Y45914D01*
X73550Y46055D01*
Y46965D01*
X73761Y47106D01*
X74425Y46831D01*
X75096Y47109D01*
X75374Y47780D01*
X75096Y48451D01*
X74425Y48729D01*
X73761Y48454D01*
X73550Y48595D01*
Y49505D01*
X73761Y49646D01*
X74425Y49371D01*
X75096Y49649D01*
X75374Y50320D01*
X75096Y50991D01*
X74634Y51183D01*
X74616Y51226D01*
X74616Y51226D01*
X74042Y51800D01*
X74183Y52011D01*
X74425Y51911D01*
X75096Y52189D01*
X75374Y52860D01*
X75096Y53531D01*
X74425Y53809D01*
X74007Y53636D01*
X73173Y54470D01*
Y55900D01*
X73408Y55998D01*
X73631Y55774D01*
X73476Y55400D01*
X73754Y54729D01*
X74425Y54451D01*
X75096Y54729D01*
X75374Y55400D01*
X75096Y56071D01*
X74425Y56349D01*
X74007Y56176D01*
X73681Y56502D01*
Y57070D01*
X73892Y57211D01*
X74425Y56991D01*
X75096Y57269D01*
X75374Y57940D01*
X75096Y58611D01*
X74697Y58777D01*
Y58853D01*
X74697Y58853D01*
X74697Y58853D01*
X74640Y58990D01*
X74616Y59047D01*
X74616Y59047D01*
X74380Y59284D01*
X74430Y59533D01*
X75096Y59809D01*
X75374Y60480D01*
X75096Y61151D01*
X74499Y61398D01*
X73865Y62033D01*
X74006Y62244D01*
X74425Y62071D01*
X75096Y62349D01*
X75374Y63020D01*
X75096Y63691D01*
X74425Y63969D01*
X74007Y63796D01*
X73600Y64202D01*
X73406Y64283D01*
X73406Y64283D01*
X63881D01*
X63881Y64283D01*
X63784Y64243D01*
X63687Y64202D01*
X63687Y64202D01*
X63361Y63876D01*
X63280Y63682D01*
X63280Y63682D01*
Y62710D01*
X63069Y62569D01*
X63055Y62575D01*
D01*
D01*
D01*
D01*
X62843Y62487D01*
D01*
X62767D01*
D01*
X62555Y62575D01*
D01*
D01*
D01*
D01*
X62343Y62487D01*
D01*
X62267D01*
X62267Y62487D01*
Y62487D01*
X62071Y62568D01*
X62071Y62568D01*
X62071Y62568D01*
X62055Y62575D01*
X61843Y62487D01*
D01*
X61767D01*
D01*
X61555Y62575D01*
D01*
D01*
D01*
D01*
X61541Y62569D01*
X61330Y62710D01*
Y63091D01*
X63789Y65550D01*
X68265D01*
X68265Y65550D01*
X68459Y65631D01*
X69819Y66990D01*
X70215Y66826D01*
X70886Y67104D01*
X71164Y67775D01*
X70886Y68446D01*
X70215Y68724D01*
D02*
G37*
G36*
X36639Y67056D02*
X35306D01*
Y65724D01*
X36248Y66114D01*
X36639Y67056D01*
D02*
G37*
G36*
X29972Y68643D02*
X29030Y68252D01*
X28639Y67310D01*
X29972D01*
Y68643D01*
D02*
G37*
G36*
X35306D02*
Y67310D01*
X36639D01*
X36248Y68252D01*
X35306Y68643D01*
D02*
G37*
G36*
X35052D02*
X34110Y68252D01*
X33720Y67310D01*
X35052D01*
Y68643D01*
D02*
G37*
G36*
X30226D02*
Y67310D01*
X31559D01*
X31168Y68252D01*
X30226Y68643D01*
D02*
G37*
G36*
X74298Y66594D02*
X73657Y66328D01*
X73391Y65687D01*
X74298D01*
Y66594D01*
D02*
G37*
G36*
X75459Y65433D02*
X74552D01*
Y64526D01*
X75193Y64792D01*
X75459Y65433D01*
D02*
G37*
G36*
X74298D02*
X73391D01*
X73657Y64792D01*
X74298Y64526D01*
Y65433D01*
D02*
G37*
G36*
X74552Y66594D02*
Y65687D01*
X75459D01*
X75193Y66328D01*
X74552Y66594D01*
D02*
G37*
G36*
X35052Y67056D02*
X33720D01*
X34110Y66114D01*
X35052Y65724D01*
Y67056D01*
D02*
G37*
G36*
X31559D02*
X30226D01*
Y65724D01*
X31168Y66114D01*
X31559Y67056D01*
D02*
G37*
G36*
X29972D02*
X28639D01*
X29030Y66114D01*
X29972Y65724D01*
Y67056D01*
D02*
G37*
G36*
X47744Y56557D02*
X47117D01*
Y55880D01*
X47744D01*
Y56557D01*
D02*
G37*
G36*
X46863D02*
X46236D01*
Y55880D01*
X46863D01*
Y56557D01*
D02*
G37*
G36*
X44619Y55872D02*
X43942D01*
Y55245D01*
X44619D01*
Y55872D01*
D02*
G37*
G36*
X47198Y58323D02*
X46521D01*
Y57696D01*
X47198D01*
Y58323D01*
D02*
G37*
G36*
X44619Y56896D02*
X43942D01*
Y56269D01*
X44619D01*
Y56896D01*
D02*
G37*
G36*
X48895Y56557D02*
X48268D01*
Y55880D01*
X48895D01*
Y56557D01*
D02*
G37*
G36*
X44619Y54991D02*
X43942D01*
Y54364D01*
X44619D01*
Y54991D01*
D02*
G37*
G36*
X39479Y53548D02*
X38952D01*
Y52674D01*
X39287Y52813D01*
X39479Y53275D01*
Y53548D01*
D02*
G37*
G36*
X38698D02*
X38171D01*
Y53275D01*
X38363Y52813D01*
X38698Y52674D01*
Y53548D01*
D02*
G37*
G36*
X32029Y51854D02*
X31152D01*
Y50977D01*
X32029D01*
Y51854D01*
D02*
G37*
G36*
X38952Y54676D02*
Y53802D01*
X39479D01*
Y54075D01*
X39287Y54537D01*
X38952Y54676D01*
D02*
G37*
G36*
X38698D02*
X38363Y54537D01*
X38171Y54075D01*
Y53802D01*
X38698D01*
Y54676D01*
D02*
G37*
G36*
X32325Y60199D02*
X31654Y59921D01*
X31376Y59250D01*
X31654Y58579D01*
X32050Y58415D01*
Y57227D01*
X30777D01*
Y55473D01*
X31900D01*
Y54825D01*
X31900Y54825D01*
X31981Y54630D01*
X33131Y53481D01*
X33131Y53481D01*
X33320Y53402D01*
Y53400D01*
X33320D01*
Y53150D01*
X33320D01*
Y53148D01*
X32936Y52989D01*
X32775Y52600D01*
X32936Y52211D01*
X33050Y52164D01*
Y51727D01*
X32448D01*
Y49973D01*
X34202D01*
Y51727D01*
X33600D01*
Y52164D01*
X33714Y52211D01*
X33875Y52600D01*
X33714Y52989D01*
X33325Y53150D01*
D01*
Y53220D01*
X33505Y53400D01*
X36409D01*
Y53275D01*
X36560Y52910D01*
X36925Y52759D01*
X37290Y52910D01*
X37441Y53275D01*
Y54075D01*
X37290Y54440D01*
X36925Y54591D01*
X36560Y54440D01*
X36409Y54075D01*
Y53950D01*
X33439D01*
X32450Y54939D01*
Y55473D01*
X33573D01*
Y57227D01*
X32600D01*
Y58415D01*
X32996Y58579D01*
X33274Y59250D01*
X32996Y59921D01*
X32325Y60199D01*
D02*
G37*
G36*
X66478Y60412D02*
X65855D01*
X65546Y60284D01*
X65470Y60102D01*
X66478D01*
Y60412D01*
D02*
G37*
G36*
X52255D02*
X51632D01*
Y60102D01*
X52640D01*
X52564Y60284D01*
X52255Y60412D01*
D02*
G37*
G36*
X51378D02*
X50755D01*
X50446Y60284D01*
X50370Y60102D01*
X51378D01*
Y60412D01*
D02*
G37*
G36*
X31559Y61976D02*
X30226D01*
Y60644D01*
X31168Y61034D01*
X31559Y61976D01*
D02*
G37*
G36*
X29972D02*
X28639D01*
X29030Y61034D01*
X29972Y60644D01*
Y61976D01*
D02*
G37*
G36*
X67355Y60412D02*
X66732D01*
Y60102D01*
X67740D01*
X67664Y60284D01*
X67355Y60412D01*
D02*
G37*
G36*
X41140Y63669D02*
X39886D01*
Y62315D01*
X40238D01*
Y60946D01*
X39870D01*
Y60423D01*
X39743D01*
Y60071D01*
X41401D01*
Y60423D01*
X41274D01*
Y60946D01*
X40788D01*
Y62315D01*
X41140D01*
Y63669D01*
D02*
G37*
G36*
X35025Y60199D02*
X34354Y59921D01*
X34076Y59250D01*
X34354Y58579D01*
X35025Y58301D01*
X35696Y58579D01*
X35879Y59019D01*
X36504D01*
X36645Y58808D01*
X36600Y58700D01*
X36600Y58700D01*
Y56857D01*
X36560Y56840D01*
X36409Y56475D01*
Y55675D01*
X36560Y55310D01*
X36925Y55159D01*
X37290Y55310D01*
X37290Y55310D01*
X37510D01*
Y55310D01*
X37875Y55159D01*
X37970Y55198D01*
X38348Y55198D01*
Y55198D01*
X39302D01*
Y56952D01*
X39100D01*
Y57261D01*
X39434Y57596D01*
X39725Y57475D01*
X40114Y57636D01*
X40275Y58025D01*
X40114Y58414D01*
X39725Y58575D01*
X39336Y58414D01*
X39238Y58177D01*
X38631Y57569D01*
X38550Y57375D01*
X38550Y57375D01*
Y56952D01*
X38348Y56952D01*
Y56952D01*
D01*
D01*
D01*
X38330D01*
X38150Y57132D01*
Y57614D01*
X38264Y57661D01*
X38425Y58050D01*
X38264Y58439D01*
X37875Y58600D01*
X37486Y58439D01*
X37399Y58228D01*
X37150Y58278D01*
Y58586D01*
X37506Y58942D01*
X37720Y58942D01*
Y58942D01*
X39124D01*
Y59465D01*
X39251D01*
Y59817D01*
X37593D01*
Y59817D01*
X37469Y59569D01*
X37469Y59569D01*
Y59569D01*
D01*
X35842D01*
X35696Y59921D01*
X35025Y60199D01*
D02*
G37*
G36*
X47198Y59204D02*
X46521D01*
Y58577D01*
X47198D01*
Y59204D01*
D02*
G37*
G36*
X36639Y61976D02*
X35306D01*
Y60644D01*
X36047Y60950D01*
X36226Y60771D01*
X36153Y60594D01*
X36314Y60205D01*
X36703Y60044D01*
X37092Y60205D01*
X37139Y60319D01*
X37593D01*
Y60071D01*
X39251D01*
Y60423D01*
X39124D01*
Y60946D01*
X37720D01*
Y60869D01*
X37139D01*
X37092Y60983D01*
X36703Y61144D01*
X36516Y61066D01*
X36336Y61246D01*
X36639Y61976D01*
D02*
G37*
G36*
X49702Y61052D02*
X48348D01*
Y59798D01*
X48750D01*
Y59077D01*
X48348D01*
Y59077D01*
X48256D01*
X48129Y59204D01*
Y59204D01*
X47452D01*
Y58450D01*
Y57696D01*
X48129D01*
Y57823D01*
X48348D01*
Y57823D01*
X49263D01*
X49775Y57311D01*
Y56557D01*
X49149D01*
Y55753D01*
X49022D01*
Y55626D01*
X48268D01*
Y54949D01*
X48395D01*
Y54730D01*
X48395D01*
Y54328D01*
X47617D01*
Y54730D01*
X47617D01*
Y54822D01*
X47744Y54949D01*
X47744D01*
Y55626D01*
X46236D01*
Y54949D01*
X46363D01*
Y54730D01*
X46363D01*
Y53376D01*
D01*
Y53376D01*
X46216Y53229D01*
X45441D01*
Y53631D01*
X43487D01*
Y52352D01*
X43352Y52296D01*
X43141Y52437D01*
Y53631D01*
X42439D01*
Y54491D01*
X42792D01*
Y54491D01*
X42884D01*
X43011Y54364D01*
Y54364D01*
X43688D01*
Y55118D01*
Y55872D01*
X43011D01*
Y55745D01*
X42792D01*
Y55745D01*
X42439D01*
Y56396D01*
X42792D01*
Y56396D01*
X42884D01*
X43011Y56269D01*
Y56269D01*
X43688D01*
Y57023D01*
X43815D01*
Y57150D01*
X44619D01*
Y57348D01*
X44830Y57489D01*
X44831Y57489D01*
X45220Y57650D01*
X45381Y58039D01*
X45243Y58372D01*
X45384Y58583D01*
X45458D01*
Y59937D01*
X45458D01*
Y60029D01*
X45585Y60156D01*
X45585D01*
Y60833D01*
X44077D01*
Y60156D01*
X44204D01*
Y59937D01*
X44204D01*
Y59569D01*
X43299D01*
Y59937D01*
X43299D01*
Y60029D01*
X43426Y60156D01*
X43426D01*
Y60833D01*
X41918D01*
Y60156D01*
X42045D01*
Y59937D01*
X42045D01*
Y59569D01*
X41401D01*
Y59817D01*
X39743D01*
Y59465D01*
X39870D01*
Y58942D01*
X41274D01*
Y59019D01*
X42045D01*
Y58583D01*
X42397D01*
Y57723D01*
X42324Y57650D01*
X41438D01*
Y56396D01*
X41889D01*
Y55745D01*
X41438D01*
Y54491D01*
X41889D01*
Y53631D01*
X41187D01*
Y53229D01*
X40904D01*
X40904Y53229D01*
X40767Y53172D01*
X40710Y53148D01*
X40710Y53148D01*
X39589Y52028D01*
X39475Y52075D01*
X39086Y51914D01*
X38925Y51525D01*
X39086Y51136D01*
X39475Y50975D01*
X39864Y51136D01*
X40025Y51525D01*
X39978Y51639D01*
X40952Y52614D01*
X41187Y52516D01*
Y52277D01*
X42452D01*
X42764Y51966D01*
X42666Y51731D01*
X41187D01*
Y50377D01*
X43141D01*
Y50377D01*
X43233D01*
X43360Y50250D01*
Y50250D01*
X44337D01*
Y51054D01*
X44464D01*
Y51181D01*
X45568D01*
Y51501D01*
X45803Y51599D01*
X46112Y51290D01*
X46112Y51290D01*
X46209Y51249D01*
X46306Y51209D01*
X46306Y51209D01*
Y51209D01*
X46363Y51095D01*
Y50807D01*
X46363D01*
Y50715D01*
X46236Y50588D01*
X46236D01*
Y49911D01*
X47744D01*
Y50588D01*
X47617D01*
Y50807D01*
X47617D01*
Y51200D01*
X48395D01*
Y50807D01*
X48395D01*
Y50715D01*
X48268Y50588D01*
X48268D01*
Y49911D01*
X49776D01*
Y50588D01*
X49649D01*
Y50807D01*
X49649D01*
Y51200D01*
X50320D01*
X50461Y50989D01*
X50455Y50975D01*
X50462Y50959D01*
X50462Y50959D01*
X50462D01*
X50543Y50763D01*
Y50763D01*
D01*
Y50687D01*
D01*
X50455Y50475D01*
D01*
D01*
D01*
D01*
X50543Y50263D01*
D01*
Y50187D01*
D01*
X50455Y49975D01*
D01*
D01*
D01*
D01*
X50543Y49763D01*
D01*
Y49687D01*
D01*
X50455Y49475D01*
D01*
D01*
D01*
D01*
X50543Y49263D01*
D01*
Y49187D01*
X50543Y49187D01*
X50543D01*
X50462Y48991D01*
X50462Y48991D01*
X50462Y48991D01*
X50455Y48975D01*
X50543Y48763D01*
D01*
Y48687D01*
D01*
X50455Y48475D01*
X50462Y48459D01*
X50462Y48459D01*
X50462D01*
X50490Y48391D01*
X50446Y48284D01*
X50446Y48284D01*
X50446Y48284D01*
X50370Y48102D01*
X52762D01*
X52828Y48200D01*
X53324D01*
X53371Y48086D01*
X53760Y47925D01*
X54149Y48086D01*
X54310Y48475D01*
X54149Y48864D01*
X53760Y49025D01*
X53371Y48864D01*
X53324Y48750D01*
X52690D01*
X52549Y48961D01*
X52555Y48975D01*
X52548Y48991D01*
X52548Y48991D01*
X52548D01*
X52467Y49187D01*
Y49187D01*
D01*
Y49263D01*
D01*
X52555Y49475D01*
D01*
D01*
D01*
D01*
X52467Y49687D01*
X52467Y49687D01*
X52555Y49975D01*
Y49975D01*
X52467Y50187D01*
X52467Y50187D01*
X52555Y50475D01*
Y50475D01*
X52467Y50687D01*
X52467Y50687D01*
X52548Y50959D01*
X52548Y50959D01*
X52548Y50959D01*
X52555Y50975D01*
X52467Y51187D01*
X52467Y51187D01*
X52555Y51475D01*
D01*
X52690Y51700D01*
X52690Y51700D01*
X53399D01*
X53459Y51554D01*
X53848Y51393D01*
X54237Y51554D01*
X54398Y51943D01*
X54237Y52332D01*
X53848Y52493D01*
X53459Y52332D01*
X53425Y52250D01*
X52690D01*
X52549Y52461D01*
X52555Y52475D01*
X52467Y52687D01*
X52467Y52687D01*
X52555Y52975D01*
Y52975D01*
X52549Y52989D01*
X52690Y53200D01*
X53155D01*
X53205Y53078D01*
X53594Y52917D01*
X53983Y53078D01*
X54144Y53467D01*
X53983Y53856D01*
X53594Y54017D01*
X53205Y53856D01*
X53161Y53750D01*
X52690D01*
X52549Y53961D01*
X52555Y53975D01*
X52548Y53991D01*
Y53991D01*
X52548D01*
X52520Y54059D01*
X52564Y54166D01*
X52564Y54166D01*
X52564Y54166D01*
X52640Y54348D01*
X51505D01*
Y54602D01*
X52640D01*
X52564Y54784D01*
X52564Y54784D01*
X52564D01*
X52520Y54891D01*
X52548Y54959D01*
D01*
X52548D01*
X52548Y54959D01*
D01*
D01*
Y54959D01*
X52555Y54975D01*
X52536Y55021D01*
X52536Y55021D01*
X52467Y55187D01*
X52467D01*
X52555Y55475D01*
Y55475D01*
X52548Y55491D01*
X52548Y55491D01*
X52548D01*
X52520Y55559D01*
X52564Y55666D01*
X52564Y55666D01*
X52564Y55666D01*
X52640Y55848D01*
X51505D01*
Y56102D01*
X52640D01*
X52564Y56284D01*
X52564Y56284D01*
X52564D01*
X52520Y56391D01*
X52555Y56475D01*
X52467Y56687D01*
Y56687D01*
D01*
Y56763D01*
D01*
X52555Y56975D01*
X52548Y56991D01*
X52548Y56991D01*
X52548Y56991D01*
X52467Y57187D01*
Y57187D01*
D01*
Y57263D01*
D01*
X52555Y57475D01*
D01*
D01*
D01*
D01*
X52467Y57687D01*
X52467Y57687D01*
X52555Y57975D01*
Y57975D01*
X52467Y58187D01*
X52467Y58187D01*
X52548Y58459D01*
X52548Y58459D01*
X52548Y58459D01*
X52555Y58475D01*
X52467Y58687D01*
X52467Y58687D01*
X52555Y58975D01*
Y58975D01*
X52467Y59187D01*
X52467Y59187D01*
X52555Y59475D01*
Y59475D01*
X52548Y59491D01*
X52548Y59491D01*
X52548D01*
X52520Y59559D01*
X52564Y59666D01*
X52564Y59666D01*
X52564Y59666D01*
X52640Y59848D01*
X50370D01*
X50446Y59666D01*
X50446Y59666D01*
X50446D01*
X50490Y59559D01*
X50462Y59491D01*
X50462Y59491D01*
X50462Y59491D01*
X50455Y59475D01*
X50543Y59263D01*
D01*
Y59187D01*
D01*
X50455Y58975D01*
D01*
D01*
D01*
D01*
X50543Y58763D01*
D01*
Y58687D01*
D01*
X50455Y58475D01*
X50462Y58459D01*
X50462Y58459D01*
X50462Y58459D01*
X50543Y58263D01*
Y58263D01*
D01*
Y58187D01*
D01*
X50455Y57975D01*
D01*
D01*
D01*
D01*
X50523Y57811D01*
X50382Y57599D01*
X50253D01*
X50244Y57619D01*
X49702Y58162D01*
Y59077D01*
X49300D01*
Y59798D01*
X49702D01*
Y61052D01*
D02*
G37*
%LPD*%
G36*
X50455Y52475D02*
D01*
X50543Y52263D01*
D01*
Y52187D01*
X50543Y52187D01*
X50543D01*
X50462Y51991D01*
X50462D01*
Y51991D01*
X50455Y51975D01*
X50461Y51961D01*
X50320Y51750D01*
X49649D01*
Y52161D01*
X48395D01*
Y51750D01*
X47617D01*
Y52161D01*
X46363D01*
Y52148D01*
X46128Y52050D01*
X46041Y52137D01*
X45847Y52218D01*
X45847Y52218D01*
X45441D01*
Y52277D01*
X45441D01*
Y52679D01*
X50319D01*
X50455Y52475D01*
D02*
G37*
G36*
X61856Y67268D02*
X61924Y67104D01*
X62431Y66894D01*
X62481Y66645D01*
X59861Y64024D01*
X59780Y63830D01*
X59780Y63830D01*
X59780D01*
X59561Y63911D01*
X59561Y63911D01*
X59561Y63911D01*
X59202Y64060D01*
Y63425D01*
X58948D01*
Y64060D01*
X58589Y63911D01*
X58579Y63887D01*
X58507Y63901D01*
X58433Y64144D01*
X61607Y67318D01*
X61856Y67268D01*
D02*
G37*
G36*
X68894Y53273D02*
X68948Y53250D01*
X68898Y53001D01*
X68588D01*
Y52324D01*
X69342D01*
Y52070D01*
X68588D01*
Y51393D01*
X68715D01*
Y51174D01*
X68715D01*
Y50750D01*
X67790D01*
X67649Y50961D01*
X67655Y50975D01*
X67567Y51187D01*
X67567Y51187D01*
X67655Y51475D01*
Y51475D01*
X67567Y51687D01*
X67567Y51687D01*
X67655Y51975D01*
Y51975D01*
X67648Y51991D01*
X67648Y51991D01*
X67648Y51991D01*
X67567Y52187D01*
Y52187D01*
D01*
Y52263D01*
D01*
X67655Y52475D01*
D01*
D01*
D01*
D01*
X67567Y52687D01*
X67567Y52687D01*
X67655Y52975D01*
Y52975D01*
X67567Y53187D01*
X67567Y53187D01*
X67648Y53459D01*
X67648Y53459D01*
X67648Y53459D01*
X67655Y53475D01*
X67567Y53687D01*
X67567Y53687D01*
X67655Y53975D01*
Y53975D01*
X67605Y54095D01*
X67694Y54261D01*
X67827Y54339D01*
X68894Y53273D01*
D02*
G37*
G36*
X62343Y45463D02*
X62555Y45375D01*
X62571Y45382D01*
X62571D01*
Y45382D01*
X62607Y45397D01*
X62748Y45185D01*
X61640Y44078D01*
X59814D01*
X59765Y44327D01*
X59944Y44401D01*
X60105Y44790D01*
X59959Y45141D01*
X60057Y45376D01*
X60267Y45463D01*
D01*
X60343D01*
D01*
X60555Y45375D01*
D01*
D01*
D01*
D01*
X60767Y45463D01*
D01*
X60843D01*
X60843Y45463D01*
Y45463D01*
X61039Y45382D01*
X61039Y45382D01*
X61039Y45382D01*
X61055Y45375D01*
X61267Y45463D01*
D01*
X61343D01*
D01*
X61555Y45375D01*
D01*
D01*
D01*
D01*
X61767Y45463D01*
D01*
X61843D01*
D01*
X62055Y45375D01*
X62071Y45382D01*
X62071Y45382D01*
X62071Y45382D01*
X62267Y45463D01*
X62267D01*
D01*
X62343D01*
D01*
D02*
G37*
G36*
X65561Y58989D02*
X65555Y58975D01*
D01*
D01*
X65643Y58763D01*
D01*
Y58687D01*
D01*
X65555Y58475D01*
X65562Y58459D01*
X65562Y58459D01*
X65562Y58459D01*
X65643Y58263D01*
Y58263D01*
D01*
Y58187D01*
D01*
X65555Y57975D01*
D01*
D01*
D01*
D01*
X65561Y57961D01*
X65420Y57750D01*
X64975D01*
X64905Y57920D01*
X64516Y58081D01*
X64127Y57920D01*
X63966Y57531D01*
X64127Y57142D01*
D01*
Y57142D01*
Y57142D01*
D01*
X64127Y56904D01*
X64127D01*
X63966Y56515D01*
X64127Y56126D01*
X64434Y55999D01*
X64385Y55750D01*
X64146D01*
X63241Y56655D01*
X63288Y56769D01*
X63127Y57158D01*
X63013Y57205D01*
Y57544D01*
X64402Y58933D01*
X64516Y58886D01*
X64905Y59047D01*
X64968Y59200D01*
X65420D01*
X65561Y58989D01*
D02*
G37*
D10*
X45250Y39300D02*
D03*
Y41200D02*
D03*
X42850Y39300D02*
D03*
Y40250D02*
D03*
X45225Y45150D02*
D03*
Y47050D02*
D03*
X42825Y45150D02*
D03*
Y46100D02*
D03*
D11*
X42850Y41200D02*
D03*
X42825Y47050D02*
D03*
D12*
X51505Y59975D02*
D03*
Y59475D02*
D03*
Y58975D02*
D03*
Y58475D02*
D03*
Y57975D02*
D03*
Y57475D02*
D03*
Y56975D02*
D03*
Y56475D02*
D03*
Y55975D02*
D03*
Y55475D02*
D03*
Y54975D02*
D03*
Y54475D02*
D03*
Y53975D02*
D03*
Y53475D02*
D03*
Y52975D02*
D03*
Y52475D02*
D03*
Y51975D02*
D03*
Y51475D02*
D03*
Y50975D02*
D03*
Y50475D02*
D03*
Y49975D02*
D03*
Y49475D02*
D03*
Y48975D02*
D03*
Y48475D02*
D03*
Y47975D02*
D03*
X66605D02*
D03*
Y48475D02*
D03*
Y48975D02*
D03*
Y49475D02*
D03*
Y49975D02*
D03*
Y50475D02*
D03*
Y50975D02*
D03*
Y51475D02*
D03*
Y51975D02*
D03*
Y52475D02*
D03*
Y52975D02*
D03*
Y53475D02*
D03*
Y53975D02*
D03*
Y54475D02*
D03*
Y54975D02*
D03*
Y55475D02*
D03*
Y55975D02*
D03*
Y56475D02*
D03*
Y56975D02*
D03*
Y57475D02*
D03*
Y57975D02*
D03*
Y58475D02*
D03*
Y58975D02*
D03*
Y59475D02*
D03*
Y59975D02*
D03*
D13*
X53055Y46425D02*
D03*
X53555D02*
D03*
X54055D02*
D03*
X54555D02*
D03*
X55055D02*
D03*
X55555D02*
D03*
X56055D02*
D03*
X56555D02*
D03*
X57055D02*
D03*
X57555D02*
D03*
X58055D02*
D03*
X58555D02*
D03*
X59055D02*
D03*
X59555D02*
D03*
X60055D02*
D03*
X60555D02*
D03*
X61055D02*
D03*
X61555D02*
D03*
X62055D02*
D03*
X62555D02*
D03*
X63055D02*
D03*
X63555D02*
D03*
X64055D02*
D03*
X64555D02*
D03*
X65055D02*
D03*
Y61525D02*
D03*
X64555D02*
D03*
X64055D02*
D03*
X63555D02*
D03*
X63055D02*
D03*
X62555D02*
D03*
X62055D02*
D03*
X61555D02*
D03*
X61055D02*
D03*
X60555D02*
D03*
X60055D02*
D03*
X59555D02*
D03*
X59055D02*
D03*
X58555D02*
D03*
X58055D02*
D03*
X57555D02*
D03*
X57055D02*
D03*
X56555D02*
D03*
X56055D02*
D03*
X55555D02*
D03*
X55055D02*
D03*
X54555D02*
D03*
X54055D02*
D03*
X53555D02*
D03*
X53055D02*
D03*
D14*
X36925Y53675D02*
D03*
X38825D02*
D03*
X36925Y56075D02*
D03*
X37875D02*
D03*
D15*
X38825D02*
D03*
D16*
X39275Y44400D02*
D03*
X38625D02*
D03*
X37975D02*
D03*
X37325D02*
D03*
X39275Y40400D02*
D03*
X38625D02*
D03*
X37975D02*
D03*
X37325D02*
D03*
D17*
X44831Y59260D02*
D03*
Y60960D02*
D03*
X42672Y59260D02*
D03*
Y60960D02*
D03*
X46990Y51484D02*
D03*
Y49784D02*
D03*
X49022Y51484D02*
D03*
Y49784D02*
D03*
X38227Y64692D02*
D03*
Y62992D02*
D03*
X40513Y64692D02*
D03*
Y62992D02*
D03*
X69342Y48436D02*
D03*
Y46736D02*
D03*
X71120Y48436D02*
D03*
Y46736D02*
D03*
X46990Y54053D02*
D03*
Y55753D02*
D03*
X49022Y54053D02*
D03*
Y55753D02*
D03*
X69469Y56437D02*
D03*
Y54737D02*
D03*
X71374Y56437D02*
D03*
Y54737D02*
D03*
X69342Y59514D02*
D03*
Y61214D02*
D03*
X71374Y59514D02*
D03*
Y61214D02*
D03*
X69342Y50497D02*
D03*
Y52197D02*
D03*
X71120Y50497D02*
D03*
Y52197D02*
D03*
D18*
X32175Y56350D02*
D03*
D19*
X31025Y50850D02*
D03*
X33325D02*
D03*
X42275Y67775D02*
D03*
X49325Y40600D02*
D03*
X56896Y40259D02*
D03*
D20*
X38422Y60594D02*
D03*
Y59944D02*
D03*
Y59294D02*
D03*
X40572D02*
D03*
Y59944D02*
D03*
Y60594D02*
D03*
D21*
X44464Y52954D02*
D03*
X42164D02*
D03*
X44464Y51054D02*
D03*
X42164D02*
D03*
D22*
X42115Y55118D02*
D03*
X43815D02*
D03*
X42115Y57023D02*
D03*
X43815D02*
D03*
X49025Y58450D02*
D03*
X47325D02*
D03*
Y60425D02*
D03*
X49025D02*
D03*
D23*
X59055Y63405D02*
X59075Y63425D01*
X59055Y61525D02*
Y63405D01*
X61675Y67775D02*
X62595D01*
X58055Y64155D02*
X61675Y67775D01*
X58055Y61525D02*
Y64155D01*
X74422Y60452D02*
Y61087D01*
X71882Y63627D02*
X74422Y61087D01*
Y57912D02*
Y58853D01*
X73037Y60238D02*
X74422Y58853D01*
X73037Y60238D02*
Y61710D01*
X73406Y56388D02*
Y59128D01*
X72656Y59878D02*
X73406Y59128D01*
X72656Y59878D02*
Y61341D01*
X74422Y50292D02*
Y51031D01*
X72517Y52936D02*
X74422Y51031D01*
X73275Y41279D02*
X74422Y40132D01*
X73275Y41279D02*
Y51566D01*
X68265Y65825D02*
X70215Y67775D01*
X63675Y65825D02*
X68265D01*
X61055Y63205D02*
X63675Y65825D01*
X61055Y61525D02*
Y63205D01*
X66200Y66300D02*
X67675Y67775D01*
X63350Y66300D02*
X66200D01*
X60555Y63505D02*
X63350Y66300D01*
X60555Y61525D02*
Y63505D01*
X64015Y67775D02*
X65135D01*
X63011Y66771D02*
X64015Y67775D01*
X62996Y66771D02*
X63011D01*
X60055Y63830D02*
X62996Y66771D01*
X60055Y61525D02*
Y63830D01*
X57555Y65275D02*
X60055Y67775D01*
X57555Y61525D02*
Y65275D01*
X57515Y66505D02*
Y67775D01*
X57055Y66045D02*
X57515Y66505D01*
X57055Y61525D02*
Y66045D01*
X54975Y64875D02*
Y67775D01*
Y64875D02*
X56555Y63295D01*
Y61525D02*
Y63295D01*
X52435Y66415D02*
Y67775D01*
Y66415D02*
X56055Y62795D01*
Y61525D02*
Y62795D01*
X49895Y67775D02*
X52870Y64800D01*
X53218D01*
X55459Y62559D01*
Y61621D02*
Y62559D01*
Y61621D02*
X55555Y61525D01*
X47355Y67775D02*
X50730Y64400D01*
X53079D01*
X54959Y62520D01*
Y61621D02*
Y62520D01*
Y61621D02*
X55055Y61525D01*
X44815Y67775D02*
X48640Y63950D01*
X52990D01*
X54459Y62481D01*
Y61621D02*
Y62481D01*
Y61621D02*
X54555Y61525D01*
X42275Y67775D02*
X46575Y63475D01*
X52926D01*
X53959Y62442D01*
Y61621D02*
Y62442D01*
Y61621D02*
X54055Y61525D01*
X35025Y59250D02*
X35069Y59294D01*
X37469D01*
X38825Y56075D02*
Y57375D01*
X39475Y58025D01*
X39725D01*
X46800Y62550D02*
X47325Y62025D01*
Y60425D02*
Y62025D01*
X49025Y58450D02*
Y60425D01*
Y58450D02*
X50050Y57425D01*
Y55625D02*
Y57425D01*
Y55625D02*
X50200Y55475D01*
X51505D01*
X32325Y56500D02*
Y59250D01*
X33325Y50850D02*
Y52600D01*
X42164Y52954D02*
Y57101D01*
X40904Y52954D02*
X42164D01*
X39475Y51525D02*
X40904Y52954D01*
X37875Y56075D02*
Y58050D01*
X33325Y53675D02*
X36925D01*
X32175Y54825D02*
X33325Y53675D01*
X36875Y58700D02*
X37469Y59294D01*
X36875Y56075D02*
Y58700D01*
X37469Y59294D02*
X38422D01*
X32175Y54825D02*
Y56350D01*
X32325Y56500D01*
X32639Y64643D02*
X40464D01*
X40513Y60653D02*
Y62992D01*
X32575Y44450D02*
X37338D01*
X59555Y44790D02*
Y46425D01*
X49600Y53475D02*
X51505D01*
X49022Y54053D02*
X49600Y53475D01*
X51505Y51975D02*
X53816D01*
X44464Y52954D02*
X51484D01*
X51505Y48475D02*
X53760D01*
X51943Y61595D02*
X52985D01*
X58555Y59571D02*
Y61525D01*
X59563Y59563D02*
Y61517D01*
X55959Y61621D02*
X56055Y61525D01*
X56959Y61621D02*
X57055Y61525D01*
X57459Y61621D02*
X57555Y61525D01*
X63555D02*
Y63682D01*
X63881Y64008D01*
X64055Y61525D02*
Y63420D01*
X64555Y61525D02*
Y63031D01*
X65405Y62738D02*
X71259D01*
X65055Y62388D02*
X65405Y62738D01*
X65055Y61525D02*
Y62388D01*
X71501Y63246D02*
X73037Y61710D01*
X71259Y62738D02*
X72656Y61341D01*
X68580Y58674D02*
X72009D01*
X68279Y58975D02*
X68580Y58674D01*
X66605Y58975D02*
X68279D01*
X68326Y58293D02*
X71374D01*
X68144Y58475D02*
X68326Y58293D01*
X66605Y58475D02*
X68144D01*
X66605Y57975D02*
X67882D01*
X68326Y57531D01*
X64572Y57475D02*
X66605D01*
X65230Y56975D02*
X66605D01*
X64770Y56515D02*
X65230Y56975D01*
X64516Y56515D02*
X64770D01*
X66605Y54975D02*
X67580D01*
X69088Y53467D01*
X71374D01*
X56896Y42799D02*
X58016D01*
X59020Y43803D01*
X63459Y45508D02*
Y46329D01*
X59020Y43803D02*
X61754D01*
X63459Y45508D01*
Y46329D02*
X63555Y46425D01*
X61976Y42799D02*
Y43307D01*
X64055Y45386D01*
Y46425D01*
X64555Y45260D02*
Y46425D01*
X64389Y45094D02*
X64555Y45260D01*
X64389Y45085D02*
Y45094D01*
X62980Y43676D02*
X64389Y45085D01*
X62980Y42279D02*
Y43676D01*
X62103Y41402D02*
X62980Y42279D01*
X60579Y41402D02*
X62103D01*
X59436Y40259D02*
X60579Y41402D01*
X66509Y49879D02*
X66605Y49975D01*
X65688Y49879D02*
X66509D01*
X65451Y49642D02*
X65688Y49879D01*
X65451Y47571D02*
Y49642D01*
Y47571D02*
X65659Y47363D01*
Y43942D02*
Y47363D01*
X64516Y42799D02*
X65659Y43942D01*
X66605Y49475D02*
X71827D01*
X68453Y41656D02*
X70866D01*
X67056Y40259D02*
X68453Y41656D01*
X38608Y44465D02*
Y46101D01*
X44831Y58039D02*
Y59260D01*
X42672Y57609D02*
Y59260D01*
X42164Y57101D02*
X42672Y57609D01*
X40572Y59294D02*
X44797D01*
X46306Y51484D02*
X46990D01*
X45847Y51943D02*
X46306Y51484D01*
X43175Y51943D02*
X45847D01*
X42164Y52954D02*
X43175Y51943D01*
X46999Y51475D02*
X51505D01*
X39243Y44450D02*
Y47117D01*
X69137Y59514D02*
X69342D01*
X64555Y59475D02*
X66605D01*
X64516Y59436D02*
X64555Y59475D01*
X66605D02*
X71335D01*
X69469Y56896D02*
X70231Y57658D01*
X69469Y56437D02*
Y56475D01*
Y56896D01*
X66605Y56475D02*
X69469D01*
X71336D01*
X64460Y50475D02*
X66605D01*
X64389Y50546D02*
X64460Y50475D01*
X66605D02*
X71098D01*
X51505Y53475D02*
X53586D01*
X53594Y53467D01*
X46990Y54053D02*
X49022D01*
X73406Y64008D02*
X74422Y62992D01*
X73406Y56388D02*
X74422Y55372D01*
X72009Y58674D02*
X72898Y57785D01*
Y54356D02*
Y57785D01*
Y54356D02*
X74422Y52832D01*
X72517Y52936D02*
Y57150D01*
X71374Y58293D02*
X72517Y57150D01*
X69469Y54737D02*
X71374D01*
X66605Y55975D02*
X68231D01*
X69469Y54737D01*
X69342Y52197D02*
X71120D01*
X36703Y60594D02*
X38422D01*
X66581Y55499D02*
X66605Y55475D01*
X64032D02*
X66605D01*
X62738Y56769D02*
X64032Y55475D01*
X62738Y57658D02*
X64516Y59436D01*
X62738Y56769D02*
Y57658D01*
X64555Y63031D02*
X64770Y63246D01*
X71501D01*
X64055Y63420D02*
X64262Y63627D01*
X71882D01*
X63881Y64008D02*
X73406D01*
X71120Y52197D02*
X71453D01*
X72350Y51300D01*
X58625Y46495D02*
Y50100D01*
X63725Y49050D02*
X65055Y47720D01*
Y46425D02*
Y47720D01*
X68050Y45050D02*
Y48475D01*
X66605D02*
X68050D01*
X71081D01*
X71374Y53467D02*
X73275Y51566D01*
X70866Y41656D02*
X72675Y43465D01*
Y48627D01*
X71827Y49475D02*
X72675Y48627D01*
X59055Y46425D02*
Y49305D01*
X59825Y50075D01*
D24*
X48925Y38525D02*
X49325Y38925D01*
X43625Y38525D02*
X48925D01*
X42850Y39300D02*
X43625Y38525D01*
X49325Y38925D02*
Y40600D01*
X41600Y39300D02*
X42850D01*
X40700Y40200D02*
X41600Y39300D01*
X40700Y40200D02*
Y42175D01*
X41675Y41200D02*
X42850D01*
X40700Y42175D02*
X41675Y41200D01*
X40700Y42175D02*
Y45650D01*
X41200Y45150D02*
X42825D01*
X40700Y45650D02*
X41200Y45150D01*
X40700Y45650D02*
Y46600D01*
X41150Y47050D01*
X42825D01*
D25*
X42675Y43200D02*
X45225D01*
X42775Y48925D02*
X45175D01*
Y47100D02*
Y48925D01*
X45250Y41450D02*
Y43175D01*
D26*
X59075Y63425D02*
D03*
X39725Y58025D02*
D03*
X33325Y52600D02*
D03*
X37875Y58050D02*
D03*
X53848Y51943D02*
D03*
X53760Y48475D02*
D03*
X51943Y61595D02*
D03*
X58625Y50100D02*
D03*
X59555Y44790D02*
D03*
X63725Y49050D02*
D03*
X58547Y59563D02*
D03*
X59563D02*
D03*
X68326Y57531D02*
D03*
X64516D02*
D03*
Y56515D02*
D03*
X38608Y46101D02*
D03*
X44831Y58039D02*
D03*
X46800Y62550D02*
D03*
X39475Y51525D02*
D03*
X39243Y47117D02*
D03*
X64516Y59436D02*
D03*
X70231Y57658D02*
D03*
X64389Y50546D02*
D03*
X53594Y53467D02*
D03*
X72350Y51300D02*
D03*
X68453Y55753D02*
D03*
X36703Y60594D02*
D03*
X62738Y56769D02*
D03*
X68050Y45050D02*
D03*
X59825Y50075D02*
D03*
D27*
X42675Y43200D02*
D03*
X42775Y48925D02*
D03*
X74425Y40160D02*
D03*
Y42700D02*
D03*
Y45240D02*
D03*
Y47780D02*
D03*
Y50320D02*
D03*
Y52860D02*
D03*
Y55400D02*
D03*
Y57940D02*
D03*
Y60480D02*
D03*
Y63020D02*
D03*
Y65560D02*
D03*
X70215Y67775D02*
D03*
X67675D02*
D03*
X65135D02*
D03*
X62595D02*
D03*
X60055D02*
D03*
X57515D02*
D03*
X54975D02*
D03*
X52435D02*
D03*
X49895D02*
D03*
X47355D02*
D03*
X44815D02*
D03*
X35025Y59250D02*
D03*
X51865Y40600D02*
D03*
X56896Y42799D02*
D03*
X59436Y40259D02*
D03*
Y42799D02*
D03*
X61976Y40259D02*
D03*
Y42799D02*
D03*
X64516Y40259D02*
D03*
Y42799D02*
D03*
X67056Y40259D02*
D03*
Y42799D02*
D03*
X69596Y40259D02*
D03*
Y42799D02*
D03*
X45175Y48925D02*
D03*
X45225Y43200D02*
D03*
X32325Y59250D02*
D03*
D28*
X74425Y68100D02*
D03*
D29*
X30099Y62103D02*
D03*
X35179D02*
D03*
Y67183D02*
D03*
X30099D02*
D03*
X30035Y41885D02*
D03*
X35115D02*
D03*
Y46965D02*
D03*
X30035D02*
D03*
D30*
X32639Y64643D02*
D03*
X32575Y44425D02*
D03*
D31*
X71400Y44100D02*
D03*
X72450Y42000D02*
D03*
X71400Y39900D02*
D03*
X67200Y60900D02*
D03*
Y44100D02*
D03*
X65100Y52500D02*
D03*
X64050Y54600D02*
D03*
X63000Y52500D02*
D03*
X61950Y63000D02*
D03*
X60900Y56700D02*
D03*
Y52500D02*
D03*
X61950Y50400D02*
D03*
X59850Y54600D02*
D03*
X58800Y52500D02*
D03*
X57750Y50400D02*
D03*
X56700Y44100D02*
D03*
X54600Y56700D02*
D03*
X55650Y50400D02*
D03*
X54600Y44100D02*
D03*
X55650Y42000D02*
D03*
X54600Y39900D02*
D03*
X53550Y67200D02*
D03*
Y58800D02*
D03*
Y54600D02*
D03*
Y50400D02*
D03*
X52500Y44100D02*
D03*
X53550Y42000D02*
D03*
X50400Y44100D02*
D03*
X51450Y42000D02*
D03*
X48300Y44100D02*
D03*
X49350Y42000D02*
D03*
X46200Y65100D02*
D03*
Y60900D02*
D03*
Y44100D02*
D03*
X45150Y63000D02*
D03*
Y54600D02*
D03*
X42000Y65100D02*
D03*
X43050Y63000D02*
D03*
Y42000D02*
D03*
X39900Y56700D02*
D03*
X40950Y54600D02*
D03*
X39900Y48300D02*
D03*
X37800Y52500D02*
D03*
Y48300D02*
D03*
X38850Y42000D02*
D03*
X35700Y56700D02*
D03*
Y52500D02*
D03*
X36750Y50400D02*
D03*
Y46200D02*
D03*
X35700Y39900D02*
D03*
X33600Y60900D02*
D03*
X34650Y54600D02*
D03*
Y50400D02*
D03*
X33600Y48300D02*
D03*
Y39900D02*
D03*
X32550Y67200D02*
D03*
Y63000D02*
D03*
X31500Y52500D02*
D03*
Y48300D02*
D03*
X32550Y46200D02*
D03*
Y42000D02*
D03*
X31500Y39900D02*
D03*
X29400Y65100D02*
D03*
X30450Y58800D02*
D03*
X29400Y56700D02*
D03*
X30450Y54600D02*
D03*
X29400Y52500D02*
D03*
Y44100D02*
D03*
Y39900D02*
D03*
M02*
