%FSLAX43Y43*%
%MOMM*%
G71*
G01*
G75*
G04 Layer_Color=2752767*
%ADD10R,1.000X1.100*%
%ADD11R,0.450X1.150*%
%ADD12R,0.400X1.000*%
%ADD13O,0.400X1.000*%
%ADD14R,0.700X1.000*%
%ADD15O,0.700X1.000*%
%ADD16O,1.800X0.300*%
%ADD17O,0.300X1.800*%
%ADD18R,1.100X1.000*%
%ADD19O,1.300X1.100*%
%ADD20R,1.300X1.100*%
%ADD21O,1.000X0.300*%
%ADD22R,1.000X0.300*%
%ADD23R,1.000X0.400*%
%ADD24O,1.000X0.400*%
%ADD25C,0.254*%
%ADD26C,2.286*%
%ADD27C,2.032*%
%ADD28C,0.762*%
%ADD29R,1.500X1.500*%
%ADD30C,1.500*%
%ADD31R,1.500X1.500*%
%ADD32C,0.152*%
%ADD33C,1.016*%
%ADD34C,2.718*%
%ADD35C,2.516*%
%ADD36C,1.524*%
%ADD37C,1.916*%
G04:AMPARAMS|DCode=38|XSize=2.032mm|YSize=2.032mm|CornerRadius=0mm|HoleSize=0mm|Usage=FLASHONLY|Rotation=0.000|XOffset=0mm|YOffset=0mm|HoleType=Round|Shape=Relief|Width=0.254mm|Gap=0.254mm|Entries=4|*
%AMTHD38*
7,0,0,2.032,1.524,0.254,45*
%
%ADD38THD38*%
%ADD39C,1.143*%
G04:AMPARAMS|DCode=40|XSize=2.424mm|YSize=2.424mm|CornerRadius=0mm|HoleSize=0mm|Usage=FLASHONLY|Rotation=0.000|XOffset=0mm|YOffset=0mm|HoleType=Round|Shape=Relief|Width=0.254mm|Gap=0.254mm|Entries=4|*
%AMTHD40*
7,0,0,2.424,1.916,0.254,45*
%
%ADD40THD40*%
%ADD41C,0.250*%
%ADD42C,0.200*%
%ADD43C,0.600*%
%ADD44C,0.203*%
%ADD45R,1.203X1.303*%
%ADD46R,0.653X1.353*%
%ADD47R,0.603X1.203*%
%ADD48O,0.603X1.203*%
%ADD49R,0.903X1.203*%
%ADD50O,0.903X1.203*%
%ADD51O,2.003X0.503*%
%ADD52O,0.503X2.003*%
%ADD53R,1.303X1.203*%
%ADD54O,1.503X1.303*%
%ADD55R,1.503X1.303*%
%ADD56O,1.203X0.503*%
%ADD57R,1.203X0.503*%
%ADD58R,1.203X0.603*%
%ADD59O,1.203X0.603*%
%ADD60C,2.489*%
%ADD61C,2.235*%
%ADD62C,0.965*%
%ADD63R,1.703X1.703*%
%ADD64C,1.703*%
%ADD65R,1.703X1.703*%
%ADD66C,0.356*%
%ADD67C,0.127*%
%ADD68C,0.169*%
D67*
X26924Y70358D02*
Y71374D01*
X27940D01*
Y70358D01*
X26924D01*
X32004D02*
Y71374D01*
X33020D01*
Y70358D01*
X32004D01*
Y75438D02*
Y76454D01*
X33020D01*
Y75438D01*
X32004D01*
X26924D02*
Y76454D01*
X27940D01*
Y75438D01*
X26924D01*
X52959Y73025D02*
X52451Y74041D01*
X53467D01*
X52959Y73025D01*
X43561Y61976D02*
X43053Y62992D01*
X44069D01*
X43561Y61976D01*
X67818Y55118D02*
X68072Y55372D01*
X68326D01*
X68072Y55626D01*
X68326Y55880D01*
X68072D01*
X67818Y56134D01*
X67564Y55880D01*
X67310D01*
X67564Y55626D01*
X67310Y55372D01*
X67564D01*
X67818Y55118D01*
Y57658D02*
X68072Y57912D01*
X68326D01*
X68072Y58166D01*
X68326Y58420D01*
X68072D01*
X67818Y58674D01*
X67564Y58420D01*
X67310D01*
X67564Y58166D01*
X67310Y57912D01*
X67564D01*
X67818Y57658D01*
X70358Y55118D02*
X70612Y55372D01*
X70866D01*
X70612Y55626D01*
X70866Y55880D01*
X70612D01*
X70358Y56134D01*
X70104Y55880D01*
X69850D01*
X70104Y55626D01*
X69850Y55372D01*
X70104D01*
X70358Y55118D01*
Y57658D02*
X70612Y57912D01*
X70866D01*
X70612Y58166D01*
X70866Y58420D01*
X70612D01*
X70358Y58674D01*
X70104Y58420D01*
X69850D01*
X70104Y58166D01*
X69850Y57912D01*
X70104D01*
X70358Y57658D01*
X72898Y55118D02*
X73152Y55372D01*
X73406D01*
X73152Y55626D01*
X73406Y55880D01*
X73152D01*
X72898Y56134D01*
X72644Y55880D01*
X72390D01*
X72644Y55626D01*
X72390Y55372D01*
X72644D01*
X72898Y55118D01*
Y57658D02*
X73152Y57912D01*
X73406D01*
X73152Y58166D01*
X73406Y58420D01*
X73152D01*
X72898Y58674D01*
X72644Y58420D01*
X72390D01*
X72644Y58166D01*
X72390Y57912D01*
X72644D01*
X72898Y57658D01*
X75438Y55118D02*
X75692Y55372D01*
X75946D01*
X75692Y55626D01*
X75946Y55880D01*
X75692D01*
X75438Y56134D01*
X75184Y55880D01*
X74930D01*
X75184Y55626D01*
X74930Y55372D01*
X75184D01*
X75438Y55118D01*
Y57658D02*
X75692Y57912D01*
X75946D01*
X75692Y58166D01*
X75946Y58420D01*
X75692D01*
X75438Y58674D01*
X75184Y58420D01*
X74930D01*
X75184Y58166D01*
X74930Y57912D01*
X75184D01*
X75438Y57658D01*
X77978Y55118D02*
X78232Y55372D01*
X78486D01*
X78232Y55626D01*
X78486Y55880D01*
X78232D01*
X77978Y56134D01*
X77724Y55880D01*
X77470D01*
X77724Y55626D01*
X77470Y55372D01*
X77724D01*
X77978Y55118D01*
Y57658D02*
X78232Y57912D01*
X78486D01*
X78232Y58166D01*
X78486Y58420D01*
X78232D01*
X77978Y58674D01*
X77724Y58420D01*
X77470D01*
X77724Y58166D01*
X77470Y57912D01*
X77724D01*
X77978Y57658D01*
X80518Y55118D02*
X80772Y55372D01*
X81026D01*
X80772Y55626D01*
X81026Y55880D01*
X80772D01*
X80518Y56134D01*
X80264Y55880D01*
X80010D01*
X80264Y55626D01*
X80010Y55372D01*
X80264D01*
X80518Y55118D01*
Y57658D02*
X80772Y57912D01*
X81026D01*
X80772Y58166D01*
X81026Y58420D01*
X80772D01*
X80518Y58674D01*
X80264Y58420D01*
X80010D01*
X80264Y58166D01*
X80010Y57912D01*
X80264D01*
X80518Y57658D01*
X63373Y75692D02*
X62865Y76708D01*
X63881D01*
X63373Y75692D01*
Y74549D02*
X62865Y75565D01*
X63881D01*
X63373Y74549D01*
X63500Y65913D02*
X62992Y66929D01*
X64008D01*
X63500Y65913D01*
X50927Y79248D02*
X50419Y80264D01*
X51435D01*
X50927Y79248D01*
X58547Y76962D02*
X58039Y77978D01*
X59055D01*
X58547Y76962D01*
X57404D02*
X56896Y77978D01*
X57912D01*
X57404Y76962D01*
X53467Y54991D02*
X53721Y55245D01*
X53975D01*
X53721Y55499D01*
X53975Y55753D01*
X53721D01*
X53467Y56007D01*
X53213Y55753D01*
X52959D01*
X53213Y55499D01*
X52959Y55245D01*
X53213D01*
X53467Y54991D01*
X56007D02*
X56261Y55245D01*
X56515D01*
X56261Y55499D01*
X56515Y55753D01*
X56261D01*
X56007Y56007D01*
X55753Y55753D01*
X55499D01*
X55753Y55499D01*
X55499Y55245D01*
X55753D01*
X56007Y54991D01*
X53213Y84328D02*
X53467Y84582D01*
X53721D01*
X53467Y84836D01*
X53721Y85090D01*
X53467D01*
X53213Y85344D01*
X52959Y85090D01*
X52705D01*
X52959Y84836D01*
X52705Y84582D01*
X52959D01*
X53213Y84328D01*
X50673D02*
X50927Y84582D01*
X51181D01*
X50927Y84836D01*
X51181Y85090D01*
X50927D01*
X50673Y85344D01*
X50419Y85090D01*
X50165D01*
X50419Y84836D01*
X50165Y84582D01*
X50419D01*
X50673Y84328D01*
X48133D02*
X48387Y84582D01*
X48641D01*
X48387Y84836D01*
X48641Y85090D01*
X48387D01*
X48133Y85344D01*
X47879Y85090D01*
X47625D01*
X47879Y84836D01*
X47625Y84582D01*
X47879D01*
X48133Y84328D01*
X45593D02*
X45847Y84582D01*
X46101D01*
X45847Y84836D01*
X46101Y85090D01*
X45847D01*
X45593Y85344D01*
X45339Y85090D01*
X45085D01*
X45339Y84836D01*
X45085Y84582D01*
X45339D01*
X45593Y84328D01*
X43053D02*
X43307Y84582D01*
X43561D01*
X43307Y84836D01*
X43561Y85090D01*
X43307D01*
X43053Y85344D01*
X42799Y85090D01*
X42545D01*
X42799Y84836D01*
X42545Y84582D01*
X42799D01*
X43053Y84328D01*
X40513D02*
X40767Y84582D01*
X41021D01*
X40767Y84836D01*
X41021Y85090D01*
X40767D01*
X40513Y85344D01*
X40259Y85090D01*
X40005D01*
X40259Y84836D01*
X40005Y84582D01*
X40259D01*
X40513Y84328D01*
X37973D02*
X38227Y84582D01*
X38481D01*
X38227Y84836D01*
X38481Y85090D01*
X38227D01*
X37973Y85344D01*
X37719Y85090D01*
X37465D01*
X37719Y84836D01*
X37465Y84582D01*
X37719D01*
X37973Y84328D01*
X35433D02*
X35687Y84582D01*
X35941D01*
X35687Y84836D01*
X35941Y85090D01*
X35687D01*
X35433Y85344D01*
X35179Y85090D01*
X34925D01*
X35179Y84836D01*
X34925Y84582D01*
X35179D01*
X35433Y84328D01*
X74295D02*
X74549Y84582D01*
X74803D01*
X74549Y84836D01*
X74803Y85090D01*
X74549D01*
X74295Y85344D01*
X74041Y85090D01*
X73787D01*
X74041Y84836D01*
X73787Y84582D01*
X74041D01*
X74295Y84328D01*
X71755D02*
X72009Y84582D01*
X72263D01*
X72009Y84836D01*
X72263Y85090D01*
X72009D01*
X71755Y85344D01*
X71501Y85090D01*
X71247D01*
X71501Y84836D01*
X71247Y84582D01*
X71501D01*
X71755Y84328D01*
X69215D02*
X69469Y84582D01*
X69723D01*
X69469Y84836D01*
X69723Y85090D01*
X69469D01*
X69215Y85344D01*
X68961Y85090D01*
X68707D01*
X68961Y84836D01*
X68707Y84582D01*
X68961D01*
X69215Y84328D01*
X66675D02*
X66929Y84582D01*
X67183D01*
X66929Y84836D01*
X67183Y85090D01*
X66929D01*
X66675Y85344D01*
X66421Y85090D01*
X66167D01*
X66421Y84836D01*
X66167Y84582D01*
X66421D01*
X66675Y84328D01*
X64135D02*
X64389Y84582D01*
X64643D01*
X64389Y84836D01*
X64643Y85090D01*
X64389D01*
X64135Y85344D01*
X63881Y85090D01*
X63627D01*
X63881Y84836D01*
X63627Y84582D01*
X63881D01*
X64135Y84328D01*
X61595D02*
X61849Y84582D01*
X62103D01*
X61849Y84836D01*
X62103Y85090D01*
X61849D01*
X61595Y85344D01*
X61341Y85090D01*
X61087D01*
X61341Y84836D01*
X61087Y84582D01*
X61341D01*
X61595Y84328D01*
X59055D02*
X59309Y84582D01*
X59563D01*
X59309Y84836D01*
X59563Y85090D01*
X59309D01*
X59055Y85344D01*
X58801Y85090D01*
X58547D01*
X58801Y84836D01*
X58547Y84582D01*
X58801D01*
X59055Y84328D01*
X56515D02*
X56769Y84582D01*
X57023D01*
X56769Y84836D01*
X57023Y85090D01*
X56769D01*
X56515Y85344D01*
X56261Y85090D01*
X56007D01*
X56261Y84836D01*
X56007Y84582D01*
X56261D01*
X56515Y84328D01*
X79883Y83820D02*
X80137Y84074D01*
X80391D01*
X80137Y84328D01*
X80391Y84582D01*
X80137D01*
X79883Y84836D01*
X79629Y84582D01*
X79375D01*
X79629Y84328D01*
X79375Y84074D01*
X79629D01*
X79883Y83820D01*
Y81280D02*
X80137Y81534D01*
X80391D01*
X80137Y81788D01*
X80391Y82042D01*
X80137D01*
X79883Y82296D01*
X79629Y82042D01*
X79375D01*
X79629Y81788D01*
X79375Y81534D01*
X79629D01*
X79883Y81280D01*
Y76200D02*
X80137Y76454D01*
X80391D01*
X80137Y76708D01*
X80391Y76962D01*
X80137D01*
X79883Y77216D01*
X79629Y76962D01*
X79375D01*
X79629Y76708D01*
X79375Y76454D01*
X79629D01*
X79883Y76200D01*
Y73660D02*
X80137Y73914D01*
X80391D01*
X80137Y74168D01*
X80391Y74422D01*
X80137D01*
X79883Y74676D01*
X79629Y74422D01*
X79375D01*
X79629Y74168D01*
X79375Y73914D01*
X79629D01*
X79883Y73660D01*
Y71120D02*
X80137Y71374D01*
X80391D01*
X80137Y71628D01*
X80391Y71882D01*
X80137D01*
X79883Y72136D01*
X79629Y71882D01*
X79375D01*
X79629Y71628D01*
X79375Y71374D01*
X79629D01*
X79883Y71120D01*
Y68580D02*
X80137Y68834D01*
X80391D01*
X80137Y69088D01*
X80391Y69342D01*
X80137D01*
X79883Y69596D01*
X79629Y69342D01*
X79375D01*
X79629Y69088D01*
X79375Y68834D01*
X79629D01*
X79883Y68580D01*
Y66040D02*
X80137Y66294D01*
X80391D01*
X80137Y66548D01*
X80391Y66802D01*
X80137D01*
X79883Y67056D01*
X79629Y66802D01*
X79375D01*
X79629Y66548D01*
X79375Y66294D01*
X79629D01*
X79883Y66040D01*
Y63500D02*
X80137Y63754D01*
X80391D01*
X80137Y64008D01*
X80391Y64262D01*
X80137D01*
X79883Y64516D01*
X79629Y64262D01*
X79375D01*
X79629Y64008D01*
X79375Y63754D01*
X79629D01*
X79883Y63500D01*
Y60960D02*
X80137Y61214D01*
X80391D01*
X80137Y61468D01*
X80391Y61722D01*
X80137D01*
X79883Y61976D01*
X79629Y61722D01*
X79375D01*
X79629Y61468D01*
X79375Y61214D01*
X79629D01*
X79883Y60960D01*
Y78740D02*
X80137Y78994D01*
X80391D01*
X80137Y79248D01*
X80391Y79502D01*
X80137D01*
X79883Y79756D01*
X79629Y79502D01*
X79375D01*
X79629Y79248D01*
X79375Y78994D01*
X79629D01*
X79883Y78740D01*
X29083Y84328D02*
X29337Y84582D01*
X29591D01*
X29337Y84836D01*
X29591Y85090D01*
X29337D01*
X29083Y85344D01*
X28829Y85090D01*
X28575D01*
X28829Y84836D01*
X28575Y84582D01*
X28829D01*
X29083Y84328D01*
X31623D02*
X31877Y84582D01*
X32131D01*
X31877Y84836D01*
X32131Y85090D01*
X31877D01*
X31623Y85344D01*
X31369Y85090D01*
X31115D01*
X31369Y84836D01*
X31115Y84582D01*
X31369D01*
X31623Y84328D01*
X36180Y74437D02*
X35672Y75453D01*
X36688D01*
X36180Y74437D01*
X37480Y74534D02*
X36972Y75550D01*
X37988D01*
X37480Y74534D01*
X63500Y72001D02*
X62992Y73017D01*
X64008D01*
X63500Y72001D01*
X39370Y77216D02*
X38862Y78232D01*
X39878D01*
X39370Y77216D01*
X76835Y79883D02*
X76327Y80899D01*
X77343D01*
X76835Y79883D01*
X36576Y70485D02*
X36068Y71501D01*
X37084D01*
X36576Y70485D01*
X31750Y65278D02*
X31242Y66294D01*
X32258D01*
X31750Y65278D01*
X48690Y62738D02*
X48182Y63754D01*
X49198D01*
X48690Y62738D01*
X58539Y62230D02*
X58031Y63246D01*
X59047D01*
X58539Y62230D01*
X65405Y60833D02*
X64897Y61849D01*
X65913D01*
X65405Y60833D01*
X69215Y62230D02*
X68707Y63246D01*
X69723D01*
X69215Y62230D01*
X67437Y68834D02*
X66929Y69850D01*
X67945D01*
X67437Y68834D01*
X70231Y70993D02*
X69723Y72009D01*
X70739D01*
X70231Y70993D01*
X67564Y73279D02*
X67056Y74295D01*
X68072D01*
X67564Y73279D01*
X73025Y76913D02*
X72517Y77929D01*
X73533D01*
X73025Y76913D01*
X48846Y71755D02*
X48338Y72771D01*
X49354D01*
X48846Y71755D01*
X28321Y80010D02*
X27813Y81026D01*
X28829D01*
X28321Y80010D01*
X38862Y78867D02*
X38354Y79883D01*
X39370D01*
X38862Y78867D01*
X71120Y64770D02*
X70612Y65786D01*
X71628D01*
X71120Y64770D01*
X28829Y55372D02*
X29083Y55880D01*
X28829Y56388D01*
X29337Y56134D01*
X29845Y56388D01*
X29591Y55880D01*
X29845Y55372D01*
X29337Y55626D01*
X28829Y55372D01*
Y65532D02*
X29083Y66040D01*
X28829Y66548D01*
X29337Y66294D01*
X29845Y66548D01*
X29591Y66040D01*
X29845Y65532D01*
X29337Y65786D01*
X28829Y65532D01*
Y75692D02*
X29083Y76200D01*
X28829Y76708D01*
X29337Y76454D01*
X29845Y76708D01*
X29591Y76200D01*
X29845Y75692D01*
X29337Y75946D01*
X28829Y75692D01*
X31369Y80772D02*
X31623Y81280D01*
X31369Y81788D01*
X31877Y81534D01*
X32385Y81788D01*
X32131Y81280D01*
X32385Y80772D01*
X31877Y81026D01*
X31369Y80772D01*
X28829Y85852D02*
X29083Y86360D01*
X28829Y86868D01*
X29337Y86614D01*
X29845Y86868D01*
X29591Y86360D01*
X29845Y85852D01*
X29337Y86106D01*
X28829Y85852D01*
X33909Y55372D02*
X34163Y55880D01*
X33909Y56388D01*
X34417Y56134D01*
X34925Y56388D01*
X34671Y55880D01*
X34925Y55372D01*
X34417Y55626D01*
X33909Y55372D01*
X36449Y60452D02*
X36703Y60960D01*
X36449Y61468D01*
X36957Y61214D01*
X37465Y61468D01*
X37211Y60960D01*
X37465Y60452D01*
X36957Y60706D01*
X36449Y60452D01*
X33909Y65532D02*
X34163Y66040D01*
X33909Y66548D01*
X34417Y66294D01*
X34925Y66548D01*
X34671Y66040D01*
X34925Y65532D01*
X34417Y65786D01*
X33909Y65532D01*
Y75692D02*
X34163Y76200D01*
X33909Y76708D01*
X34417Y76454D01*
X34925Y76708D01*
X34671Y76200D01*
X34925Y75692D01*
X34417Y75946D01*
X33909Y75692D01*
X36449Y80772D02*
X36703Y81280D01*
X36449Y81788D01*
X36957Y81534D01*
X37465Y81788D01*
X37211Y81280D01*
X37465Y80772D01*
X36957Y81026D01*
X36449Y80772D01*
X33909Y85852D02*
X34163Y86360D01*
X33909Y86868D01*
X34417Y86614D01*
X34925Y86868D01*
X34671Y86360D01*
X34925Y85852D01*
X34417Y86106D01*
X33909Y85852D01*
X38989Y55372D02*
X39243Y55880D01*
X38989Y56388D01*
X39497Y56134D01*
X40005Y56388D01*
X39751Y55880D01*
X40005Y55372D01*
X39497Y55626D01*
X38989Y55372D01*
X41529Y60452D02*
X41783Y60960D01*
X41529Y61468D01*
X42037Y61214D01*
X42545Y61468D01*
X42291Y60960D01*
X42545Y60452D01*
X42037Y60706D01*
X41529Y60452D01*
X38989Y65532D02*
X39243Y66040D01*
X38989Y66548D01*
X39497Y66294D01*
X40005Y66548D01*
X39751Y66040D01*
X40005Y65532D01*
X39497Y65786D01*
X38989Y65532D01*
Y75692D02*
X39243Y76200D01*
X38989Y76708D01*
X39497Y76454D01*
X40005Y76708D01*
X39751Y76200D01*
X40005Y75692D01*
X39497Y75946D01*
X38989Y75692D01*
Y85852D02*
X39243Y86360D01*
X38989Y86868D01*
X39497Y86614D01*
X40005Y86868D01*
X39751Y86360D01*
X40005Y85852D01*
X39497Y86106D01*
X38989Y85852D01*
X44069Y55372D02*
X44323Y55880D01*
X44069Y56388D01*
X44577Y56134D01*
X45085Y56388D01*
X44831Y55880D01*
X45085Y55372D01*
X44577Y55626D01*
X44069Y55372D01*
X46609Y60452D02*
X46863Y60960D01*
X46609Y61468D01*
X47117Y61214D01*
X47625Y61468D01*
X47371Y60960D01*
X47625Y60452D01*
X47117Y60706D01*
X46609Y60452D01*
X44069Y75692D02*
X44323Y76200D01*
X44069Y76708D01*
X44577Y76454D01*
X45085Y76708D01*
X44831Y76200D01*
X45085Y75692D01*
X44577Y75946D01*
X44069Y75692D01*
Y85852D02*
X44323Y86360D01*
X44069Y86868D01*
X44577Y86614D01*
X45085Y86868D01*
X44831Y86360D01*
X45085Y85852D01*
X44577Y86106D01*
X44069Y85852D01*
X49149Y55372D02*
X49403Y55880D01*
X49149Y56388D01*
X49657Y56134D01*
X50165Y56388D01*
X49911Y55880D01*
X50165Y55372D01*
X49657Y55626D01*
X49149Y55372D01*
X51689Y60452D02*
X51943Y60960D01*
X51689Y61468D01*
X52197Y61214D01*
X52705Y61468D01*
X52451Y60960D01*
X52705Y60452D01*
X52197Y60706D01*
X51689Y60452D01*
X49149Y85852D02*
X49403Y86360D01*
X49149Y86868D01*
X49657Y86614D01*
X50165Y86868D01*
X49911Y86360D01*
X50165Y85852D01*
X49657Y86106D01*
X49149Y85852D01*
X54229Y55372D02*
X54483Y55880D01*
X54229Y56388D01*
X54737Y56134D01*
X55245Y56388D01*
X54991Y55880D01*
X55245Y55372D01*
X54737Y55626D01*
X54229Y55372D01*
Y65532D02*
X54483Y66040D01*
X54229Y66548D01*
X54737Y66294D01*
X55245Y66548D01*
X54991Y66040D01*
X55245Y65532D01*
X54737Y65786D01*
X54229Y65532D01*
X56769Y70612D02*
X57023Y71120D01*
X56769Y71628D01*
X57277Y71374D01*
X57785Y71628D01*
X57531Y71120D01*
X57785Y70612D01*
X57277Y70866D01*
X56769Y70612D01*
X54229Y75692D02*
X54483Y76200D01*
X54229Y76708D01*
X54737Y76454D01*
X55245Y76708D01*
X54991Y76200D01*
X55245Y75692D01*
X54737Y75946D01*
X54229Y75692D01*
Y85852D02*
X54483Y86360D01*
X54229Y86868D01*
X54737Y86614D01*
X55245Y86868D01*
X54991Y86360D01*
X55245Y85852D01*
X54737Y86106D01*
X54229Y85852D01*
X59309Y55372D02*
X59563Y55880D01*
X59309Y56388D01*
X59817Y56134D01*
X60325Y56388D01*
X60071Y55880D01*
X60325Y55372D01*
X59817Y55626D01*
X59309Y55372D01*
Y65532D02*
X59563Y66040D01*
X59309Y66548D01*
X59817Y66294D01*
X60325Y66548D01*
X60071Y66040D01*
X60325Y65532D01*
X59817Y65786D01*
X59309Y65532D01*
Y85852D02*
X59563Y86360D01*
X59309Y86868D01*
X59817Y86614D01*
X60325Y86868D01*
X60071Y86360D01*
X60325Y85852D01*
X59817Y86106D01*
X59309Y85852D01*
X64389Y55372D02*
X64643Y55880D01*
X64389Y56388D01*
X64897Y56134D01*
X65405Y56388D01*
X65151Y55880D01*
X65405Y55372D01*
X64897Y55626D01*
X64389Y55372D01*
X66929Y60452D02*
X67183Y60960D01*
X66929Y61468D01*
X67437Y61214D01*
X67945Y61468D01*
X67691Y60960D01*
X67945Y60452D01*
X67437Y60706D01*
X66929Y60452D01*
Y70612D02*
X67183Y71120D01*
X66929Y71628D01*
X67437Y71374D01*
X67945Y71628D01*
X67691Y71120D01*
X67945Y70612D01*
X67437Y70866D01*
X66929Y70612D01*
X64389Y85852D02*
X64643Y86360D01*
X64389Y86868D01*
X64897Y86614D01*
X65405Y86868D01*
X65151Y86360D01*
X65405Y85852D01*
X64897Y86106D01*
X64389Y85852D01*
X69469Y65532D02*
X69723Y66040D01*
X69469Y66548D01*
X69977Y66294D01*
X70485Y66548D01*
X70231Y66040D01*
X70485Y65532D01*
X69977Y65786D01*
X69469Y65532D01*
Y85852D02*
X69723Y86360D01*
X69469Y86868D01*
X69977Y86614D01*
X70485Y86868D01*
X70231Y86360D01*
X70485Y85852D01*
X69977Y86106D01*
X69469Y85852D01*
X77089Y60452D02*
X77343Y60960D01*
X77089Y61468D01*
X77597Y61214D01*
X78105Y61468D01*
X77851Y60960D01*
X78105Y60452D01*
X77597Y60706D01*
X77089Y60452D01*
X74549Y85852D02*
X74803Y86360D01*
X74549Y86868D01*
X75057Y86614D01*
X75565Y86868D01*
X75311Y86360D01*
X75565Y85852D01*
X75057Y86106D01*
X74549Y85852D01*
X82169Y60452D02*
X82423Y60960D01*
X82169Y61468D01*
X82677Y61214D01*
X83185Y61468D01*
X82931Y60960D01*
X83185Y60452D01*
X82677Y60706D01*
X82169Y60452D01*
Y70612D02*
X82423Y71120D01*
X82169Y71628D01*
X82677Y71374D01*
X83185Y71628D01*
X82931Y71120D01*
X83185Y70612D01*
X82677Y70866D01*
X82169Y70612D01*
Y80772D02*
X82423Y81280D01*
X82169Y81788D01*
X82677Y81534D01*
X83185Y81788D01*
X82931Y81280D01*
X83185Y80772D01*
X82677Y81026D01*
X82169Y80772D01*
X79629Y85852D02*
X79883Y86360D01*
X79629Y86868D01*
X80137Y86614D01*
X80645Y86868D01*
X80391Y86360D01*
X80645Y85852D01*
X80137Y86106D01*
X79629Y85852D01*
D68*
X30480Y73406D02*
G03*
X30480Y73406I-508J0D01*
G01*
M02*
