%FSTAX23Y23*%
%MOIN*%
%SFA1B1*%

%IPPOS*%
%ADD10C,0.010000*%
%ADD11C,0.019685*%
%ADD12R,0.059055X0.059055*%
%ADD13C,0.059055*%
%ADD14R,0.059055X0.059055*%
%LNmcu_ecg_combine_board-1*%
%LPD*%
G36*
X03005Y01275D02*
X0149D01*
Y0279*
X03005*
Y01275*
G37*
%LNmcu_ecg_combine_board-2*%
%LPC*%
G36*
X02959Y01399D02*
X0288D01*
Y0132*
X02959*
Y01399*
G37*
G36*
X01614Y01614D02*
X01535D01*
Y01535*
X01614*
Y01614*
G37*
G36*
X02714Y01399D02*
X02635D01*
Y0132*
X02714*
Y01399*
G37*
G36*
X02815Y01355D02*
X02779D01*
X02789Y01329*
X02815Y01319*
Y01355*
G37*
G36*
X0286D02*
X02825D01*
Y01319*
X0285Y01329*
X0286Y01355*
G37*
G36*
X02174Y01817D02*
X02144Y01805D01*
X02132Y01774*
X02144Y01744*
X02174Y01732*
X02205Y01744*
X02217Y01774*
X02205Y01805*
X02174Y01817*
G37*
G36*
X01574Y01917D02*
X01544Y01905D01*
X01532Y01874*
X01544Y01844*
X01574Y01832*
X01605Y01844*
X01617Y01874*
X01605Y01905*
X01574Y01917*
G37*
G36*
Y01817D02*
X01544Y01805D01*
X01532Y01774*
X01544Y01744*
X01574Y01732*
X01605Y01744*
X01617Y01774*
X01605Y01805*
X01574Y01817*
G37*
G36*
Y01717D02*
X01544Y01705D01*
X01532Y01674*
X01544Y01644*
X01574Y01632*
X01605Y01644*
X01617Y01674*
X01605Y01705*
X01574Y01717*
G37*
G36*
X02174D02*
X02144Y01705D01*
X02132Y01674*
X02144Y01644*
X02174Y01632*
X02205Y01644*
X02217Y01674*
X02205Y01705*
X02174Y01717*
G37*
G36*
X01715Y01355D02*
X0168D01*
Y01319*
X01705Y01329*
X01715Y01355*
G37*
G36*
X02075Y01402D02*
X02044Y0139D01*
X02032Y0136*
X02044Y01329*
X02075Y01317*
X02105Y01329*
X02117Y0136*
X02105Y0139*
X02075Y01402*
G37*
G36*
X02175D02*
X02144Y0139D01*
X02132Y0136*
X02144Y01329*
X02175Y01317*
X02205Y01329*
X02217Y0136*
X02205Y0139*
X02175Y01402*
G37*
G36*
X01975D02*
X01944Y0139D01*
X01932Y0136*
X01944Y01329*
X01975Y01317*
X02005Y01329*
X02017Y0136*
X02005Y0139*
X01975Y01402*
G37*
G36*
X01775D02*
X01744Y0139D01*
X01732Y0136*
X01744Y01329*
X01775Y01317*
X01805Y01329*
X01817Y0136*
X01805Y0139*
X01775Y01402*
G37*
G36*
X01875D02*
X01844Y0139D01*
X01832Y0136*
X01844Y01329*
X01875Y01317*
X01905Y01329*
X01917Y0136*
X01905Y0139*
X01875Y01402*
G37*
G36*
X02575D02*
X02544Y0139D01*
X02532Y0136*
X02544Y01329*
X02575Y01317*
X02605Y01329*
X02617Y0136*
X02605Y0139*
X02575Y01402*
G37*
G36*
X0167Y01355D02*
X01634D01*
X01644Y01329*
X0167Y01319*
Y01355*
G37*
G36*
X02475Y01402D02*
X02444Y0139D01*
X02432Y0136*
X02444Y01329*
X02475Y01317*
X02505Y01329*
X02517Y0136*
X02505Y0139*
X02475Y01402*
G37*
G36*
X02275D02*
X02244Y0139D01*
X02232Y0136*
X02244Y01329*
X02275Y01317*
X02305Y01329*
X02317Y0136*
X02305Y0139*
X02275Y01402*
G37*
G36*
X02375D02*
X02344Y0139D01*
X02332Y0136*
X02344Y01329*
X02375Y01317*
X02405Y01329*
X02417Y0136*
X02405Y0139*
X02375Y01402*
G37*
G36*
X02174Y01917D02*
X02144Y01905D01*
X02132Y01874*
X02144Y01844*
X02174Y01832*
X02205Y01844*
X02217Y01874*
X02205Y01905*
X02174Y01917*
G37*
G36*
X02435Y02441D02*
X02401D01*
Y02406*
X02435*
Y02441*
G37*
G36*
X01574Y02517D02*
X01544Y02505D01*
X01532Y02474*
X01544Y02444*
X01574Y02432*
X01605Y02444*
X01617Y02474*
X01605Y02505*
X01574Y02517*
G37*
G36*
X01569Y02415D02*
X01544Y02405D01*
X01534Y02379*
X01569*
Y02415*
G37*
G36*
Y02369D02*
X01534D01*
X01544Y02344*
X01569Y02334*
Y02369*
G37*
G36*
X02435Y02396D02*
X02401D01*
Y02362*
X02435*
Y02396*
G37*
G36*
X02174Y02517D02*
X02144Y02505D01*
X02132Y02474*
X02144Y02444*
X02174Y02432*
X02205Y02444*
X02217Y02474*
X02205Y02505*
X02174Y02517*
G37*
G36*
X02265Y02751D02*
X02075D01*
X02063Y02746*
X01708Y02391*
X0161*
X01605Y02405*
X01579Y02415*
Y02374*
Y02334*
X01605Y02344*
X0161Y02358*
X01714*
X01726Y02363*
X02081Y02718*
X02152*
X02153Y02708*
X02144Y02705*
X02132Y02674*
X02135Y02666*
X01864Y02395*
X01858Y0238*
Y01748*
X01559Y0145*
X01553Y01435*
Y01393*
X01544Y0139*
X01532Y0136*
X01544Y01329*
X01575Y01317*
X01605Y01329*
X01617Y0136*
X01605Y0139*
X01596Y01393*
Y01426*
X01895Y01724*
X01901Y0174*
Y02371*
X02132Y02602*
X02141Y02596*
X02134Y02579*
X02169*
Y02615*
X02152Y02608*
X02147Y02616*
X02166Y02635*
X02174Y02632*
X02205Y02644*
X02217Y02674*
X02205Y02705*
X02195Y02708*
X02197Y02718*
X02248*
Y02671*
X02188Y02611*
X02179Y02615*
Y02579*
X02215*
X02211Y02588*
X02276Y02653*
X02281Y02665*
Y02735*
X02276Y02746*
X02265Y02751*
G37*
G36*
X01574Y02717D02*
X01544Y02705D01*
X01532Y02674*
X01544Y02644*
X01574Y02632*
X01605Y02644*
X01617Y02674*
X01605Y02705*
X01574Y02717*
G37*
G36*
X02215Y02569D02*
X02179D01*
Y02534*
X02205Y02544*
X02215Y02569*
G37*
G36*
X01574Y02617D02*
X01544Y02605D01*
X01532Y02574*
X01544Y02544*
X01574Y02532*
X01605Y02544*
X01617Y02574*
X01605Y02605*
X01574Y02617*
G37*
G36*
X02169Y02569D02*
X02134D01*
X02144Y02544*
X02169Y02534*
Y02569*
G37*
G36*
X02174Y02117D02*
X02144Y02105D01*
X02132Y02074*
X02144Y02044*
X02174Y02032*
X02205Y02044*
X02217Y02074*
X02205Y02105*
X02174Y02117*
G37*
G36*
X0248Y02441D02*
X02445D01*
Y02401*
Y02362*
X0248*
Y02385*
X02636*
X02803Y02218*
Y01472*
X02794Y01468*
X02736Y01526*
X02725Y01531*
X02218*
X02214Y01535*
Y01538*
Y01591*
X02316Y01693*
X02321Y01705*
Y01958*
X02426Y02064*
X0244Y02058*
X02471Y02071*
X02483Y02101*
X02471Y02131*
X0244Y02144*
X0241Y02131*
X02398Y02101*
X02403Y02087*
X02293Y01977*
X02288Y01965*
Y01711*
X02191Y01614*
X02135*
Y01538*
Y01535*
X02131Y01531*
X0177*
X01758Y01526*
X01663Y01431*
X01658Y0142*
Y01396*
X01644Y0139*
X01634Y01365*
X01715*
X01705Y0139*
X01691Y01396*
Y01413*
X01776Y01498*
X02718*
X02803Y01413*
Y01396*
X02789Y0139*
X02779Y01365*
X0286*
X0285Y0139*
X02836Y01396*
Y0142*
Y02225*
X02831Y02236*
X02654Y02413*
X02643Y02417*
X0248*
Y02441*
G37*
G36*
X01574Y02117D02*
X01544Y02105D01*
X01532Y02074*
X01544Y02044*
X01574Y02032*
X01605Y02044*
X01617Y02074*
X01605Y02105*
X01574Y02117*
G37*
G36*
Y02017D02*
X01544Y02005D01*
X01532Y01974*
X01544Y01944*
X01574Y01932*
X01605Y01944*
X01617Y01974*
X01605Y02005*
X01574Y02017*
G37*
G36*
X0244Y02044D02*
X0241Y02031D01*
X02398Y02001*
X0241Y01971*
X0244Y01958*
X02471Y01971*
X02483Y02001*
X02471Y02031*
X0244Y02044*
G37*
G36*
X01574Y02217D02*
X01544Y02205D01*
X01532Y02174*
X01544Y02144*
X01574Y02132*
X01605Y02144*
X01617Y02174*
X01605Y02205*
X01574Y02217*
G37*
G36*
X02174Y02317D02*
X02144Y02305D01*
X02132Y02274*
X02144Y02244*
X02174Y02232*
X02205Y02244*
X02217Y02274*
X02205Y02305*
X02174Y02317*
G37*
G36*
Y02417D02*
X02144Y02405D01*
X02132Y02374*
X02144Y02344*
X02174Y02332*
X02188Y02337*
X02236Y0229*
X02248Y02285*
X02404*
X0241Y02271*
X0244Y02258*
X02471Y02271*
X02483Y02301*
X02471Y02331*
X0244Y02344*
X0241Y02331*
X02404Y02317*
X02254*
X02211Y0236*
X02217Y02374*
X02205Y02405*
X02174Y02417*
G37*
G36*
X01574Y02317D02*
X01544Y02305D01*
X01532Y02274*
X01544Y02244*
X01574Y02232*
X01605Y02244*
X01617Y02274*
X01605Y02305*
X01574Y02317*
G37*
G36*
X02174Y02217D02*
X02144Y02205D01*
X02132Y02174*
X02144Y02144*
X02174Y02132*
X02205Y02144*
X02217Y02174*
X02205Y02205*
X02174Y02217*
G37*
G36*
X0244Y02244D02*
X0241Y02231D01*
X02404Y02217*
X02401*
X0239Y02213*
X02188Y02011*
X02174Y02017*
X02144Y02005*
X02132Y01974*
X02144Y01944*
X02174Y01932*
X02205Y01944*
X02217Y01974*
X02211Y01988*
X02399Y02176*
X02409Y02174*
X0241Y02171*
X0244Y02158*
X02471Y02171*
X02483Y02201*
X02471Y02231*
X0244Y02244*
G37*
%LNmcu_ecg_combine_board-3*%
%LPD*%
G54D10*
X0282Y0136D02*
Y0142D01*
Y02225*
X02643Y02401D02*
X0282Y02225D01*
X0244Y02401D02*
X02643D01*
X02725Y01515D02*
X0282Y0142D01*
X0177Y01515D02*
X02725D01*
X01675Y0142D02*
X0177Y01515D01*
X01675Y0136D02*
Y0142D01*
X02174Y01574D02*
X02305Y01705D01*
Y01965*
X0244Y02101*
X02174Y01974D02*
X02401Y02201D01*
X0244*
X02174Y02374D02*
X02248Y02301D01*
X0244*
X02174Y02574D02*
X02265Y02665D01*
Y02735*
X02075D02*
X02265D01*
X01714Y02374D02*
X02075Y02735D01*
X01574Y02374D02*
X01714D01*
G54D11*
X0188Y0238D02*
X02174Y02674D01*
X0188Y0174D02*
Y0238D01*
X01575Y01435D02*
X0188Y0174D01*
X01575Y0136D02*
Y01435D01*
G54D12*
X0292Y0136D03*
X02675D03*
G54D13*
X0282Y0136D03*
X01575D03*
X01675D03*
X01775D03*
X01875D03*
X01975D03*
X02075D03*
X02175D03*
X02275D03*
X02375D03*
X02475D03*
X02575D03*
X01574Y02674D03*
Y02574D03*
Y02474D03*
Y02374D03*
Y02274D03*
Y02174D03*
Y02074D03*
Y01974D03*
Y01874D03*
Y01774D03*
Y01674D03*
X0244Y02001D03*
Y02101D03*
Y02201D03*
Y02301D03*
X02174Y02674D03*
Y02574D03*
Y02474D03*
Y02374D03*
Y02274D03*
Y02174D03*
Y02074D03*
Y01974D03*
Y01874D03*
Y01774D03*
Y01674D03*
G54D14*
X01574Y01574D03*
X0244Y02401D03*
X02174Y01574D03*
M02*