%FSTAX23Y23*%
%MOIN*%
%SFA1B1*%

%IPPOS*%
%ADD43C,0.004016*%
%LNfpga_radio-1*%
%LPD*%
G54D43*
X02196Y02181D02*
X022Y02185D01*
X02206*
X0221Y02181*
Y02168*
X02206Y02165*
X022*
X02196Y02168*
X0219Y02181D02*
X02186Y02185D01*
X0218*
X02176Y02181*
Y02178*
X0218Y02175*
X02183*
X0218*
X02176Y02171*
Y02168*
X0218Y02165*
X02186*
X0219Y02168*
X02156Y02185D02*
X02163Y02181D01*
X0217Y02175*
Y02168*
X02166Y02165*
X0216*
X02156Y02168*
Y02171*
X0216Y02175*
X0217*
X02266Y02181D02*
X0227Y02185D01*
X02276*
X0228Y02181*
Y02168*
X02276Y02165*
X0227*
X02266Y02168*
X0226Y02181D02*
X02256Y02185D01*
X0225*
X02246Y02181*
Y02178*
X0225Y02175*
X02253*
X0225*
X02246Y02171*
Y02168*
X0225Y02165*
X02256*
X0226Y02168*
X02226Y02185D02*
X0224D01*
Y02175*
X02233Y02178*
X0223*
X02226Y02175*
Y02168*
X0223Y02165*
X02236*
X0224Y02168*
X02486Y02071D02*
X0249Y02075D01*
X02496*
X025Y02071*
Y02058*
X02496Y02055*
X0249*
X02486Y02058*
X02466Y02055D02*
X0248D01*
X02466Y02068*
Y02071*
X0247Y02075*
X02476*
X0248Y02071*
X0246Y02058D02*
X02456Y02055D01*
X0245*
X02446Y02058*
Y02071*
X0245Y02075*
X02456*
X0246Y02071*
Y02068*
X02456Y02065*
X02446*
X02411Y02071D02*
X02415Y02075D01*
X02421*
X02425Y02071*
Y02058*
X02421Y02055*
X02415*
X02411Y02058*
X02391Y02055D02*
X02405D01*
X02391Y02068*
Y02071*
X02395Y02075*
X02401*
X02405Y02071*
X02385D02*
X02381Y02075D01*
X02375*
X02371Y02071*
Y02068*
X02375Y02065*
X02371Y02061*
Y02058*
X02375Y02055*
X02381*
X02385Y02058*
Y02061*
X02381Y02065*
X02385Y02068*
Y02071*
X02381Y02065D02*
X02375D01*
X02393Y01938D02*
X02389Y01934D01*
X02383*
X02379Y01938*
Y01951*
X02383Y01954*
X02389*
X02393Y01951*
X02413Y01954D02*
X02399D01*
X02413Y01941*
Y01938*
X02409Y01934*
X02403*
X02399Y01938*
X02419D02*
X02423Y01934D01*
X02429*
X02433Y01938*
Y01941*
X02429Y01944*
X02426*
X02429*
X02433Y01948*
Y01951*
X02429Y01954*
X02423*
X02419Y01951*
X02398Y01763D02*
X02395Y0176D01*
X02388*
X02385Y01763*
Y01776*
X02388Y0178*
X02395*
X02398Y01776*
X02418Y0178D02*
X02405D01*
X02418Y01766*
Y01763*
X02415Y0176*
X02408*
X02405Y01763*
X02438Y0178D02*
X02425D01*
X02438Y01766*
Y01763*
X02435Y0176*
X02428*
X02425Y01763*
X02683Y01878D02*
X02679Y01874D01*
X02673*
X02669Y01878*
Y01891*
X02673Y01894*
X02679*
X02683Y01891*
X02703Y01894D02*
X02689D01*
X02703Y01881*
Y01878*
X02699Y01874*
X02693*
X02689Y01878*
X02709Y01894D02*
X02716D01*
X02713*
Y01874*
X02709Y01878*
X02683Y01813D02*
X0268Y0181D01*
X02673*
X0267Y01813*
Y01826*
X02673Y0183*
X0268*
X02683Y01826*
X02703Y0183D02*
X0269D01*
X02703Y01816*
Y01813*
X027Y0181*
X02693*
X0269Y01813*
X0271D02*
X02713Y0181D01*
X0272*
X02723Y01813*
Y01826*
X0272Y0183*
X02713*
X0271Y01826*
Y01813*
X01941Y01791D02*
X01945Y01795D01*
X01951*
X01955Y01791*
Y01778*
X01951Y01775*
X01945*
X01941Y01778*
X01935Y01775D02*
X01928D01*
X01931*
Y01795*
X01935Y01791*
X01918Y01778D02*
X01915Y01775D01*
X01908*
X01905Y01778*
Y01791*
X01908Y01795*
X01915*
X01918Y01791*
Y01788*
X01915Y01785*
X01905*
X02091Y01836D02*
X02095Y0184D01*
X02101*
X02105Y01836*
Y01823*
X02101Y0182*
X02095*
X02091Y01823*
X02085Y0182D02*
X02078D01*
X02081*
Y0184*
X02085Y01836*
X02068D02*
X02065Y0184D01*
X02058*
X02055Y01836*
Y01833*
X02058Y0183*
X02055Y01826*
Y01823*
X02058Y0182*
X02065*
X02068Y01823*
Y01826*
X02065Y0183*
X02068Y01833*
Y01836*
X02065Y0183D02*
X02058D01*
X01851Y02351D02*
X01855Y02355D01*
X01861*
X01865Y02351*
Y02338*
X01861Y02335*
X01855*
X01851Y02338*
X01845Y02335D02*
X01838D01*
X01841*
Y02355*
X01845Y02351*
X01815Y02355D02*
X01828D01*
Y02345*
X01821Y02348*
X01818*
X01815Y02345*
Y02338*
X01818Y02335*
X01825*
X01828Y02338*
X01851Y02431D02*
X01855Y02435D01*
X01861*
X01865Y02431*
Y02418*
X01861Y02415*
X01855*
X01851Y02418*
X01845Y02415D02*
X01838D01*
X01841*
Y02435*
X01845Y02431*
X01818Y02415D02*
Y02435D01*
X01828Y02425*
X01815*
X02523Y02298D02*
X0252Y02295D01*
X02513*
X0251Y02298*
Y02311*
X02513Y02315*
X0252*
X02523Y02311*
X0253Y02315D02*
X02536D01*
X02533*
Y02295*
X0253Y02298*
X02546D02*
X0255Y02295D01*
X02556*
X0256Y02298*
Y02301*
X02556Y02305*
X02553*
X02556*
X0256Y02308*
Y02311*
X02556Y02315*
X0255*
X02546Y02311*
X02417Y02396D02*
X02414Y02393D01*
X02407*
X02404Y02396*
Y0241*
X02407Y02413*
X02414*
X02417Y0241*
X02424Y02413D02*
X02431D01*
X02427*
Y02393*
X02424Y02396*
X02454Y02413D02*
X02441D01*
X02454Y024*
Y02396*
X02451Y02393*
X02444*
X02441Y02396*
X02173Y02288D02*
X0217Y02285D01*
X02163*
X0216Y02288*
Y02301*
X02163Y02305*
X0217*
X02173Y02301*
X0218D02*
X02183Y02305D01*
X0219*
X02193Y02301*
Y02288*
X0219Y02285*
X02183*
X0218Y02288*
Y02291*
X02183Y02295*
X02193*
X02173Y02223D02*
X0217Y0222D01*
X02163*
X0216Y02223*
Y02236*
X02163Y0224*
X0217*
X02173Y02236*
X0218Y02223D02*
X02183Y0222D01*
X0219*
X02193Y02223*
Y02226*
X0219Y0223*
X02193Y02233*
Y02236*
X0219Y0224*
X02183*
X0218Y02236*
Y02233*
X02183Y0223*
X0218Y02226*
Y02223*
X02183Y0223D02*
X0219D01*
X02178Y01908D02*
X02175Y01905D01*
X02168*
X02165Y01908*
Y01921*
X02168Y01925*
X02175*
X02178Y01921*
X02185Y01905D02*
X02198D01*
Y01908*
X02185Y01921*
Y01925*
X02178Y01848D02*
X02175Y01845D01*
X02168*
X02165Y01848*
Y01861*
X02168Y01865*
X02175*
X02178Y01861*
X02198Y01845D02*
X02191Y01848D01*
X02185Y01855*
Y01861*
X02188Y01865*
X02195*
X02198Y01861*
Y01858*
X02195Y01855*
X02185*
M02*