%FSTAX23Y23*%
%MOIN*%
%SFA1B1*%

%IPPOS*%
%AMD35*
1,1,0.095433,0.000000,0.000000*
1,0,0.075433,0.000000,0.000000*
4,0,4,0.030200,0.037300,-0.037300,-0.030200,-0.030200,-0.037300,0.037300,0.030200,0.030200,0.037300,0.0*
4,0,4,-0.030200,0.037300,0.037300,-0.030200,0.030200,-0.037300,-0.037300,0.030200,-0.030200,0.037300,0.0*
%
%AMD38*
1,1,0.080000,0.000000,0.000000*
1,0,0.060000,0.000000,0.000000*
4,0,4,0.024700,0.031800,-0.031800,-0.024700,-0.024700,-0.031800,0.031800,0.024700,0.024700,0.031800,0.0*
4,0,4,-0.024700,0.031800,0.031800,-0.024700,0.024700,-0.031800,-0.031800,0.024700,-0.024700,0.031800,0.0*
%
%ADD32C,0.040000*%
%ADD33C,0.060000*%
%ADD34C,0.075433*%
G04~CAMADD=35~12~0.0~0.0~0.0~0.0~0.0~0.0~0~954.3~754.3~0.0~45.0~4~100.0~0.0~0.0~0.0~0~0.0~0.0~0.0~0.0~954.3~954.3*
%ADD35D35*%
%ADD36C,0.099055*%
%ADD37C,0.107008*%
G04~CAMADD=38~12~0.0~0.0~0.0~0.0~0.0~0.0~0~800.0~600.0~0.0~45.0~4~100.0~0.0~0.0~0.0~0~0.0~0.0~0.0~0.0~800.0~800.0*
%ADD38D38*%
%ADD39C,0.047992*%
%LNfpga_radio-1*%
%LPD*%
G54D32*
X01087Y0277D02*
Y02772D01*
X03035*
X03037Y0277*
Y01477D02*
Y0277D01*
X01088Y01477D02*
X03037D01*
X01087Y01476D02*
X01088Y01477D01*
X01087Y01476D02*
Y0277D01*
G54D33*
X02541Y01751D03*
X02355Y01971D03*
X01445Y02385D03*
X02695Y02195D03*
X02848Y02019D03*
X0211Y02105D03*
X02765Y0227D03*
X0152Y01815D03*
X0254Y02225D03*
Y02265D03*
X0269D03*
X02305Y02345D03*
X02308Y01972D03*
X0212Y02045D03*
X01563Y02284D03*
X02325Y02497D03*
G54D34*
X02657Y01661D03*
Y01561D03*
X02557Y01661D03*
X02457Y01561D03*
X02357Y01661D03*
Y01561D03*
X02257Y01661D03*
Y01561D03*
X01272Y02332D03*
X0178Y017D03*
X01941Y01598D03*
X02041D03*
X01378Y02332D03*
X01664Y02668D03*
X01764D03*
X01864D03*
X01964D03*
X02064D03*
X02164D03*
X02264D03*
X02364D03*
X02464D03*
X02564D03*
X02664D03*
X02764D03*
X0293Y02681D03*
Y02581D03*
Y02481D03*
Y02381D03*
Y02281D03*
Y02181D03*
Y02081D03*
Y01981D03*
Y01881D03*
Y01781D03*
Y01681D03*
Y01581D03*
X0168Y017D03*
G54D35*
X02557Y01561D03*
X02457Y01661D03*
X01778Y01926D03*
X01684D03*
G54D36*
X01282Y01749D03*
X01285Y02545D03*
G54D37*
X01182Y01849D03*
X01382D03*
Y01649D03*
X01182D03*
X01185Y02645D03*
X01385D03*
Y02445D03*
X01185D03*
G54D38*
X02679Y01773D03*
X0247Y02235D03*
X02535Y0199D03*
X0254Y0234D03*
X01545Y01855D03*
X01554Y02028D03*
X01842Y02462D03*
X01765Y02285D03*
X02345Y02345D03*
X02508Y01931D03*
X02344Y01763D03*
X02045Y02425D03*
X02116Y01908D03*
X01491Y02285D03*
X01312Y0207D03*
G54D39*
X02811Y01736D03*
X02852Y01653D03*
X02811Y0157D03*
X02728Y01736D03*
X02769Y01653D03*
X02645Y02397D03*
Y01736D03*
X02562Y02066D03*
X02521Y02149D03*
X0248Y02066D03*
Y01736D03*
X02438Y0248D03*
X02397Y02232D03*
Y02066D03*
X02438Y01984D03*
X02356Y02149D03*
X02314Y02066D03*
X02273Y01984D03*
X02232Y01736D03*
X02149Y02232D03*
X0219Y01984D03*
X02149Y01736D03*
X0219Y01653D03*
X02149Y0157D03*
X02108Y02645D03*
Y02314D03*
Y02149D03*
Y01984D03*
X02066Y01736D03*
X02108Y01653D03*
X02025D03*
X01818Y02562D03*
Y02397D03*
Y01736D03*
X01777Y0248D03*
Y02149D03*
X01653Y02562D03*
X01694Y0248D03*
Y01653D03*
X0157Y02232D03*
X01612Y02149D03*
X0157Y01901D03*
X01488Y02066D03*
Y01901D03*
X01529Y01653D03*
X01405Y02232D03*
Y02066D03*
X01446Y01984D03*
Y01818D03*
X01405Y0157D03*
X01322Y02397D03*
X01364Y02149D03*
Y01984D03*
X01322Y01901D03*
Y0157D03*
X01281Y02645D03*
Y0248D03*
X0124Y02066D03*
Y01901D03*
X01281Y01818D03*
Y01653D03*
X0124Y0157D03*
X01157Y02562D03*
X01198Y02314D03*
X01157Y02232D03*
X01198Y02149D03*
X01157Y02066D03*
Y01736D03*
Y0157D03*
M02*