%FSTAX23Y23*%
%MOIN*%
%SFA1B1*%

%IPPOS*%
%ADD9500C,0.007992*%
%ADD9501C,0.020000*%
%ADD9502C,0.035433*%
%ADD9503C,0.059055*%
%ADD9504C,0.067008*%
%LNfpga_radio-1*%
%LPD*%
G54D9500*
X01694Y01653D03*
X01818Y01736D03*
X02066D03*
X02149D03*
X02232D03*
X0219Y01653D03*
X02108D03*
X02025D03*
X02149Y0157D03*
X0219Y01984D03*
X02273D03*
X02314Y02066D03*
X02397D03*
X0248D03*
X02562D03*
X02521Y02149D03*
X02356D03*
X02397Y02232D03*
X02149D03*
X02108Y02314D03*
Y02149D03*
Y01984D03*
X02438D03*
X0248Y01736D03*
X02645D03*
X02728D03*
X02811D03*
X02852Y01653D03*
X02769D03*
X02811Y0157D03*
X02645Y02397D03*
X02438Y0248D03*
X02108Y02645D03*
X01818Y02562D03*
X01777Y0248D03*
X01694D03*
X01653Y02562D03*
X01818Y02397D03*
X01777Y02149D03*
X01612D03*
X0157Y02232D03*
Y01901D03*
X01488D03*
X01446Y01984D03*
X01364D03*
X01405Y02066D03*
X01488D03*
X01364Y02149D03*
X01405Y02232D03*
X01322Y02397D03*
X01281Y0248D03*
Y02645D03*
X01157Y02562D03*
X01198Y02314D03*
X01157Y02232D03*
X01198Y02149D03*
X0124Y02066D03*
X01157D03*
X0124Y01901D03*
X01322D03*
X01281Y01818D03*
X01446D03*
X01529Y01653D03*
X01405Y0157D03*
X01322D03*
X0124D03*
X01157D03*
Y01736D03*
X01281Y01653D03*
G54D9501*
X01563Y02284D03*
X01765Y02285D03*
X01842Y02462D03*
X02045Y02425D03*
X02305Y02345D03*
X02345D03*
X02325Y02497D03*
X0254Y0234D03*
Y02265D03*
Y02225D03*
X0247Y02235D03*
X0269Y02265D03*
X02695Y02195D03*
X02765Y0227D03*
X02848Y02019D03*
X02535Y0199D03*
X02508Y01931D03*
X02355Y01971D03*
X02308Y01972D03*
X02344Y01763D03*
X02541Y01751D03*
X02679Y01773D03*
X02116Y01908D03*
X0212Y02045D03*
X0211Y02105D03*
X01554Y02028D03*
X01545Y01855D03*
X0152Y01815D03*
X01312Y0207D03*
X01491Y02285D03*
X01445Y02385D03*
G54D9502*
X02257Y01561D03*
X02357D03*
X02457D03*
X02557D03*
X02657D03*
Y01661D03*
X02557D03*
X02457D03*
X02357D03*
X02257D03*
X02041Y01598D03*
X01941D03*
X0178Y017D03*
X0168D03*
X01684Y01926D03*
X01778D03*
X01764Y02668D03*
X01664D03*
X01864D03*
X01964D03*
X02064D03*
X02164D03*
X02264D03*
X02364D03*
X02464D03*
X02564D03*
X02664D03*
X02764D03*
X0293Y02681D03*
Y02581D03*
Y02481D03*
Y02381D03*
Y02281D03*
Y02181D03*
Y02081D03*
Y01981D03*
Y01881D03*
Y01781D03*
Y01681D03*
Y01581D03*
X01378Y02332D03*
X01272D03*
G54D9503*
X01282Y01749D03*
X01285Y02545D03*
G54D9504*
X01182Y01649D03*
Y01849D03*
X01382D03*
Y01649D03*
X01385Y02445D03*
Y02645D03*
X01185D03*
Y02445D03*
M02*