%FSTAX23Y23*%
%MOIN*%
%SFA1B1*%

%IPPOS*%
%ADD10R,0.039370X0.043307*%
%ADD11R,0.043307X0.039370*%
%ADD14R,0.059055X0.059055*%
%ADD23C,0.010000*%
%ADD25C,0.019685*%
%ADD26C,0.030000*%
%ADD27C,0.059055*%
%ADD28C,0.080000*%
%ADD29C,0.090000*%
%ADD30R,0.059055X0.059055*%
%ADD31C,0.010000*%
%LNfpga_radio-1*%
%LPD*%
G36*
X03014Y01498D02*
D01*
X03013Y01496*
X01106*
Y02751*
X01107Y02751*
X03014*
Y01498*
G37*
%LNfpga_radio-2*%
%LPC*%
G36*
X02661Y01849D02*
X02635D01*
Y01825*
X02661*
Y01849*
G37*
G36*
X02476D02*
X0245D01*
Y01825*
X02476*
Y01849*
G37*
G36*
X02235Y01845D02*
X02208D01*
Y0182*
X02235*
Y01845*
G37*
G36*
X01177Y01906D02*
X0114Y01891D01*
X01125Y01854*
X01177*
Y01906*
G37*
G36*
X01387D02*
Y01854D01*
X01439*
X01424Y01891*
X01387Y01906*
G37*
G36*
X01377D02*
X0134Y01891D01*
X01325Y01854*
X01377*
Y01906*
G37*
G36*
X01187D02*
Y01854D01*
X01239*
X01224Y01891*
X01187Y01906*
G37*
G36*
X02044Y01835D02*
X0202D01*
Y01808*
X02044*
Y01835*
G37*
G36*
X01377Y01844D02*
X01325D01*
X0134Y01806*
X01377Y01791*
Y01844*
G37*
G36*
X01239D02*
X01187D01*
Y01791*
X01224Y01806*
X01239Y01844*
G37*
G36*
X01177D02*
X01125D01*
X0114Y01806*
X01177Y01791*
Y01844*
G37*
G36*
X01439D02*
X01387D01*
Y01791*
X01424Y01806*
X01439Y01844*
G37*
G36*
X0201Y01835D02*
X01985D01*
Y01808*
X0201*
Y01835*
G37*
G36*
X01964D02*
X0194D01*
Y01808*
X01964*
Y01835*
G37*
G36*
X0193D02*
X01905D01*
Y01808*
X0193*
Y01835*
G37*
G36*
X02508Y01952D02*
X02493Y01946D01*
X02487Y01931*
X02493Y01915*
X02508Y01909*
X02522Y01915*
X02536Y01901*
Y01865*
X02552*
Y01844*
X02536*
Y01795*
X02589*
X02593*
X02598Y0179*
X02625*
Y0182*
Y01849*
X02598*
Y01844*
X02589*
X02573*
Y01865*
X02589*
X02593*
X02598Y0186*
X02624*
Y01889*
Y01919*
X02598*
Y01914*
X02589*
X02553*
X02529Y01938*
X02526Y01939*
X02524Y01946*
X02508Y01952*
G37*
G36*
X02535Y02011D02*
X02519Y02005D01*
X02513Y0199*
X02519Y01974*
X02535Y01968*
X0255Y01974*
X02556Y0199*
X0255Y02005*
X02535Y02011*
G37*
G36*
X0238Y01966D02*
X0236D01*
Y01946*
X02374Y01952*
X0238Y01966*
G37*
G36*
X02235Y01944D02*
X02208D01*
Y0192*
X02235*
Y01944*
G37*
G36*
X0236Y01996D02*
Y01976D01*
X0238*
X02374Y0199*
X0236Y01996*
G37*
G36*
X01312Y02092D02*
X01296Y02086D01*
X0129Y0207*
X01296Y02055*
X01312Y02049*
X01327Y02055*
X01333Y0207*
X01327Y02086*
X01312Y02092*
G37*
G36*
X02843Y02044D02*
X02829Y02038D01*
X02823Y02024*
X02843*
Y02044*
G37*
G36*
X0235Y01996D02*
X02336Y0199D01*
X02334Y01985*
X02324*
X02323Y01987*
X02308Y01994*
X02292Y01987*
X02286Y01972*
X02292Y01957*
X02297Y01955*
Y01939*
X0228*
X02276*
X02271Y01944*
X02245*
Y01915*
X0224*
Y0191*
X02208*
Y01886*
Y01885*
Y01882*
Y01879*
Y01878*
Y01855*
X0224*
Y0185*
X02245*
Y0182*
X02271*
Y01825*
X0228*
X02333*
Y01874*
X02317*
Y0189*
X02333*
Y01939*
X02318*
Y01951*
X02325Y01958*
X02333*
X02336Y01952*
X0235Y01946*
Y01971*
Y01996*
G37*
G36*
X02039Y01933D02*
X0199D01*
Y01919*
X01959*
Y01933*
X0191*
Y0188*
Y01876*
X01905Y01871*
Y01845*
X01964*
Y01871*
X01959*
Y0188*
Y01897*
X0199*
Y0188*
Y01876*
X01985Y01871*
Y01845*
X02044*
Y01871*
X02039*
Y0188*
Y01897*
X02099*
X02101Y01893*
X02116Y01886*
X02131Y01893*
X02138Y01908*
X02131Y01923*
X02116Y0193*
X02101Y01923*
X02099Y01919*
X02039*
Y01933*
G37*
G36*
X02476Y01889D02*
X02449D01*
Y01865*
X02476*
Y01889*
G37*
G36*
X02439Y01924D02*
X02413D01*
Y01919*
X02404*
X02351*
Y0187*
X02367*
Y01844*
X02351*
Y01795*
X02352Y01791*
X02345Y01784*
X02344Y01785*
X02329Y01778*
X02323Y01763*
X02329Y01748*
X02344Y01741*
X0236Y01748*
X02366Y01763*
X02364Y01767*
X02385Y01789*
X02386Y01791*
X02388Y01795*
X02404*
X02408*
X02413Y0179*
X0244*
Y0182*
Y01849*
X02413*
Y01844*
X02404*
X02388*
Y0187*
X02404*
X02408*
X02413Y01865*
X02439*
Y01894*
Y01924*
G37*
G36*
X02661Y01884D02*
X02634D01*
Y0186*
X02661*
Y01884*
G37*
G36*
X01684Y01963D02*
X01657Y01952D01*
X01646Y01926*
X01657Y01899*
X01684Y01888*
X0171Y01899*
X01721Y01926*
X0171Y01952*
X01684Y01963*
G37*
G36*
X02476Y01924D02*
X02449D01*
Y01899*
X02476*
Y01924*
G37*
G36*
X02661Y01919D02*
X02634D01*
Y01894*
X02661*
Y01919*
G37*
G36*
X01778Y01963D02*
X01752Y01952D01*
X01741Y01926*
X01752Y01899*
X01778Y01888*
X01804Y01899*
X01815Y01926*
X01804Y01952*
X01778Y01963*
G37*
G36*
X02476Y01815D02*
X0245D01*
Y0179*
X02476*
Y01815*
G37*
G36*
X01439Y01644D02*
X01387D01*
Y01591*
X01424Y01606*
X01439Y01644*
G37*
G36*
X01377D02*
X01325D01*
X0134Y01606*
X01377Y01591*
Y01644*
G37*
G36*
X01239D02*
X01187D01*
Y01591*
X01224Y01606*
X01239Y01644*
G37*
G36*
X02036Y01639D02*
X02011Y01628D01*
X02001Y01603*
X02036*
Y01639*
G37*
G36*
X02298Y01656D02*
X02262D01*
Y0162*
X02288Y0163*
X02298Y01656*
G37*
G36*
X02252D02*
X02217D01*
X02227Y0163*
X02252Y0162*
Y01656*
G37*
G36*
X02046Y01639D02*
Y01603D01*
X02082*
X02072Y01628*
X02046Y01639*
G37*
G36*
X01177Y01644D02*
X01125D01*
X0114Y01606*
X01177Y01591*
Y01644*
G37*
G36*
X02657Y01598D02*
X02631Y01587D01*
X0262Y01561*
X02631Y01534*
X02657Y01523*
X02684Y01534*
X02695Y01561*
X02684Y01587*
X02657Y01598*
G37*
G36*
X02557D02*
X02531Y01587D01*
X0252Y01561*
X02531Y01534*
X02557Y01523*
X02584Y01534*
X02595Y01561*
X02584Y01587*
X02557Y01598*
G37*
G36*
X02357D02*
X02331Y01587D01*
X0232Y01561*
X02331Y01534*
X02357Y01523*
X02384Y01534*
X02395Y01561*
X02384Y01587*
X02357Y01598*
G37*
G36*
X02292Y01595D02*
X02223D01*
Y01526*
X02292*
Y01595*
G37*
G36*
X02082Y01593D02*
X02046D01*
Y01557*
X02072Y01568*
X02082Y01593*
G37*
G36*
X02036D02*
X02001D01*
X02011Y01568*
X02036Y01557*
Y01593*
G37*
G36*
X0293Y01618D02*
X02903Y01607D01*
X02892Y01581*
X02903Y01554*
X0293Y01543*
X02956Y01554*
X02967Y01581*
X02956Y01607*
X0293Y01618*
G37*
G36*
X02652Y01656D02*
X02617D01*
X02627Y0163*
X02652Y0162*
Y01656*
G37*
G36*
Y01701D02*
X02627Y01691D01*
X02617Y01666*
X02652*
Y01701*
G37*
G36*
X02262D02*
Y01666D01*
X02298*
X02288Y01691*
X02262Y01701*
G37*
G36*
X02252D02*
X02227Y01691D01*
X02217Y01666*
X02252*
Y01701*
G37*
G36*
X02662D02*
Y01666D01*
X02698*
X02688Y01691*
X02662Y01701*
G37*
G36*
X02661Y01815D02*
X02635D01*
Y0179*
X02655*
X02656Y01788*
X0266Y01782*
X02657Y01773*
X02663Y01758*
X02679Y01751*
X02694Y01758*
X027Y01773*
X02694Y01788*
X02679Y01795*
X02669Y01791*
X02663Y01795*
X02661Y01797*
Y01815*
G37*
G36*
X02541Y01773D02*
X02526Y01767D01*
X02519Y01751*
X02521Y01747*
X02504Y0173*
X025Y01722*
Y01672*
X02491Y0167*
X02484Y01687*
X02457Y01698*
X02431Y01687*
X0242Y01661*
X02431Y01634*
X02457Y01623*
X02484Y01634*
X02491Y01651*
X025Y01649*
Y01619*
X02473Y01591*
X02457Y01598*
X02431Y01587*
X0242Y01561*
X02431Y01534*
X02457Y01523*
X02484Y01534*
X02495Y01561*
X02488Y01576*
X02519Y01607*
X02522Y01614*
Y01632*
X02531Y01634*
X02557Y01623*
X02584Y01634*
X02595Y01661*
X02584Y01687*
X02557Y01698*
X02531Y01687*
X02522Y01689*
Y01717*
X02536Y01732*
X02541Y0173*
X02556Y01736*
X02562Y01751*
X02556Y01767*
X02541Y01773*
G37*
G36*
X01282Y01797D02*
X01248Y01783D01*
X01233Y01749*
X01248Y01714*
X01282Y017*
X01316Y01714*
X01331Y01749*
X01316Y01783*
X01282Y01797*
G37*
G36*
X0178Y01738D02*
X01754Y01727D01*
X01743Y017*
X01754Y01674*
X0178Y01663*
X01806Y01674*
X01817Y017*
X01806Y01727*
X0178Y01738*
G37*
G36*
X01177Y01706D02*
X0114Y01691D01*
X01125Y01654*
X01177*
Y01706*
G37*
G36*
X02357Y01698D02*
X02331Y01687D01*
X0232Y01661*
X02331Y01634*
X02357Y01623*
X02384Y01634*
X02395Y01661*
X02384Y01687*
X02357Y01698*
G37*
G36*
X02698Y01656D02*
X02662D01*
Y0162*
X02688Y0163*
X02698Y01656*
G37*
G36*
X01187Y01706D02*
Y01654D01*
X01239*
X01224Y01691*
X01187Y01706*
G37*
G36*
X0168Y01738D02*
X01653Y01727D01*
X01642Y017*
X01653Y01674*
X0168Y01663*
X01706Y01674*
X01717Y017*
X01706Y01727*
X0168Y01738*
G37*
G36*
X01387Y01706D02*
Y01654D01*
X01439*
X01424Y01691*
X01387Y01706*
G37*
G36*
X01377D02*
X0134Y01691D01*
X01325Y01654*
X01377*
Y01706*
G37*
G36*
X02964Y02715D02*
X02895D01*
Y02669*
X02785Y02559*
X02254*
X02249Y02557*
X02243Y02554*
X02007Y02318*
X01998Y02322*
Y02364*
X01982*
Y024*
X01998*
Y02414*
X02027*
X02029Y02409*
X02045Y02403*
X0206Y02409*
X02066Y02425*
X0206Y0244*
X02045Y02446*
X02029Y0244*
X02027Y02435*
X01998*
Y02449*
X01945*
X01941*
X01936Y02454*
X0191*
Y02425*
Y02395*
X01936*
Y024*
X01945*
X01961*
Y02364*
X01945*
X01941*
X01936Y02369*
X0191*
Y0234*
Y0231*
X01936*
Y02315*
X01945*
X01991*
X01994Y02306*
X01848Y0216*
X01844Y02148*
Y0168*
X01848Y01668*
X01907Y0161*
Y01563*
X01976*
Y01632*
X0193*
X01876Y01686*
Y02141*
X02261Y02527*
X02307*
X02309Y02517*
X02306Y02516*
X023Y02502*
X0235*
X02344Y02516*
X02341Y02517*
X02343Y02527*
X02792*
X02803Y02531*
X02918Y02646*
X02964*
Y02715*
G37*
G36*
X0297Y02576D02*
X02935D01*
Y0254*
X0296Y0255*
X0297Y02576*
G37*
G36*
X02925D02*
X02889D01*
X02899Y0255*
X02925Y0254*
Y02576*
G37*
G36*
Y02621D02*
X02899Y02611D01*
X02889Y02586*
X02925*
Y02621*
G37*
G36*
X01242Y0264D02*
X0119D01*
Y02587*
X01227Y02602*
X01242Y0264*
G37*
G36*
X0118D02*
X01127D01*
X01142Y02602*
X0118Y02587*
Y0264*
G37*
G36*
X02935Y02621D02*
Y02586D01*
X0297*
X0296Y02611*
X02935Y02621*
G37*
G36*
X01285Y02593D02*
X0125Y02579D01*
X01236Y02545*
X0125Y0251*
X01285Y02496*
X01319Y0251*
X01333Y02545*
X01319Y02579*
X01285Y02593*
G37*
G36*
X0118Y02502D02*
X01142Y02487D01*
X01127Y0245*
X0118*
Y02502*
G37*
G36*
X0293Y02518D02*
X02903Y02507D01*
X02892Y02481*
X02903Y02454*
X0293Y02443*
X02956Y02454*
X02967Y02481*
X02956Y02507*
X0293Y02518*
G37*
G36*
X01842Y02484D02*
X01827Y02477D01*
X0182Y02462*
X01827Y02447*
X01842Y0244*
X01857Y02447*
X01864Y02462*
X01857Y02477*
X01842Y02484*
G37*
G36*
X0119Y02502D02*
Y0245D01*
X01242*
X01227Y02487*
X0119Y02502*
G37*
G36*
X0235Y02492D02*
X0233D01*
Y02472*
X02344Y02477*
X0235Y02492*
G37*
G36*
X0232D02*
X023D01*
X02306Y02477*
X0232Y02472*
Y02492*
G37*
G36*
X0138Y02502D02*
X01342Y02487D01*
X01327Y0245*
X0138*
Y02502*
G37*
G36*
Y0264D02*
X01327D01*
X01342Y02602*
X0138Y02587*
Y0264*
G37*
G36*
X0118Y02702D02*
X01142Y02687D01*
X01127Y0265*
X0118*
Y02702*
G37*
G36*
X02764Y02705D02*
X02737Y02694D01*
X02727Y02668*
X02737Y02641*
X02764Y0263*
X0279Y02641*
X02801Y02668*
X0279Y02694*
X02764Y02705*
G37*
G36*
X02664D02*
X02637Y02694D01*
X02627Y02668*
X02637Y02641*
X02664Y0263*
X0269Y02641*
X02701Y02668*
X0269Y02694*
X02664Y02705*
G37*
G36*
X0119Y02702D02*
Y0265D01*
X01242*
X01227Y02687*
X0119Y02702*
G37*
G36*
X01821Y02721D02*
D01*
X01612*
X01608Y0272*
X01604Y02718*
X01437Y02551*
X01434Y02543*
Y02493*
X01425Y02487*
X0139Y02502*
Y02445*
Y02387*
X01419Y02399*
X01426Y02392*
X01423Y02385*
X01429Y0237*
X01445Y02363*
X0146Y0237*
X01466Y02385*
X0146Y024*
X01455Y02402*
Y02538*
X01501Y02584*
X0151Y02579*
X01509Y02577*
Y02308*
X015Y02303*
X01491Y02307*
X01475Y023*
X01469Y02285*
X01475Y0227*
X01491Y02263*
X015Y02267*
X01509Y02262*
Y01832*
X01504Y0183*
X01498Y01815*
X01504Y01799*
X0152Y01793*
X01535Y01799*
X01541Y01815*
X01536Y01826*
X01543Y01833*
X01545Y01833*
X0156Y01839*
X01566Y01855*
X0156Y0187*
X01545Y01876*
X01539Y01874*
X0153Y01879*
Y02007*
X01539Y02013*
X01554Y02006*
X01569Y02013*
X01575Y02028*
X01569Y02043*
X01554Y0205*
X01539Y02043*
X0153Y02049*
Y02572*
X01615Y02657*
X01629*
Y02633*
X01698*
Y027*
X01731*
X01736Y02691*
X01727Y02668*
X01737Y02641*
X01753Y02635*
Y02599*
X01556Y02402*
X01553Y02394*
Y02301*
X01548Y02299*
X01542Y02284*
X01548Y02269*
X01563Y02262*
X01579Y02269*
X01585Y02284*
X01579Y02299*
X01574Y02301*
Y0239*
X01772Y02587*
X01772Y02589*
X01775Y02595*
Y02635*
X0179Y02641*
X01801Y02668*
X01792Y02691*
X01797Y027*
X01817*
X01833Y02683*
X01827Y02668*
X01837Y02641*
X01864Y0263*
X0189Y02641*
X01901Y02668*
X0189Y02694*
X01864Y02705*
X01848Y02699*
X01829Y02718*
X01821Y02721*
G37*
G36*
X0139Y02702D02*
Y0265D01*
X01442*
X01427Y02687*
X0139Y02702*
G37*
G36*
X0138D02*
X01342Y02687D01*
X01327Y0265*
X0138*
Y02702*
G37*
G36*
X02564Y02705D02*
X02537Y02694D01*
X02527Y02668*
X02537Y02641*
X02564Y0263*
X0259Y02641*
X02601Y02668*
X0259Y02694*
X02564Y02705*
G37*
G36*
X02064D02*
X02037Y02694D01*
X02027Y02668*
X02037Y02641*
X02064Y0263*
X0209Y02641*
X02101Y02668*
X0209Y02694*
X02064Y02705*
G37*
G36*
X01964D02*
X01937Y02694D01*
X01927Y02668*
X01937Y02641*
X01964Y0263*
X0199Y02641*
X02001Y02668*
X0199Y02694*
X01964Y02705*
G37*
G36*
X01442Y0264D02*
X0139D01*
Y02587*
X01427Y02602*
X01442Y0264*
G37*
G36*
X02164Y02705D02*
X02137Y02694D01*
X02127Y02668*
X02137Y02641*
X02164Y0263*
X0219Y02641*
X02201Y02668*
X0219Y02694*
X02164Y02705*
G37*
G36*
X02464D02*
X02437Y02694D01*
X02427Y02668*
X02437Y02641*
X02464Y0263*
X0249Y02641*
X02501Y02668*
X0249Y02694*
X02464Y02705*
G37*
G36*
X02364D02*
X02337Y02694D01*
X02327Y02668*
X02337Y02641*
X02364Y0263*
X0239Y02641*
X02401Y02668*
X0239Y02694*
X02364Y02705*
G37*
G36*
X02264D02*
X02237Y02694D01*
X02227Y02668*
X02237Y02641*
X02264Y0263*
X0229Y02641*
X02301Y02668*
X0229Y02694*
X02264Y02705*
G37*
G36*
X019Y02454D02*
X01873D01*
Y0243*
X019*
Y02454*
G37*
G36*
X0272Y0219D02*
X027D01*
Y0217*
X02714Y02175*
X0272Y0219*
G37*
G36*
X0269D02*
X0267D01*
X02675Y02175*
X0269Y0217*
Y0219*
G37*
G36*
X0293Y02218D02*
X02903Y02207D01*
X02892Y02181*
X02903Y02154*
X0293Y02143*
X02956Y02154*
X02967Y02181*
X02956Y02207*
X0293Y02218*
G37*
G36*
X0269Y0222D02*
X02675Y02214D01*
X0267Y022*
X0269*
Y0222*
G37*
G36*
X0293Y02318D02*
X02903Y02307D01*
X02892Y02281*
X02903Y02254*
X0293Y02243*
X02956Y02254*
X02967Y02281*
X02956Y02307*
X0293Y02318*
G37*
G36*
X0269Y02286D02*
X02674Y0228D01*
X02668Y02265*
X02674Y02249*
X0269Y02243*
X02694Y02245*
X02715Y02224*
X02712Y02219*
X02709Y02215*
X027Y0222*
Y022*
X0272*
X02715Y02209*
X02719Y02212*
X02724Y02215*
X02864Y02075*
Y02049*
X02856Y02043*
X02853Y02044*
Y02019*
Y01994*
X02856Y01995*
X02864Y0199*
Y01934*
X02867Y01926*
X02898Y01895*
X02892Y01881*
X02903Y01854*
X0293Y01843*
X02956Y01854*
X02967Y01881*
X02956Y01907*
X0293Y01918*
X02913Y01911*
X02886Y01939*
Y01971*
X02896Y01972*
X02903Y01954*
X0293Y01943*
X02956Y01954*
X02967Y01981*
X02956Y02007*
X0293Y02018*
X02903Y02007*
X02896Y01989*
X02886Y01991*
Y02071*
X02896Y02072*
X02903Y02054*
X0293Y02043*
X02956Y02054*
X02967Y02081*
X02956Y02107*
X0293Y02118*
X02903Y02107*
X02894Y02084*
X02884*
X02884Y02084*
X02883Y02087*
X02709Y0226*
X02711Y02265*
X02705Y0228*
X0269Y02286*
G37*
G36*
X0223Y02225D02*
X02203D01*
Y022*
X0223*
Y02225*
G37*
G36*
X02255Y02146D02*
X0223D01*
Y02125*
X02219*
Y02146*
X02195*
Y02115*
X0219*
Y0211*
X0216*
Y02083*
X02165*
Y02074*
Y02055*
X02137*
X02135Y0206*
X0212Y02066*
X02104Y0206*
X02098Y02045*
X02104Y02029*
X0212Y02023*
X02135Y02029*
X02137Y02034*
X02165*
Y02021*
X02214*
Y02034*
X02235*
Y02021*
X02284*
Y02074*
Y02078*
X02289Y02083*
Y0211*
X0226*
Y02115*
X02255*
Y02146*
G37*
G36*
X02465Y0211D02*
X0244D01*
Y02083*
X02465*
Y0211*
G37*
G36*
X02429D02*
X02405D01*
Y02083*
X02429*
Y0211*
G37*
G36*
X02395D02*
X0237D01*
Y02083*
X02395*
Y0211*
G37*
G36*
X02499D02*
X02475D01*
Y02083*
X02499*
Y0211*
G37*
G36*
X02289Y02146D02*
X02265D01*
Y0212*
X02289*
Y02146*
G37*
G36*
X02185D02*
X0216D01*
Y0212*
X02185*
Y02146*
G37*
G36*
X0211Y02126D02*
X02094Y0212D01*
X02088Y02105*
X02094Y02089*
X0211Y02083*
X02125Y02089*
X02131Y02105*
X02125Y0212*
X0211Y02126*
G37*
G36*
X02765Y02291D02*
X02749Y02285D01*
X02743Y0227*
X02749Y02254*
X02765Y02248*
X0278Y02254*
X02786Y0227*
X0278Y02285*
X02765Y02291*
G37*
G36*
X02501Y02383D02*
X02474D01*
Y02358*
X02501*
Y02383*
G37*
G36*
X02464D02*
X02437D01*
Y02378*
X02429*
X02375*
Y02355*
X02362*
X0236Y0236*
X02345Y02366*
X02329Y0236*
X0232*
X02305Y02366*
X02289Y0236*
X02283Y02345*
X02289Y02329*
X0229Y02329*
X02288Y02319*
X02275*
X02271*
X02266Y02324*
X0224*
Y02295*
X02235*
Y0229*
X02203*
Y02265*
Y02259*
Y02235*
X02235*
Y0223*
X0224*
Y022*
X02266*
Y02205*
X02275*
X02328*
Y02254*
X02315*
Y0227*
X02328*
Y02319*
X02329Y02322*
X02338Y02325*
X02345Y02323*
X0236Y02329*
X02362Y02334*
X02375*
Y02328*
X02392*
Y02309*
X02376*
Y0226*
X02429*
X02433*
X02438Y02255*
X02447*
X02453Y02247*
X02448Y02235*
X02454Y02219*
X02457Y02218*
X02455Y02208*
X02445*
Y02192*
X02424*
Y02208*
X02375*
Y02155*
Y02151*
X0237Y02146*
Y0212*
X02429*
Y02146*
X02424*
Y02155*
Y02171*
X02445*
Y02155*
Y02151*
X0244Y02146*
Y0212*
X02499*
Y02146*
X02494*
Y02155*
Y02208*
X02484*
X02482Y02218*
X02485Y02219*
X02491Y02235*
X02486Y02247*
X02492Y02255*
X02501*
Y0228*
X0247*
Y0229*
X02501*
Y02314*
X02501*
Y02323*
Y02348*
X02469*
Y02353*
X02464*
Y02383*
G37*
G36*
X019Y02369D02*
X01873D01*
Y02345*
X019*
Y02369*
G37*
G36*
X0118Y0244D02*
X01127D01*
X01142Y02402*
X0118Y02387*
Y0244*
G37*
G36*
X019Y0242D02*
X01873D01*
Y02395*
X019*
Y0242*
G37*
G36*
X0138Y0244D02*
X01327D01*
X01342Y02402*
X0138Y02387*
Y0244*
G37*
G36*
X01242D02*
X0119D01*
Y02387*
X01227Y02402*
X01242Y0244*
G37*
G36*
X0293Y02418D02*
X02903Y02407D01*
X02892Y02381*
X02903Y02354*
X0293Y02343*
X02956Y02354*
X02967Y02381*
X02956Y02407*
X0293Y02418*
G37*
G36*
X01272Y0237D02*
X01246Y02359D01*
X01235Y02332*
X01246Y02306*
X01272Y02295*
X01299Y02306*
X0131Y02332*
X01299Y02359*
X01272Y0237*
G37*
G36*
X01765Y02306D02*
X01749Y023D01*
X01743Y02285*
X01749Y02269*
X01765Y02263*
X0178Y02269*
X01786Y02285*
X0178Y023*
X01765Y02306*
G37*
G36*
X0254Y02286D02*
X02524Y0228D01*
X02518Y02265*
X02524Y02249*
Y0224*
X02518Y02225*
X02524Y02209*
X0254Y02203*
X02544Y02205*
X02789Y0196*
Y01795*
X02792Y01787*
X02894Y01685*
X02892Y01681*
X02903Y01654*
X0293Y01643*
X02956Y01654*
X02967Y01681*
X02956Y01707*
X0293Y01718*
X02903Y01707*
X02902Y01707*
X0281Y01799*
Y01855*
X0282Y01859*
X02894Y01785*
X02892Y01781*
X02903Y01754*
X0293Y01743*
X02956Y01754*
X02967Y01781*
X02956Y01807*
X0293Y01818*
X02903Y01807*
X02902Y01807*
X02825Y01884*
Y0199*
X02824Y01992*
X02831Y01999*
X02843Y01994*
Y02014*
X02823*
X02826Y02007*
X02817Y02002*
X02559Y0226*
X02561Y02265*
X02555Y0228*
X0254Y02286*
G37*
G36*
X01378Y0237D02*
X01352Y02359D01*
X01341Y02332*
X01352Y02306*
X01378Y02295*
X01405Y02306*
X01416Y02332*
X01405Y02359*
X01378Y0237*
G37*
G36*
X0254Y02361D02*
X02524Y02355D01*
X02518Y0234*
X02524Y02324*
X0254Y02318*
X02555Y02324*
X02561Y0234*
X02555Y02355*
X0254Y02361*
G37*
G36*
X019Y02335D02*
X01873D01*
Y0231*
X019*
Y02335*
G37*
G36*
X0223Y02324D02*
X02203D01*
Y023*
X0223*
Y02324*
G37*
%LNfpga_radio-3*%
%LPD*%
G54D10*
X024Y02115D03*
Y02181D03*
X0247Y02115D03*
Y02181D03*
X01935Y0184D03*
Y01906D03*
X02015Y0184D03*
Y01906D03*
X0219Y02115D03*
Y02048D03*
X0226Y02115D03*
Y02048D03*
G54D11*
X0247Y02285D03*
X02403D03*
X02469Y02353D03*
X02402D03*
X02235Y0223D03*
X02301D03*
X02235Y02295D03*
X02301D03*
X02629Y01889D03*
X02562D03*
X0263Y0182D03*
X02563D03*
X02444Y01894D03*
X02377D03*
X02445Y0182D03*
X02378D03*
X0224Y01915D03*
X02306D03*
X0224Y0185D03*
X02306D03*
X01905Y0234D03*
X01971D03*
X01905Y02425D03*
X01971D03*
G54D14*
X02257Y01561D03*
X01941Y01598D03*
X01664Y02668D03*
G54D23*
X02457Y01561D02*
X02511Y01614D01*
Y01722*
X02541Y01751*
X02308Y01916D02*
Y01972D01*
X0247Y02235D02*
X02475D01*
X0247Y02181D02*
Y02235D01*
X0219Y02115D02*
X0226D01*
X02235Y0223D02*
Y02295D01*
X024Y02181D02*
X0247D01*
X02815Y0188D02*
Y0199D01*
X02875Y01934D02*
X0293Y0188D01*
X02875Y01934D02*
Y02079D01*
X028Y01795D02*
Y01965D01*
X0254Y02225D02*
X028Y01965D01*
X0254Y02265D02*
X02815Y0199D01*
X0269Y02265D02*
X02875Y02079D01*
X02403Y02285D02*
Y02345D01*
X02345D02*
X02403D01*
X02305Y02233D02*
Y02345D01*
X02301Y0223D02*
X02305Y02233D01*
X02344Y01763D02*
X02378Y01796D01*
Y0182*
Y01894*
X02306Y0185D02*
Y01915D01*
X01936Y01908D02*
X02116D01*
X01935Y01906D02*
X01936Y01908D01*
X01971Y0234D02*
Y02425D01*
X02045*
X0212Y02045D02*
X02258D01*
X02508Y01931D02*
X02521D01*
X02562Y01889*
X02563Y0182D02*
Y01891D01*
X01563Y02284D02*
Y02394D01*
X01764Y02595*
Y02668*
X01611D02*
X01664D01*
X0152Y02577D02*
X01611Y02668D01*
X0152Y01815D02*
Y02577D01*
X01821Y0271D02*
X01864Y02668D01*
X01612Y0271D02*
X01821D01*
X01445Y02543D02*
X01612Y0271D01*
X01445Y02385D02*
Y02543D01*
X028Y01795D02*
X02915Y0168D01*
X0293*
X02815Y0188D02*
X02915Y0178D01*
X0293*
G54D25*
X0186Y0168D02*
X01941Y01598D01*
X0186Y0168D02*
Y02148D01*
X02254Y02543*
X02792*
X0293Y02681*
G54D26*
X02541Y01751D03*
X02355Y01971D03*
X02679Y01773D03*
X0247Y02235D03*
X01445Y02385D03*
X02695Y02195D03*
X02848Y02019D03*
X0211Y02105D03*
X02535Y0199D03*
X02765Y0227D03*
X0254Y0234D03*
X01545Y01855D03*
X01554Y02028D03*
X01842Y02462D03*
X01765Y02285D03*
X0152Y01815D03*
X0254Y02225D03*
Y02265D03*
X0269D03*
X02345Y02345D03*
X02305D03*
X02508Y01931D03*
X02344Y01763D03*
X02308Y01972D03*
X02045Y02425D03*
X02116Y01908D03*
X0212Y02045D03*
X01491Y02285D03*
X01312Y0207D03*
X01563Y02284D03*
X02325Y02497D03*
G54D27*
X02657Y01661D03*
Y01561D03*
X02557Y01661D03*
Y01561D03*
X02457Y01661D03*
Y01561D03*
X02357Y01661D03*
Y01561D03*
X02257Y01661D03*
X01272Y02332D03*
X0178Y017D03*
X01778Y01926D03*
X02041Y01598D03*
X01378Y02332D03*
X01764Y02668D03*
X01864D03*
X01964D03*
X02064D03*
X02164D03*
X02264D03*
X02364D03*
X02464D03*
X02564D03*
X02664D03*
X02764D03*
X0293Y02581D03*
Y02481D03*
Y02381D03*
Y02281D03*
Y02181D03*
Y02081D03*
Y01981D03*
Y01881D03*
Y01781D03*
Y01681D03*
Y01581D03*
X01684Y01926D03*
X0168Y017D03*
G54D28*
X01282Y01749D03*
X01285Y02545D03*
G54D29*
X01182Y01849D03*
X01382D03*
Y01649D03*
X01182D03*
X01185Y02645D03*
X01385D03*
Y02445D03*
X01185D03*
G54D30*
X0293Y02681D03*
G54D31*
X02811Y01736D03*
X02852Y01653D03*
X02811Y0157D03*
X02728Y01736D03*
X02769Y01653D03*
X02645Y02397D03*
Y01736D03*
X02562Y02066D03*
X02521Y02149D03*
X0248Y02066D03*
Y01736D03*
X02438Y0248D03*
X02397Y02232D03*
Y02066D03*
X02438Y01984D03*
X02356Y02149D03*
X02314Y02066D03*
X02273Y01984D03*
X02232Y01736D03*
X02149Y02232D03*
X0219Y01984D03*
X02149Y01736D03*
X0219Y01653D03*
X02149Y0157D03*
X02108Y02645D03*
Y02314D03*
Y02149D03*
Y01984D03*
X02066Y01736D03*
X02108Y01653D03*
X02025D03*
X01818Y02562D03*
Y02397D03*
Y01736D03*
X01777Y0248D03*
Y02149D03*
X01653Y02562D03*
X01694Y0248D03*
Y01653D03*
X0157Y02232D03*
X01612Y02149D03*
X0157Y01901D03*
X01488Y02066D03*
Y01901D03*
X01529Y01653D03*
X01405Y02232D03*
Y02066D03*
X01446Y01984D03*
Y01818D03*
X01405Y0157D03*
X01322Y02397D03*
X01364Y02149D03*
Y01984D03*
X01322Y01901D03*
Y0157D03*
X01281Y02645D03*
Y0248D03*
X0124Y02066D03*
Y01901D03*
X01281Y01818D03*
Y01653D03*
X0124Y0157D03*
X01157Y02562D03*
X01198Y02314D03*
X01157Y02232D03*
X01198Y02149D03*
X01157Y02066D03*
Y01736D03*
Y0157D03*
M02*