%FSTAX23Y23*%
%MOIN*%
%SFA1B1*%

%IPPOS*%
%ADD45R,0.051378X0.055315*%
%ADD46R,0.055315X0.051378*%
%ADD47R,0.078937X0.055315*%
%ADD48R,0.057283X0.029724*%
%ADD49R,0.071063X0.071063*%
%ADD50R,0.112047X0.071063*%
%ADD51R,0.025787X0.059252*%
%ADD52R,0.039567X0.071063*%
%ADD53O,0.039567X0.071063*%
%ADD54O,0.023819X0.082874*%
%ADD55O,0.082874X0.023819*%
%ADD56R,0.071063X0.035630*%
%ADD57O,0.071063X0.035630*%
%ADD58C,0.042008*%
%ADD59C,0.071063*%
%ADD60C,0.092008*%
%ADD61C,0.102008*%
%ADD62R,0.071063X0.071063*%
%ADD63C,0.022008*%
%LNfpga_radio-1*%
%LPD*%
G54D45*
X01765Y024D03*
Y02333D03*
X0168Y024D03*
Y02333D03*
X028Y02055D03*
Y01988D03*
X0273Y02055D03*
Y01988D03*
X0281Y0241D03*
Y02343D03*
X0273Y0241D03*
Y02343D03*
X0281Y02155D03*
Y02221D03*
X02735Y02155D03*
Y02221D03*
X0193Y02195D03*
Y02128D03*
X0185Y02195D03*
Y02128D03*
X028Y0184D03*
Y01906D03*
X0273Y0184D03*
Y01906D03*
X01595Y0248D03*
Y02546D03*
X01505Y0248D03*
Y02546D03*
X0193Y0196D03*
Y02026D03*
X0185Y0196D03*
Y02026D03*
G54D46*
X01908Y01693D03*
X01975D03*
X01908Y01768D03*
X01975D03*
X0193Y02378D03*
X01863D03*
Y02301D03*
X0193D03*
X01725Y02245D03*
X01658D03*
X01725Y0217D03*
X01658D03*
G54D47*
X0166Y0201D03*
X0175D03*
X0166Y02084D03*
X0175D03*
G54D48*
X01597Y02385D03*
Y0236D03*
Y02334D03*
X01512D03*
Y0236D03*
Y02385D03*
G54D49*
X01312Y02001D03*
X01221D03*
X02257Y01561D03*
X01941Y01598D03*
X01664Y02668D03*
G54D50*
X01266Y02218D03*
G54D51*
X01469Y0159D03*
X01495D03*
X0152D03*
X01546D03*
X01469Y01748D03*
X01495D03*
X0152D03*
X01546D03*
G54D52*
X01528Y02207D03*
G54D53*
X01491Y02207D03*
X01453D03*
X01528Y02113D03*
X01453D03*
G54D54*
X02088Y02422D03*
X02108D03*
X02128D03*
X02147D03*
X02167D03*
X02187D03*
X02206D03*
X02226D03*
X02246D03*
X02265D03*
X02285D03*
X02305D03*
X02325D03*
X02344D03*
X02364D03*
X02384D03*
X02403D03*
X02423D03*
X02443D03*
X02462D03*
X02482D03*
X02502D03*
X02521D03*
X02541D03*
X02561D03*
Y01827D03*
X02541D03*
X02521D03*
X02502D03*
X02482D03*
X02462D03*
X02443D03*
X02423D03*
X02403D03*
X02384D03*
X02364D03*
X02344D03*
X02325D03*
X02305D03*
X02285D03*
X02265D03*
X02246D03*
X02226D03*
X02206D03*
X02187D03*
X02167D03*
X02147D03*
X02128D03*
X02108D03*
X02088D03*
G54D55*
X02622Y02361D03*
Y02341D03*
Y02321D03*
Y02302D03*
Y02282D03*
Y02262D03*
Y02243D03*
Y02223D03*
Y02203D03*
Y02184D03*
Y02164D03*
Y02144D03*
Y02125D03*
Y02105D03*
Y02085D03*
Y02065D03*
Y02046D03*
Y02026D03*
Y02006D03*
Y01987D03*
Y01967D03*
Y01947D03*
Y01928D03*
Y01908D03*
Y01888D03*
X02027D03*
Y01908D03*
Y01928D03*
Y01947D03*
Y01967D03*
Y01987D03*
Y02006D03*
Y02026D03*
Y02046D03*
Y02065D03*
Y02085D03*
Y02105D03*
Y02125D03*
Y02144D03*
Y02164D03*
Y02184D03*
Y02203D03*
Y02223D03*
Y02243D03*
Y02262D03*
Y02282D03*
Y02302D03*
Y02321D03*
Y02341D03*
Y02361D03*
G54D56*
X01686Y01852D03*
X01687Y01622D03*
G54D57*
X01686Y01814D03*
Y01777D03*
X0178Y01852D03*
Y01777D03*
X01687Y01584D03*
Y01547D03*
X01781Y01622D03*
Y01547D03*
G54D58*
X02541Y01751D03*
X02355Y01971D03*
X02679Y01773D03*
X0247Y02235D03*
X01445Y02385D03*
X02695Y02195D03*
X02848Y02019D03*
X0211Y02105D03*
X02535Y0199D03*
X02765Y0227D03*
X0254Y0234D03*
X01545Y01855D03*
X01554Y02028D03*
X01842Y02462D03*
X01765Y02285D03*
X0152Y01815D03*
X0254Y02225D03*
Y02265D03*
X0269D03*
X02345Y02345D03*
X02305D03*
X02508Y01931D03*
X02344Y01763D03*
X02308Y01972D03*
X02045Y02425D03*
X02116Y01908D03*
X0212Y02045D03*
X01491Y02285D03*
X01312Y0207D03*
X01563Y02284D03*
X02325Y02497D03*
G54D59*
X02657Y01661D03*
Y01561D03*
X02557Y01661D03*
Y01561D03*
X02457Y01661D03*
Y01561D03*
X02357Y01661D03*
Y01561D03*
X02257Y01661D03*
X01272Y02332D03*
X0178Y017D03*
X01778Y01926D03*
X02041Y01598D03*
X01378Y02332D03*
X01764Y02668D03*
X01864D03*
X01964D03*
X02064D03*
X02164D03*
X02264D03*
X02364D03*
X02464D03*
X02564D03*
X02664D03*
X02764D03*
X0293Y02581D03*
Y02481D03*
Y02381D03*
Y02281D03*
Y02181D03*
Y02081D03*
Y01981D03*
Y01881D03*
Y01781D03*
Y01681D03*
Y01581D03*
X01684Y01926D03*
X0168Y017D03*
G54D60*
X01282Y01749D03*
X01285Y02545D03*
G54D61*
X01182Y01849D03*
X01382D03*
Y01649D03*
X01182D03*
X01185Y02645D03*
X01385D03*
Y02445D03*
X01185D03*
G54D62*
X0293Y02681D03*
G54D63*
X02811Y01736D03*
X02852Y01653D03*
X02811Y0157D03*
X02728Y01736D03*
X02769Y01653D03*
X02645Y02397D03*
Y01736D03*
X02562Y02066D03*
X02521Y02149D03*
X0248Y02066D03*
Y01736D03*
X02438Y0248D03*
X02397Y02232D03*
Y02066D03*
X02438Y01984D03*
X02356Y02149D03*
X02314Y02066D03*
X02273Y01984D03*
X02232Y01736D03*
X02149Y02232D03*
X0219Y01984D03*
X02149Y01736D03*
X0219Y01653D03*
X02149Y0157D03*
X02108Y02645D03*
Y02314D03*
Y02149D03*
Y01984D03*
X02066Y01736D03*
X02108Y01653D03*
X02025D03*
X01818Y02562D03*
Y02397D03*
Y01736D03*
X01777Y0248D03*
Y02149D03*
X01653Y02562D03*
X01694Y0248D03*
Y01653D03*
X0157Y02232D03*
X01612Y02149D03*
X0157Y01901D03*
X01488Y02066D03*
Y01901D03*
X01529Y01653D03*
X01405Y02232D03*
Y02066D03*
X01446Y01984D03*
Y01818D03*
X01405Y0157D03*
X01322Y02397D03*
X01364Y02149D03*
Y01984D03*
X01322Y01901D03*
Y0157D03*
X01281Y02645D03*
Y0248D03*
X0124Y02066D03*
Y01901D03*
X01281Y01818D03*
Y01653D03*
X0124Y0157D03*
X01157Y02562D03*
X01198Y02314D03*
X01157Y02232D03*
X01198Y02149D03*
X01157Y02066D03*
Y01736D03*
Y0157D03*
M02*