%FSTAX23Y23*%
%MOIN*%
%SFA1B1*%

%IPPOS*%
%ADD40C,0.007874*%
%ADD41C,0.009843*%
%ADD42C,0.023622*%
%ADD43C,0.004016*%
%ADD44C,0.003937*%
%LNfpga_radio-1*%
%LPD*%
G54D40*
X01612Y02067D02*
D01*
X0161Y02067*
X01609Y02067*
X01607Y02066*
X01606Y02065*
X01604Y02065*
X01603Y02064*
X01601Y02063*
X016Y02062*
X01599Y02061*
X01598Y0206*
X01597Y02059*
X01596Y02058*
X01595Y02056*
X01594Y02055*
X01593Y02053*
X01593Y02052*
X01592Y0205*
X01592Y02049*
X01592Y02047*
X01592Y02046*
X01592Y02044*
X01592Y02042*
X01592Y02041*
X01592Y02039*
X01593Y02038*
X01593Y02036*
X01594Y02035*
X01595Y02033*
X01595Y02032*
X01596Y02031*
X01597Y0203*
X01598Y02028*
X016Y02027*
X01601Y02026*
X01602Y02025*
X01603Y02025*
X01605Y02024*
X01606Y02023*
X01608Y02023*
X01609Y02022*
X01611Y02022*
X01612Y02022*
X01559Y01675D02*
D01*
X01558Y01675*
X01558Y01675*
X01557Y01675*
X01557Y01675*
X01556Y01675*
X01556Y01675*
X01556Y01674*
X01555Y01674*
X01555Y01674*
X01554Y01674*
X01554Y01673*
X01554Y01673*
X01554Y01673*
X01553Y01672*
X01553Y01672*
X01553Y01672*
X01553Y01671*
X01552Y01671*
X01552Y0167*
X01552Y0167*
X01552Y01669*
X01552Y01669*
Y01669*
X01552Y01668*
X01552Y01668*
X01552Y01667*
X01552Y01667*
X01553Y01666*
X01553Y01666*
X01553Y01666*
X01553Y01665*
X01554Y01665*
X01554Y01665*
X01554Y01664*
X01554Y01664*
X01555Y01664*
X01555Y01663*
X01556Y01663*
X01556Y01663*
X01556Y01663*
X01557Y01663*
X01557Y01663*
X01558Y01662*
X01558Y01662*
X01559Y01662*
X02207Y01511D02*
X02707D01*
X02207Y01711D02*
X02707D01*
X02207Y01511D02*
Y01711D01*
X02707Y01511D02*
Y01711D01*
X02091Y01548D02*
Y01648D01*
X01891Y01548D02*
X02091D01*
X01891D02*
Y01648D01*
X02091*
X01614Y02024D02*
Y02125D01*
Y0197D02*
Y0207D01*
Y0197D02*
X01795D01*
Y02125*
X01614D02*
X01795D01*
X01558Y02316D02*
Y02403D01*
X01551Y02316D02*
Y02403D01*
Y02316D02*
X01558D01*
X01551Y02403D02*
X01558D01*
X01158Y01942D02*
X01371D01*
Y02277*
X01158Y01942D02*
Y02277D01*
X01371*
X01456Y01691D02*
X01559D01*
X01456Y01647D02*
Y01691D01*
Y01647D02*
X01559D01*
Y01662*
Y01675D02*
Y01691D01*
X01558Y02071D02*
Y02251D01*
X01425D02*
X01558D01*
X01425Y02071D02*
Y02251D01*
Y02071D02*
X01558D01*
X02814Y02618D02*
Y02718D01*
X01614Y02618D02*
X02814D01*
X01614D02*
Y02718D01*
X01689*
X02814*
X02078Y01878D02*
X02571D01*
X02078Y02371D02*
X02571D01*
Y01878D02*
Y02371D01*
X02078Y01878D02*
Y02371D01*
X0288Y01531D02*
X0298D01*
X0288D02*
Y02731D01*
X0298*
Y02656D02*
Y02731D01*
Y01531D02*
Y02656D01*
X01639Y0175D02*
Y01879D01*
Y0175D02*
X01825D01*
Y01879*
X01639D02*
X01825D01*
X0164Y01519D02*
Y01649D01*
Y01519D02*
X01826D01*
Y01649*
X0164D02*
X01826D01*
G54D41*
X01517Y02416D02*
D01*
X01517Y02416*
X01517Y02416*
X01517Y02417*
X01517Y02417*
X01517Y02417*
X01517Y02418*
X01517Y02418*
X01516Y02418*
X01516Y02418*
X01516Y02419*
X01516Y02419*
X01515Y02419*
X01515Y02419*
X01515Y0242*
X01515Y0242*
X01514Y0242*
X01514Y0242*
X01514Y0242*
X01513Y0242*
X01513Y0242*
X01513Y0242*
X01512Y02421*
X01512*
X01512Y0242*
X01511Y0242*
X01511Y0242*
X01511Y0242*
X0151Y0242*
X0151Y0242*
X0151Y0242*
X01509Y0242*
X01509Y02419*
X01509Y02419*
X01509Y02419*
X01508Y02419*
X01508Y02418*
X01508Y02418*
X01508Y02418*
X01508Y02418*
X01508Y02417*
X01507Y02417*
X01507Y02417*
X01507Y02416*
X01507Y02416*
X01507Y02416*
X01507Y02415*
X01507Y02415*
X01507Y02415*
X01507Y02414*
X01508Y02414*
X01508Y02414*
X01508Y02413*
X01508Y02413*
X01508Y02413*
X01508Y02412*
X01509Y02412*
X01509Y02412*
X01509Y02412*
X01509Y02412*
X0151Y02411*
X0151Y02411*
X0151Y02411*
X01511Y02411*
X01511Y02411*
X01511Y02411*
X01512Y02411*
X01512Y02411*
X01512*
X01513Y02411*
X01513Y02411*
X01513Y02411*
X01514Y02411*
X01514Y02411*
X01514Y02411*
X01515Y02411*
X01515Y02412*
X01515Y02412*
X01515Y02412*
X01516Y02412*
X01516Y02412*
X01516Y02413*
X01516Y02413*
X01517Y02413*
X01517Y02414*
X01517Y02414*
X01517Y02414*
X01517Y02415*
X01517Y02415*
X01517Y02415*
X01517Y02416*
X02032Y02388D02*
D01*
X02032Y02389*
X02032Y02389*
X02032Y02389*
X02032Y0239*
X02032Y0239*
X02032Y0239*
X02032Y02391*
X02031Y02391*
X02031Y02391*
X02031Y02391*
X02031Y02392*
X02031Y02392*
X0203Y02392*
X0203Y02392*
X0203Y02393*
X02029Y02393*
X02029Y02393*
X02029Y02393*
X02028Y02393*
X02028Y02393*
X02028Y02393*
X02027Y02393*
X02027*
X02027Y02393*
X02026Y02393*
X02026Y02393*
X02026Y02393*
X02025Y02393*
X02025Y02393*
X02025Y02393*
X02025Y02392*
X02024Y02392*
X02024Y02392*
X02024Y02392*
X02023Y02391*
X02023Y02391*
X02023Y02391*
X02023Y02391*
X02023Y0239*
X02023Y0239*
X02023Y0239*
X02022Y02389*
X02022Y02389*
X02022Y02389*
X02022Y02388*
X02022Y02388*
X02022Y02388*
X02022Y02387*
X02023Y02387*
X02023Y02387*
X02023Y02386*
X02023Y02386*
X02023Y02386*
X02023Y02385*
X02023Y02385*
X02024Y02385*
X02024Y02385*
X02024Y02384*
X02025Y02384*
X02025Y02384*
X02025Y02384*
X02025Y02384*
X02026Y02384*
X02026Y02384*
X02026Y02383*
X02027Y02383*
X02027Y02383*
X02027*
X02028Y02383*
X02028Y02383*
X02028Y02384*
X02029Y02384*
X02029Y02384*
X02029Y02384*
X0203Y02384*
X0203Y02384*
X0203Y02384*
X02031Y02385*
X02031Y02385*
X02031Y02385*
X02031Y02385*
X02031Y02386*
X02032Y02386*
X02032Y02386*
X02032Y02387*
X02032Y02387*
X02032Y02387*
X02032Y02388*
X02032Y02388*
X02032Y02388*
G54D42*
X0213Y02331D02*
D01*
X0213Y02332*
X0213Y02333*
X02129Y02334*
X02129Y02334*
X02129Y02335*
X02129Y02336*
X02128Y02337*
X02128Y02337*
X02127Y02338*
X02127Y02339*
X02126Y02339*
X02126Y0234*
X02125Y02341*
X02124Y02341*
X02124Y02341*
X02123Y02342*
X02122Y02342*
X02121Y02342*
X02121Y02343*
X0212Y02343*
X02119Y02343*
X02118Y02343*
X02117*
X02117Y02343*
X02116Y02343*
X02115Y02343*
X02114Y02342*
X02113Y02342*
X02113Y02342*
X02112Y02341*
X02111Y02341*
X02111Y02341*
X0211Y0234*
X02109Y02339*
X02109Y02339*
X02108Y02338*
X02108Y02337*
X02107Y02337*
X02107Y02336*
X02107Y02335*
X02106Y02334*
X02106Y02334*
X02106Y02333*
X02106Y02332*
X02106Y02331*
X02106Y0233*
X02106Y0233*
X02106Y02329*
X02106Y02328*
X02107Y02327*
X02107Y02326*
X02107Y02326*
X02108Y02325*
X02108Y02324*
X02109Y02324*
X02109Y02323*
X0211Y02322*
X02111Y02322*
X02111Y02321*
X02112Y02321*
X02113Y02321*
X02113Y0232*
X02114Y0232*
X02115Y0232*
X02116Y0232*
X02117Y02319*
X02117Y02319*
X02118*
X02119Y02319*
X0212Y0232*
X02121Y0232*
X02121Y0232*
X02122Y0232*
X02123Y02321*
X02124Y02321*
X02124Y02321*
X02125Y02322*
X02126Y02322*
X02126Y02323*
X02127Y02324*
X02127Y02324*
X02128Y02325*
X02128Y02326*
X02129Y02326*
X02129Y02327*
X02129Y02328*
X02129Y02329*
X0213Y0233*
X0213Y0233*
X0213Y02331*
G54D43*
X01758Y02452D02*
X01755Y02456D01*
X01748*
X01745Y02452*
Y02439*
X01748Y02436*
X01755*
X01758Y02439*
X01765Y02452D02*
X01768Y02456D01*
X01775*
X01778Y02452*
Y02449*
X01775Y02446*
X01771*
X01775*
X01778Y02442*
Y02439*
X01775Y02436*
X01768*
X01765Y02439*
X01675Y02454D02*
X01672Y02457D01*
X01665*
X01662Y02454*
Y02441*
X01665Y02437*
X01672*
X01675Y02441*
X01695Y02437D02*
X01682D01*
X01695Y02451*
Y02454*
X01692Y02457*
X01685*
X01682Y02454*
X02011Y01726D02*
Y01706D01*
X02025*
X02045Y01726D02*
X02031D01*
Y01706*
X02045*
X02031Y01716D02*
X02038D01*
X02051Y01726D02*
Y01706D01*
X02061*
X02065Y0171*
Y01723*
X02061Y01726*
X02051*
X02085Y01706D02*
X02071D01*
X02085Y0172*
Y01723*
X02081Y01726*
X02075*
X02071Y01723*
X02015Y0177D02*
Y0175D01*
X02029*
X02049Y0177D02*
X02035D01*
Y0175*
X02049*
X02035Y0176D02*
X02042D01*
X02055Y0177D02*
Y0175D01*
X02065*
X02069Y01754*
Y01767*
X02065Y0177*
X02055*
X02075Y0175D02*
X02082D01*
X02079*
Y0177*
X02075Y01767*
X02142Y01699D02*
Y01719D01*
X02152*
X02156Y01716*
Y01709*
X02152Y01706*
X02142*
X02172Y01699D02*
Y01719D01*
X02162Y01709*
X02176*
X02731Y01651D02*
X02737D01*
X02734*
Y01671*
X02731Y01668*
X02747D02*
X02751Y01671D01*
X02757*
X02761Y01668*
Y01654*
X02757Y01651*
X02751*
X02747Y01654*
Y01668*
X02738Y01553D02*
X02741Y0155D01*
X02748*
X02751Y01553*
Y01566*
X02748Y0157*
X02741*
X02738Y01566*
Y01563*
X02741Y0156*
X02751*
X02162Y01553D02*
X02169D01*
X02165*
Y01573*
X02162Y01569*
X02171Y01641D02*
X02157D01*
X02171Y01654*
Y01657*
X02167Y01661*
X02161*
X02157Y01657*
X0125Y0157D02*
X01247Y01574D01*
X0124*
X01237Y0157*
Y01567*
X0124Y01564*
X01247*
X0125Y0156*
Y01557*
X01247Y01554*
X0124*
X01237Y01557*
X01257Y01554D02*
Y01574D01*
X01264Y01567*
X0127Y01574*
Y01554*
X01277D02*
Y01567D01*
X01284Y01574*
X0129Y01567*
Y01554*
Y01564*
X01277*
X0131Y01554D02*
X01297D01*
X0131Y01567*
Y0157*
X01307Y01574*
X013*
X01297Y0157*
X01843Y02261D02*
X0184Y02265D01*
X01833*
X0183Y02261*
Y02248*
X01833Y02245*
X0184*
X01843Y02248*
X0185Y02261D02*
X01853Y02265D01*
X0186*
X01863Y02261*
Y02258*
X0186Y02255*
X01856*
X0186*
X01863Y02251*
Y02248*
X0186Y02245*
X01853*
X0185Y02248*
X0188Y02245D02*
Y02265D01*
X0187Y02255*
X01883*
X01923Y02261D02*
X0192Y02265D01*
X01913*
X0191Y02261*
Y02248*
X01913Y02245*
X0192*
X01923Y02248*
X0193Y02261D02*
X01933Y02265D01*
X0194*
X01943Y02261*
Y02258*
X0194Y02255*
X01936*
X0194*
X01943Y02251*
Y02248*
X0194Y02245*
X01933*
X0193Y02248*
X0195Y02261D02*
X01953Y02265D01*
X0196*
X01963Y02261*
Y02258*
X0196Y02255*
X01956*
X0196*
X01963Y02251*
Y02248*
X0196Y02245*
X01953*
X0195Y02248*
X01555Y01985D02*
Y01968D01*
X01558Y01965*
X01565*
X01568Y01968*
Y01985*
X01575Y01982D02*
X01578Y01985D01*
X01585*
X01588Y01982*
Y01978*
X01585Y01975*
X01588Y01972*
Y01968*
X01585Y01965*
X01578*
X01575Y01968*
Y01972*
X01578Y01975*
X01575Y01978*
Y01982*
X01578Y01975D02*
X01585D01*
X01158Y02325D02*
Y02308D01*
X01162Y02305*
X01168*
X01172Y02308*
Y02325*
X01188Y02305D02*
Y02325D01*
X01178Y02315*
X01192*
X0154Y02445D02*
Y02428D01*
X01543Y02425*
X0155*
X01553Y02428*
Y02445*
X01573Y02425D02*
X0156D01*
X01573Y02438*
Y02441*
X0157Y02445*
X01563*
X0156Y02441*
X01456Y0182D02*
Y01803D01*
X01459Y018*
X01466*
X01469Y01803*
Y0182*
X01476Y018D02*
X01482D01*
X01479*
Y0182*
X01476Y01816*
X01268Y02731D02*
X01265Y02735D01*
X01258*
X01255Y02731*
Y02728*
X01258Y02725*
X01265*
X01268Y02721*
Y02718*
X01265Y02715*
X01258*
X01255Y02718*
X01275Y02715D02*
Y02735D01*
X01281Y02728*
X01288Y02735*
Y02715*
X01295D02*
Y02728D01*
X01301Y02735*
X01308Y02728*
Y02715*
Y02725*
X01295*
X01315Y02715D02*
X01321D01*
X01318*
Y02735*
X01315Y02731*
X01912Y0242D02*
Y0244D01*
X01922*
X01925Y02436*
Y0243*
X01922Y02426*
X01912*
X01919D02*
X01925Y0242D01*
X01945D02*
X01932D01*
X01945Y02433*
Y02436*
X01942Y0244*
X01935*
X01932Y02436*
X01445Y02501D02*
Y02521D01*
X01455*
X01459Y02518*
Y02511*
X01455Y02508*
X01445*
X01452D02*
X01459Y02501D01*
X01465D02*
X01472D01*
X01469*
Y02521*
X01465Y02518*
X02073Y01669D02*
Y01689D01*
X02083*
X02087Y01685*
Y01679*
X02083Y01675*
X02073*
X02093Y01685D02*
X02097Y01689D01*
X02103*
X02107Y01685*
Y01682*
X02103Y01679*
X021*
X02103*
X02107Y01675*
Y01672*
X02103Y01669*
X02097*
X02093Y01672*
X01806Y02294D02*
X01803Y02291D01*
Y02284*
X01806Y02281*
X01819*
X01823Y02284*
Y02291*
X01819Y02294*
X01806Y02301D02*
X01803Y02304D01*
Y02311*
X01806Y02314*
X01809*
X01813Y02311*
Y02307*
Y02311*
X01816Y02314*
X01819*
X01823Y02311*
Y02304*
X01819Y02301*
X01823Y02334D02*
Y02321D01*
X01809Y02334*
X01806*
X01803Y02331*
Y02324*
X01806Y02321*
X01773Y02181D02*
X0177Y02185D01*
X01763*
X0176Y02181*
Y02168*
X01763Y02165*
X0177*
X01773Y02168*
X0178Y02181D02*
X01783Y02185D01*
X0179*
X01793Y02181*
Y02178*
X0179Y02175*
X01786*
X0179*
X01793Y02171*
Y02168*
X0179Y02165*
X01783*
X0178Y02168*
X018Y02165D02*
X01806D01*
X01803*
Y02185*
X018Y02181*
X01773Y02251D02*
X0177Y02255D01*
X01763*
X0176Y02251*
Y02238*
X01763Y02235*
X0177*
X01773Y02238*
X0178Y02251D02*
X01783Y02255D01*
X0179*
X01793Y02251*
Y02248*
X0179Y02245*
X01786*
X0179*
X01793Y02241*
Y02238*
X0179Y02235*
X01783*
X0178Y02238*
X018Y02251D02*
X01803Y02255D01*
X0181*
X01813Y02251*
Y02238*
X0181Y02235*
X01803*
X018Y02238*
Y02251*
X02783Y02106D02*
X0278Y0211D01*
X02773*
X0277Y02106*
Y02093*
X02773Y0209*
X0278*
X02783Y02093*
X02803Y0209D02*
X0279D01*
X02803Y02103*
Y02106*
X028Y0211*
X02793*
X0279Y02106*
X0281Y0211D02*
X02823D01*
Y02106*
X0281Y02093*
Y0209*
X02713Y02106D02*
X0271Y0211D01*
X02703*
X027Y02106*
Y02093*
X02703Y0209*
X0271*
X02713Y02093*
X02733Y0209D02*
X0272D01*
X02733Y02103*
Y02106*
X0273Y0211*
X02723*
X0272Y02106*
X02753Y0211D02*
X02746Y02106D01*
X0274Y021*
Y02093*
X02743Y0209*
X0275*
X02753Y02093*
Y02096*
X0275Y021*
X0274*
X02788Y01796D02*
X02785Y018D01*
X02778*
X02775Y01796*
Y01783*
X02778Y0178*
X02785*
X02788Y01783*
X02808Y0178D02*
X02795D01*
X02808Y01793*
Y01796*
X02805Y018*
X02798*
X02795Y01796*
X02828Y018D02*
X02815D01*
Y0179*
X02821Y01793*
X02825*
X02828Y0179*
Y01783*
X02825Y0178*
X02818*
X02815Y01783*
X02724Y01797D02*
X02721Y018D01*
X02714*
X02711Y01797*
Y01783*
X02714Y0178*
X02721*
X02724Y01783*
X02744Y0178D02*
X02731D01*
X02744Y01793*
Y01797*
X02741Y018*
X02734*
X02731Y01797*
X02761Y0178D02*
Y018D01*
X02751Y0179*
X02764*
X01843Y02093D02*
X0184Y02097D01*
X01833*
X0183Y02093*
Y0208*
X01833Y02077*
X0184*
X01843Y0208*
X0185Y02077D02*
X01856D01*
X01853*
Y02097*
X0185Y02093*
X01866Y02097D02*
X0188D01*
Y02093*
X01866Y0208*
Y02077*
X01923Y02093D02*
X0192Y02097D01*
X01913*
X0191Y02093*
Y0208*
X01913Y02077*
X0192*
X01923Y0208*
X0193Y02077D02*
X01936D01*
X01933*
Y02097*
X0193Y02093*
X0196Y02097D02*
X01953Y02093D01*
X01946Y02087*
Y0208*
X0195Y02077*
X01956*
X0196Y0208*
Y02083*
X01956Y02087*
X01946*
X02798Y02306D02*
X02795Y0231D01*
X02788*
X02785Y02306*
Y02293*
X02788Y0229*
X02795*
X02798Y02293*
X02805Y0229D02*
X02811D01*
X02808*
Y0231*
X02805Y02306*
X02821Y0229D02*
X02828D01*
X02825*
Y0231*
X02821Y02306*
X02718D02*
X02715Y0231D01*
X02708*
X02705Y02306*
Y02293*
X02708Y0229*
X02715*
X02718Y02293*
X02725Y0229D02*
X02731D01*
X02728*
Y0231*
X02725Y02306*
X02741D02*
X02745Y0231D01*
X02751*
X02755Y02306*
Y02293*
X02751Y0229*
X02745*
X02741Y02293*
Y02306*
X02803Y02276D02*
X028Y0228D01*
X02793*
X0279Y02276*
Y02263*
X02793Y0226*
X028*
X02803Y02263*
X02823Y0228D02*
X0281D01*
Y0227*
X02816Y02273*
X0282*
X02823Y0227*
Y02263*
X0282Y0226*
X02813*
X0281Y02263*
X02683Y02151D02*
X0268Y02155D01*
X02673*
X0267Y02151*
Y02138*
X02673Y02135*
X0268*
X02683Y02138*
X027Y02135D02*
Y02155D01*
X0269Y02145*
X02703*
X0164Y02522D02*
X01636Y02525D01*
X0163*
X01626Y02522*
Y02509*
X0163Y02505*
X01636*
X0164Y02509*
X01646Y02505D02*
X01653D01*
X0165*
Y02525*
X01646Y02522*
X01966Y02427D02*
Y0241D01*
X01969Y02407*
X01976*
X01979Y0241*
Y02427*
X01999D02*
X01986D01*
Y02417*
X01993Y0242*
X01996*
X01999Y02417*
Y0241*
X01996Y02407*
X01989*
X01986Y0241*
X02845Y0157D02*
X02865D01*
Y0158*
X02861Y01583*
X02848*
X02845Y0158*
Y0157*
X02848Y0159D02*
X02845Y01593D01*
Y016*
X02848Y01603*
X02861*
X02865Y016*
Y01593*
X02861Y0159*
X02848*
X02845Y01665D02*
X02865D01*
Y01675*
X02861Y01678*
X02848*
X02845Y01675*
Y01665*
X02865Y01685D02*
Y01691D01*
Y01688*
X02845*
X02848Y01685*
X02845Y0177D02*
X02865D01*
Y0178*
X02861Y01783*
X02848*
X02845Y0178*
Y0177*
X02865Y01803D02*
Y0179D01*
X02851Y01803*
X02848*
X02845Y018*
Y01793*
X02848Y0179*
X02845Y0187D02*
X02865D01*
Y0188*
X02861Y01883*
X02848*
X02845Y0188*
Y0187*
X02848Y0189D02*
X02845Y01893D01*
Y019*
X02848Y01903*
X02851*
X02855Y019*
Y01896*
Y019*
X02858Y01903*
X02861*
X02865Y019*
Y01893*
X02861Y0189*
X02841Y01954D02*
X02861D01*
Y01964*
X02857Y01968*
X02844*
X02841Y01964*
Y01954*
X02861Y01984D02*
X02841D01*
X02851Y01974*
Y01988*
X02845Y0207D02*
X02865D01*
Y0208*
X02861Y02083*
X02848*
X02845Y0208*
Y0207*
Y02103D02*
Y0209D01*
X02855*
X02851Y02096*
Y021*
X02855Y02103*
X02861*
X02865Y021*
Y02093*
X02861Y0209*
X02845Y0217D02*
X02865D01*
Y0218*
X02861Y02183*
X02848*
X02845Y0218*
Y0217*
Y02203D02*
X02848Y02196D01*
X02855Y0219*
X02861*
X02865Y02193*
Y022*
X02861Y02203*
X02858*
X02855Y022*
Y0219*
X0284Y02265D02*
X0286D01*
Y02275*
X02856Y02278*
X02843*
X0284Y02275*
Y02265*
Y02285D02*
Y02298D01*
X02843*
X02856Y02285*
X0286*
X0284Y02357D02*
X0286D01*
Y02367*
X02857Y0237*
X02843*
X0284Y02367*
Y02357*
X02843Y02377D02*
X0284Y0238D01*
Y02387*
X02843Y0239*
X02847*
X0285Y02387*
X02853Y0239*
X02857*
X0286Y02387*
Y0238*
X02857Y02377*
X02853*
X0285Y0238*
X02847Y02377*
X02843*
X0285Y0238D02*
Y02387D01*
X0284Y02455D02*
X0286D01*
Y02465*
X02856Y02468*
X02843*
X0284Y02465*
Y02455*
X02856Y02475D02*
X0286Y02478D01*
Y02485*
X02856Y02488*
X02843*
X0284Y02485*
Y02478*
X02843Y02475*
X02846*
X0285Y02478*
Y02488*
X02848Y02568D02*
X02845Y02565D01*
Y02558*
X02848Y02555*
X02861*
X02865Y02558*
Y02565*
X02861Y02568*
X02855*
Y02561*
X02865Y02575D02*
X02845D01*
X02865Y02588*
X02845*
Y02595D02*
X02865D01*
Y02605*
X02861Y02608*
X02848*
X02845Y02605*
Y02595*
X02843Y02657D02*
X02856D01*
X02863Y02664*
X02856Y0267*
X02843*
X02846Y0269D02*
X02843Y02687D01*
Y0268*
X02846Y02677*
X02859*
X02863Y0268*
Y02687*
X02859Y0269*
X02846Y0271D02*
X02843Y02707D01*
Y027*
X02846Y02697*
X02859*
X02863Y027*
Y02707*
X02859Y0271*
X01913Y01531D02*
Y01518D01*
X0192Y01511*
X01926Y01518*
Y01531*
X01946Y01528D02*
X01943Y01531D01*
X01936*
X01933Y01528*
Y01515*
X01936Y01511*
X01943*
X01946Y01515*
X01966Y01528D02*
X01963Y01531D01*
X01956*
X01953Y01528*
Y01515*
X01956Y01511*
X01963*
X01966Y01515*
X02028Y01528D02*
X02024Y01531D01*
X02018*
X02014Y01528*
Y01515*
X02018Y01511*
X02024*
X02028Y01515*
Y01521*
X02021*
X02034Y01511D02*
Y01531D01*
X02048Y01511*
Y01531*
X02054D02*
Y01511D01*
X02064*
X02068Y01515*
Y01528*
X02064Y01531*
X02054*
X01619Y02599D02*
Y02579D01*
X01629*
X01632Y02583*
Y02596*
X01629Y02599*
X01619*
X01642Y02593D02*
X01649D01*
X01652Y02589*
Y02579*
X01642*
X01639Y02583*
X01642Y02586*
X01652*
X01662Y02596D02*
Y02593D01*
X01659*
X01665*
X01662*
Y02583*
X01665Y02579*
X01679Y02593D02*
X01685D01*
X01689Y02589*
Y02579*
X01679*
X01675Y02583*
X01679Y02586*
X01689*
X01736Y02596D02*
X01733Y02599D01*
X01726*
X01723Y02596*
Y02583*
X01726Y02579*
X01733*
X01736Y02583*
X01746Y02579D02*
X01753D01*
X01756Y02583*
Y02589*
X01753Y02593*
X01746*
X01743Y02589*
Y02583*
X01746Y02579*
X01763D02*
Y02593D01*
X01766*
X0177Y02589*
Y02579*
Y02589*
X01773Y02593*
X01776Y02589*
Y02579*
X01783Y02573D02*
Y02593D01*
X01793*
X01796Y02589*
Y02583*
X01793Y02579*
X01783*
X01815D02*
Y02599D01*
X01825*
X01829Y02596*
Y02589*
X01825Y02586*
X01815*
X01822D02*
X01829Y02579D01*
X01849Y02596D02*
X01845Y02599D01*
X01839*
X01835Y02596*
Y02593*
X01839Y02589*
X01845*
X01849Y02586*
Y02583*
X01845Y02579*
X01839*
X01835Y02583*
X01869Y02596D02*
X01865Y02599D01*
X01859*
X01855Y02596*
Y02593*
X01859Y02589*
X01865*
X01869Y02586*
Y02583*
X01865Y02579*
X01859*
X01855Y02583*
X01875Y02576D02*
X01889D01*
X01909Y02599D02*
X01895D01*
Y02579*
X01909*
X01895Y02589D02*
X01902D01*
X01915Y02579D02*
Y02599D01*
X01929Y02579*
Y02599*
X01943Y02578D02*
Y02598D01*
X01953*
X01957Y02595*
Y02588*
X01953Y02585*
X01943*
X01963Y02582D02*
X01967Y02578D01*
X01973*
X01977Y02582*
Y02595*
X01973Y02598*
X01967*
X01963Y02595*
Y02592*
X01967Y02588*
X01977*
X01997Y02598D02*
X01983D01*
Y02588*
X0199Y02592*
X01993*
X01997Y02588*
Y02582*
X01993Y02578*
X01987*
X01983Y02582*
X02038Y02579D02*
Y02599D01*
X02048*
X02051Y02596*
Y02589*
X02048Y02586*
X02038*
X02058Y02583D02*
X02061Y02579D01*
X02068*
X02071Y02583*
Y02596*
X02068Y02599*
X02061*
X02058Y02596*
Y02593*
X02061Y02589*
X02071*
X02088Y02579D02*
Y02599D01*
X02078Y02589*
X02091*
X02135Y02578D02*
Y02598D01*
X02145*
X02149Y02595*
Y02588*
X02145Y02585*
X02135*
X02155Y02582D02*
X02159Y02578D01*
X02165*
X02169Y02582*
Y02595*
X02165Y02598*
X02159*
X02155Y02595*
Y02592*
X02159Y02588*
X02169*
X02175Y02595D02*
X02179Y02598D01*
X02185*
X02189Y02595*
Y02592*
X02185Y02588*
X02182*
X02185*
X02189Y02585*
Y02582*
X02185Y02578*
X02179*
X02175Y02582*
X02234Y02578D02*
Y02598D01*
X02244*
X02247Y02595*
Y02588*
X02244Y02585*
X02234*
X02254Y02582D02*
X02257Y02578D01*
X02264*
X02267Y02582*
Y02595*
X02264Y02598*
X02257*
X02254Y02595*
Y02592*
X02257Y02588*
X02267*
X02287Y02578D02*
X02274D01*
X02287Y02592*
Y02595*
X02284Y02598*
X02277*
X02274Y02595*
X02335Y02579D02*
Y02599D01*
X02345*
X02348Y02596*
Y02589*
X02345Y02586*
X02335*
X02355Y02583D02*
X02358Y02579D01*
X02365*
X02368Y02583*
Y02596*
X02365Y02599*
X02358*
X02355Y02596*
Y02593*
X02358Y02589*
X02368*
X02375Y02579D02*
X02382D01*
X02378*
Y02599*
X02375Y02596*
X02435Y0258D02*
Y026D01*
X02445*
X02448Y02597*
Y0259*
X02445Y02587*
X02435*
X02455Y02584D02*
X02458Y0258D01*
X02465*
X02468Y02584*
Y02597*
X02465Y026*
X02458*
X02455Y02597*
Y02594*
X02458Y0259*
X02468*
X02475Y02597D02*
X02478Y026D01*
X02485*
X02488Y02597*
Y02584*
X02485Y0258*
X02478*
X02475Y02584*
Y02597*
X02536Y0258D02*
Y026D01*
X02546*
X02549Y02597*
Y0259*
X02546Y02587*
X02536*
X02556Y02597D02*
X02559Y026D01*
X02566*
X02569Y02597*
Y02594*
X02566Y0259*
X02569Y02587*
Y02584*
X02566Y0258*
X02559*
X02556Y02584*
Y02587*
X02559Y0259*
X02556Y02594*
Y02597*
X02559Y0259D02*
X02566D01*
X02589Y026D02*
X02583Y02597D01*
X02576Y0259*
Y02584*
X02579Y0258*
X02586*
X02589Y02584*
Y02587*
X02586Y0259*
X02576*
X02639Y0258D02*
Y026D01*
X02649*
X02653Y02597*
Y0259*
X02649Y02587*
X02639*
X02659Y02597D02*
X02663Y026D01*
X02669*
X02673Y02597*
Y02594*
X02669Y0259*
X02673Y02587*
Y02584*
X02669Y0258*
X02663*
X02659Y02584*
Y02587*
X02663Y0259*
X02659Y02594*
Y02597*
X02663Y0259D02*
X02669D01*
X02693Y026D02*
X02679D01*
Y0259*
X02686Y02594*
X02689*
X02693Y0259*
Y02584*
X02689Y0258*
X02683*
X02679Y02584*
X02744Y02581D02*
Y02601D01*
X02754*
X02757Y02598*
Y02591*
X02754Y02588*
X02744*
X02764Y02598D02*
X02767Y02601D01*
X02774*
X02777Y02598*
Y02595*
X02774Y02591*
X02777Y02588*
Y02585*
X02774Y02581*
X02767*
X02764Y02585*
Y02588*
X02767Y02591*
X02764Y02595*
Y02598*
X02767Y02591D02*
X02774D01*
X02794Y02581D02*
Y02601D01*
X02784Y02591*
X02797*
G54D44*
X0144Y02052D02*
Y02035D01*
X01444Y02032*
X0145*
X01454Y02035*
Y02052*
X0146Y02048D02*
X01463Y02052D01*
X0147*
X01473Y02048*
Y02045*
X0147Y02042*
X01467*
X0147*
X01473Y02039*
Y02035*
X0147Y02032*
X01463*
X0146Y02035*
X01591Y0169D02*
Y01674D01*
X01594Y01671*
X01601*
X01604Y01674*
Y0169*
X01624D02*
X01617Y01687D01*
X01611Y01681*
Y01674*
X01614Y01671*
X01621*
X01624Y01674*
Y01677*
X01621Y01681*
X01611*
X01581Y01912D02*
Y01895D01*
X01584Y01892*
X01591*
X01594Y01895*
Y01912*
X01601D02*
X01614D01*
Y01909*
X01601Y01895*
Y01892*
X01545Y02653D02*
Y02673D01*
X01555*
X01558Y02669*
Y02663*
X01555Y0266*
X01545*
X01564Y02653D02*
X01571D01*
X01568*
Y02673*
X01564Y02669*
X02786Y02543D02*
Y02562D01*
X02796*
X02799Y02559*
Y02553*
X02796Y02549*
X02786*
X02819Y02543D02*
X02806D01*
X02819Y02556*
Y02559*
X02815Y02562*
X02809*
X02806Y02559*
M02*